<svg width="900" height="237" viewBox="0 0 900 237" fill="none" xmlns="http://www.w3.org/2000/svg">
<g clip-path="url(#clip0_1401_557)">
<path d="M524.156 66.1395L575.965 46.8488L524.156 27.007V0L612.893 35.8256V57.8721L524.156 93.6977V66.1395Z" fill="#A100FF"/>
<path d="M524.156 66.1395L575.965 46.8488L524.156 27.007V0L612.893 35.8256V57.8721L524.156 93.6977V66.1395Z" fill="#7B7B7B"/>
<path d="M34.1721 237C15.4326 237 0 227.63 0 206.686V205.584C0 180.23 22.0465 171.412 49.0535 171.412H61.7302V166.451C61.7302 155.979 57.3209 149.916 46.2977 149.916C36.3767 149.916 31.4163 155.428 30.8651 163.144H3.30698C5.51163 139.995 23.7 128.972 47.9512 128.972C72.7535 128.972 90.9419 139.444 90.9419 165.349V234.795H62.8326V222.67C57.3209 230.386 47.9512 237 34.1721 237ZM61.7302 200.623V190.702H50.1558C35.8256 190.702 28.6605 194.56 28.6605 203.93V205.033C28.6605 212.198 33.0698 217.158 42.9907 217.158C52.9116 216.607 61.7302 211.095 61.7302 200.623ZM156.53 237C127.87 237 106.926 219.363 106.926 184.088V182.435C106.926 147.16 128.972 128.421 156.53 128.421C180.23 128.421 199.521 140.547 201.726 167.554H174.167C172.514 157.633 167.002 151.019 157.081 151.019C144.956 151.019 136.137 160.94 136.137 181.333V184.64C136.137 205.584 143.854 214.954 157.081 214.954C167.002 214.954 174.167 207.788 175.821 196.214H202.277C200.623 220.465 184.64 237 156.53 237ZM264.558 237C235.898 237 214.953 219.363 214.953 184.088V182.435C214.953 147.16 237 128.421 264.558 128.421C288.258 128.421 307.549 140.547 309.754 167.554H282.195C280.542 157.633 275.03 151.019 265.109 151.019C252.984 151.019 244.165 160.94 244.165 181.333V184.64C244.165 205.584 251.881 214.954 265.109 214.954C275.03 214.954 282.195 207.788 283.849 196.214H310.305C308.651 220.465 292.667 237 264.558 237ZM373.137 237C343.374 237 322.981 219.363 322.981 184.64V182.435C322.981 147.712 344.477 128.421 372.586 128.421C398.491 128.421 419.986 142.751 419.986 177.474V190.151H352.193C353.295 208.891 361.563 216.056 373.688 216.056C384.712 216.056 390.774 209.993 392.979 202.828H419.986C416.679 222.119 400.144 237 373.137 237ZM352.744 170.86H391.326C390.774 155.428 383.609 148.814 372.035 148.814C363.216 149.365 354.949 154.326 352.744 170.86ZM437.623 131.177H466.835V146.609C471.795 136.688 482.267 128.972 498.251 128.972C516.991 128.972 529.667 140.547 529.667 165.349V234.795H500.456V169.758C500.456 157.633 495.495 152.121 485.023 152.121C475.102 152.121 466.835 158.184 466.835 171.412V234.795H437.623V131.177ZM583.13 99.7605V131.177H602.972V152.672H583.13V201.726C583.13 209.442 586.437 213.3 593.602 213.3C598.012 213.3 600.767 212.749 603.523 211.647V234.244C600.216 235.347 594.154 236.449 586.988 236.449C564.391 236.449 553.919 225.977 553.919 205.033V152.672H541.793V131.177H553.919V111.886L583.13 99.7605ZM712.102 234.795H683.442V219.363C678.481 229.284 668.56 237 653.128 237C634.388 237 620.609 225.426 620.609 201.174V131.177H649.821V197.316C649.821 209.442 654.781 214.954 664.702 214.954C674.623 214.954 682.891 208.34 682.891 195.663V131.177H712.102V234.795ZM733.598 131.177H762.809V150.467C768.872 136.688 778.793 130.074 794.226 130.074V158.735C774.384 158.735 762.809 164.798 762.809 181.884V235.347H733.598V131.177ZM853.2 237C823.437 237 803.044 219.363 803.044 184.64V182.435C803.044 147.712 824.54 128.421 852.649 128.421C878.554 128.421 900.049 142.751 900.049 177.474V190.151H832.807C833.909 208.891 842.177 216.056 854.302 216.056C865.326 216.056 871.388 209.993 873.593 202.828H900.6C896.191 222.119 880.207 237 853.2 237ZM832.256 170.86H871.388C870.837 155.428 863.672 148.814 852.098 148.814C843.279 149.365 835.012 154.326 832.256 170.86Z" fill="#7B7B7B"/>
</g>
<defs>
<clipPath id="clip0_1401_557">
<rect width="899.498" height="237" fill="white"/>
</clipPath>
</defs>
</svg>
