<svg width="93" height="22" viewBox="0 0 93 22" fill="none" xmlns="http://www.w3.org/2000/svg">
<path fill-rule="evenodd" clip-rule="evenodd" d="M46.6997 7.65662L47.7518 5.73367H48.2207V3.0268H51.2558V5.69347L53.1051 5.68677V7.68342C53.7349 5.98158 54.8873 5.54606 57.0582 5.45226C59.4769 5.35176 60.6093 5.83417 61.3596 6.59129C61.7282 6.9598 61.9559 7.67672 61.9292 7.73702L62.9877 5.76717H63.5305L63.5171 3.0402H66.4852L66.4987 5.72697H68.4217L68.415 7.73032C68.4484 7.62982 68.7031 6.9665 68.9779 6.62479C70.2978 4.98995 75.7718 4.94975 76.9645 6.9933C77.1855 7.36851 77.2726 7.82412 77.2726 8.26633L77.2793 12.9431H71.3697L71.3899 15.6232C71.4702 16.3133 72.0867 16.5813 72.9176 16.5879C73.5474 16.6014 74.2173 16.2797 74.2173 15.7639V14.4373H77.2257L77.219 16.2664C77.219 17.9749 75.7785 19.0067 72.683 18.9531C69.8222 18.9062 68.3884 17.7069 68.3884 16.5142V7.91122H66.4988V18.4908L63.4837 18.5043V7.88442H61.9428V18.5042H58.8471V16.4606L57.6814 18.6113H55.1421C54.0231 18.6113 53.0718 17.6733 53.0718 16.1791V13.2311C53.0718 11.2678 54.7199 10.6984 55.8857 10.6984L58.9075 10.685V8.62814C58.7736 7.98493 58.5055 7.71022 57.5542 7.67002C56.8038 7.63652 56.1404 7.85092 56.1271 8.58124L56.1069 9.84087H53.085L53.0783 7.87102L51.1889 7.87772L51.1754 18.5042H48.1873V7.86432H46.693L46.7065 9.87437H43.6847V8.60134C43.6914 8.19933 43.4703 7.75042 42.7198 7.75042H41.8019C41.1386 7.81742 40.9041 8.15913 40.9108 9.26466C40.9175 9.88107 41.0113 10.3501 41.5138 10.4774L45.3128 11.469C45.5205 11.5159 45.8622 11.7638 46.0766 11.9783C46.4316 12.3534 46.6795 12.856 46.6795 13.3652V16.8091C46.6795 18.0687 44.8303 19 42.0363 19C39.3429 19 37.8018 17.8208 37.8018 16.7353V14.243L40.837 14.2162L40.8505 15.9381C40.8974 16.3602 41.0716 16.4874 41.3664 16.5612C41.8689 16.6951 42.693 16.7086 43.0548 16.5879C43.2693 16.5209 43.5172 16.2865 43.5708 16.1123C43.7115 15.6499 43.745 14.846 43.6311 14.4574C43.544 14.1559 43.3497 13.8744 43.0414 13.7874L40.4619 13.0771C39.8723 12.923 39.0816 12.588 38.6796 12.3401C38.425 12.1927 37.8488 11.7839 37.8488 10.7924V7.85762C37.8488 6.8392 38.9476 5.47236 42.3178 5.43886C44.4753 5.41876 45.5942 5.88777 46.1704 6.55109C46.7264 7.18761 46.6997 7.65662 46.6997 7.65662ZM71.4166 8.64824L71.4233 10.8392H74.2441V8.64824C74.177 8.08543 74.0498 7.75042 73.2994 7.71692C73.2727 7.71692 72.5357 7.69012 72.2474 7.72362C71.6578 7.79732 71.4166 8.11223 71.4166 8.64824ZM56.9309 12.9565C56.2074 12.9632 56.1537 13.8342 56.1537 14.6449C56.147 15.4891 56.348 16.4003 56.9176 16.4003L58.8403 16.407L58.847 12.9498L56.9309 12.9565ZM23.5172 18.4908L23.5641 10.8057L22.2776 13.1642L18.9477 13.1575L15.8924 18.4908H12.75L21.1922 3H26.7533V18.4908H23.5172ZM23.5708 10.7387V4.60134L20.2609 10.7454L23.5708 10.7387ZM31.4904 18.5645L31.4971 3.0268H28.4552V18.5176L31.4904 18.5645ZM36.2944 3.0268L33.2391 3.0134L33.219 18.4908H36.281L36.2944 3.0268ZM78.6996 4.88945C79.2759 4.88945 79.7516 5.35846 79.7516 5.93467C79.7516 6.51089 79.276 6.9866 78.6996 6.9866C78.1235 6.9866 77.6546 6.51089 77.6546 5.93467C77.6546 5.35846 78.1235 4.88945 78.6996 4.88945ZM78.6996 5.04355C78.2172 5.04355 77.8219 5.43886 77.8219 5.92127C77.8219 6.41039 78.2172 6.8057 78.6996 6.8057C78.8158 6.80581 78.9309 6.783 79.0382 6.7386C79.1456 6.69419 79.2431 6.62905 79.3253 6.5469C79.4074 6.46475 79.4725 6.36721 79.517 6.25986C79.5614 6.1525 79.5842 6.03745 79.584 5.92127C79.584 5.43886 79.1887 5.04355 78.6996 5.04355ZM79.1954 5.65327C79.1954 5.78057 79.1016 5.91467 78.9744 5.94137C79.0682 5.94137 79.1687 6.09548 79.1687 6.22278C79.1687 6.30318 79.1687 6.41039 79.1754 6.45729L79.1821 6.49749H78.9542C78.9475 6.49749 78.9407 6.43719 78.9407 6.40369V6.25628C78.9407 6.14238 78.8404 6.03518 78.7332 6.03518H78.4986V6.49749H78.2641V5.31826H78.8939C79.0281 5.31826 79.1954 5.44556 79.1954 5.65327ZM78.4921 5.49916V5.84757H78.7869C78.8874 5.84757 78.9677 5.76717 78.9677 5.65997C78.9677 5.54606 78.9006 5.49916 78.7801 5.49916H78.4921Z" fill="black"/>
</svg>
