<svg width="157" height="20" viewBox="0 0 157 20" fill="none" xmlns="http://www.w3.org/2000/svg">
<path d="M89.9685 19.956C89.9022 19.9348 89.7502 19.8906 89.6309 19.8579C89.1787 19.7337 88.9545 19.6281 88.4625 19.3075C88.0942 19.0674 87.4121 18.4162 87.4121 18.3046C87.4121 18.2841 87.3464 18.1605 87.2661 18.03C86.5634 16.888 86.5812 15.0117 87.3072 13.6836C87.8711 12.6519 89.5199 11.4873 90.8126 11.2076C91.2673 11.1092 91.4644 11.069 91.6808 11.0307C91.8134 11.0072 92.1134 10.9538 92.3475 10.912C92.9983 10.7959 93.9495 10.6934 94.4057 10.6903C95.285 10.6843 95.3143 10.6302 95.0793 9.44688C94.7457 7.76739 93.1211 6.93933 90.9814 7.35817C89.9496 7.56012 89.5804 7.67185 88.9736 7.96578C88.239 8.32154 88.2856 8.32754 88.1418 7.85858C88.0333 7.50452 87.7964 6.80488 87.7274 6.63497C87.6867 6.53462 88.0654 6.29116 88.6561 6.03792C89.3455 5.74237 89.3487 5.74124 89.9444 5.58255C93.5409 4.62433 96.7451 5.89034 97.4461 8.54667C97.4671 8.62625 97.5316 8.86501 97.5894 9.07724C97.6473 9.28947 97.7154 9.57164 97.7408 9.70428C97.7662 9.83692 97.8072 11.9532 97.8318 14.4071C97.8565 16.861 97.8964 19.0532 97.9206 19.2787C97.9448 19.5042 97.9597 19.6941 97.9538 19.7008C97.9354 19.7215 95.6569 19.7258 95.6363 19.7051C95.6195 19.6883 95.4671 18.214 95.4671 18.0681C95.4671 17.9822 95.3938 18.0375 95.1833 18.2822C94.7604 18.7737 94.1546 19.2123 93.4045 19.5702C93.0964 19.7172 92.7943 19.8111 92.2355 19.9335C91.8929 20.0086 90.1858 20.0255 89.9685 19.956ZM92.6076 17.9968C93.6733 17.7767 94.7136 16.9186 95.0535 15.9794C95.2558 15.4203 95.2798 15.1758 95.2645 13.8283L95.2501 12.5501L94.6231 12.5629C91.2961 12.6306 89.502 13.6348 89.3574 15.5101C89.2176 17.3226 90.6321 18.4049 92.6076 17.9968ZM120.091 19.9476C119.984 19.923 119.778 19.8801 119.632 19.8521C117.155 19.3778 115.098 17.3208 114.644 14.8625C114.6 14.6253 114.542 14.3118 114.515 14.1659C114.051 11.6657 115.027 8.63957 116.783 7.13685C117.423 6.58985 118.791 5.77321 119.069 5.77321C119.11 5.77321 119.156 5.75401 119.171 5.73054C119.185 5.70707 119.257 5.6763 119.33 5.66216C119.404 5.64802 119.55 5.61307 119.656 5.58449C121.324 5.13545 123.641 5.23471 125.107 5.81793C125.595 6.01196 125.637 6.06728 125.522 6.36181C125.498 6.42275 125.452 6.57028 125.42 6.68966C125.217 7.43867 125.01 8.03979 124.955 8.04C124.924 8.04014 124.805 7.99372 124.689 7.93689C122.334 6.77567 118.51 7.77057 117.81 9.72648C117.796 9.76733 117.748 9.85501 117.704 9.92133C117.118 10.8035 116.922 12.7594 117.266 14.2786C117.583 15.6737 118.611 16.9565 119.801 17.4428C120.013 17.5295 120.252 17.6301 120.332 17.6664C121.275 18.0964 122.726 18.0405 124.355 17.5113C124.93 17.3245 125.13 17.2736 125.131 17.3132C125.131 17.3198 125.198 17.64 125.28 18.0246C125.361 18.4093 125.439 18.8434 125.452 18.9893L125.476 19.2546L125.099 19.4106C124.474 19.6686 124.026 19.7816 122.955 19.9516C122.568 20.013 120.36 20.01 120.091 19.9476ZM135.984 19.9522C135.917 19.9304 135.765 19.887 135.646 19.8559C134.407 19.5326 133.266 18.4592 132.926 17.2968C132.908 17.2329 132.856 17.0612 132.813 16.9152C132.184 14.8174 133.622 12.4356 136.104 11.4667C136.837 11.1808 136.908 11.1622 137.973 10.9788C138.139 10.9503 138.372 10.9073 138.492 10.8832C138.871 10.8067 139.998 10.6932 140.378 10.6931C141.265 10.693 141.253 10.7044 141.17 9.96569C140.962 8.09434 140.026 7.29982 138.034 7.30356C136.671 7.30612 135.746 7.54033 134.428 8.21605C134.281 8.29151 134.276 8.2865 134.162 7.89551C134.135 7.80266 134.032 7.47203 133.933 7.16078C133.711 6.45913 133.959 6.20907 135.308 5.7754C139.298 4.493 142.492 5.60627 143.475 8.62235C143.586 8.96367 143.624 9.10233 143.754 9.65604C143.794 9.82381 143.823 11.1818 143.85 14.1177C143.872 16.4389 143.908 18.642 143.931 19.0134C143.98 19.8276 144.098 19.7456 142.866 19.7494C141.545 19.7536 141.661 19.8183 141.586 19.0307C141.515 18.2761 141.482 18.0246 141.453 18.0246C141.441 18.0246 141.237 18.2187 141 18.4559C140.641 18.8146 140.06 19.2787 139.969 19.2787C139.956 19.2787 139.841 19.3436 139.713 19.423C139.385 19.6265 138.969 19.7714 138.251 19.9321C137.906 20.0091 136.202 20.0242 135.984 19.9522ZM138.801 17.9568C140.73 17.4176 141.615 15.567 141.268 12.7988L141.233 12.517L140.67 12.5469C137.865 12.6962 136.411 13.2129 135.777 14.2863C135 15.6032 135.374 17.2411 136.597 17.8743C136.994 18.0801 138.199 18.1252 138.801 17.9568ZM32.419 19.8832C32.4066 19.8708 31.9417 19.836 31.386 19.8057C30.8302 19.7755 30.2236 19.7368 30.0378 19.7197L29.7002 19.6887L29.6744 18.7964C29.6602 18.3056 29.6435 14.7594 29.6372 10.9159C29.6309 7.07237 29.6141 3.90882 29.5998 3.88577C29.5856 3.86272 28.4575 3.84386 27.0929 3.84386H24.6118L24.5996 11.7904L24.5874 19.7369L22.4169 19.7195C21.2231 19.7099 20.2301 19.6924 20.2102 19.6805C20.1903 19.6686 20.174 16.5075 20.1739 12.6558C20.1738 8.80404 20.1596 5.24664 20.1422 4.75042L20.1107 3.84822L17.8288 3.83398C15.8747 3.82179 15.5374 3.80935 15.4805 3.74739C15.3988 3.65833 15.0535 2.5879 14.7726 1.55275C14.751 1.47316 14.6861 1.26696 14.6283 1.09453C14.49 0.681826 14.3385 0.112995 14.3609 0.0906294C14.4075 0.0439816 37.2166 0.0803486 37.7312 0.127891C38.985 0.243745 39.9518 0.489769 40.7699 0.901172C40.9423 0.987884 41.1919 1.11346 41.3246 1.18022C43.7654 2.40874 44.3848 5.78062 42.5522 7.86257C42.1711 8.29553 40.9258 9.10136 40.6378 9.10136C40.4982 9.10136 40.5911 9.1958 40.7578 9.22346C43.0014 9.59568 44.8265 12.6862 44.2035 15.0582C44.0616 15.5988 44.0341 15.6944 43.9612 15.9023C43.8108 16.3316 43.2948 17.1403 42.931 17.517C42.8035 17.649 42.6993 17.7718 42.6993 17.7899C42.6993 17.8269 42.1554 18.267 41.8569 18.4715C41.5538 18.6792 40.6734 19.0989 40.3599 19.1852C40.2803 19.2071 40.1392 19.2467 40.0464 19.2733C39.8573 19.3273 39.6745 19.3781 39.2505 19.4945C38.6668 19.6547 38.1382 19.729 36.6672 19.8572C36.1195 19.9049 32.4631 19.9273 32.419 19.8832ZM37.0076 16.4741C39.2557 15.9428 40.203 14.2105 39.1776 12.506C38.5623 11.4831 37.4444 11.1029 35.1506 11.1365L34.1377 11.1513L34.1244 13.7559C34.117 15.1885 34.1227 16.4086 34.1369 16.4673C34.1822 16.6543 36.2249 16.6591 37.0076 16.4741ZM36.9353 7.69721C38.5495 7.51297 39.2048 6.87415 38.9922 5.69217C38.7429 4.30571 37.7929 3.84386 35.1905 3.84386H34.1136V5.74515C34.1136 6.79086 34.1276 7.683 34.1448 7.72767C34.1799 7.81916 36.0452 7.7988 36.9353 7.69721ZM2.18277 19.7128C1.24599 19.6975 0.713159 19.6712 0.71583 19.6405C0.721899 19.5707 0.824478 19.2276 1.00448 18.6749C1.09105 18.4092 1.21581 17.9859 1.28172 17.7344C1.34764 17.4828 1.45633 17.1142 1.52325 16.9152C1.59017 16.7163 1.7237 16.2713 1.81998 15.9265C1.91626 15.5816 2.07892 15.0498 2.18144 14.7447C2.28396 14.4396 2.42523 13.9947 2.49538 13.7559C2.56553 13.5172 2.6422 13.2676 2.66575 13.2012C2.73373 13.0098 3.04033 11.9974 3.11858 11.706C3.15776 11.5601 3.23262 11.2996 3.28492 11.1272C3.33723 10.9547 3.44734 10.5858 3.52961 10.3072C3.82542 9.30559 3.88212 9.11946 4.01444 8.71548C4.0883 8.48999 4.20837 8.11015 4.28125 7.87139C4.35413 7.63263 4.45293 7.31791 4.50081 7.172C4.5928 6.89162 4.90461 5.86435 4.94736 5.70086C4.96123 5.64781 5.0158 5.46331 5.06863 5.29088C5.12146 5.11844 5.23148 4.74945 5.31312 4.4709C5.39476 4.19235 5.48168 3.89933 5.50627 3.81974C5.53087 3.74016 5.61952 3.44713 5.70329 3.16858C5.90699 2.49123 6.17819 1.61377 6.28471 1.28746C6.33233 1.14155 6.42892 0.826828 6.49934 0.58807C6.67566 -0.0097402 6.36145 0.0456987 9.5956 0.0417642C12.4406 0.0383029 12.5714 0.0457647 12.6183 0.214206C12.6312 0.260659 12.6867 0.450603 12.7415 0.636303C12.7964 0.822004 12.9086 1.20185 12.9909 1.4804C13.2012 2.1924 13.2959 2.5051 13.4437 2.97565C13.5146 3.20114 13.6713 3.70036 13.792 4.08503C13.9127 4.46969 14.085 5.01233 14.175 5.29088C14.2649 5.56943 14.3797 5.92756 14.4299 6.08674C14.4802 6.24591 14.5971 6.6149 14.6898 6.90671C14.7824 7.19853 14.9062 7.60007 14.9648 7.79904C15.0233 7.998 15.0894 8.21506 15.1117 8.28138C15.1339 8.3477 15.2277 8.65157 15.3201 8.95665C15.4125 9.26173 15.5572 9.73925 15.6416 10.0178C15.726 10.2963 15.8689 10.7522 15.9591 11.0307C16.0494 11.3093 16.1645 11.6674 16.215 11.8266C16.2655 11.9857 16.3977 12.3981 16.5087 12.743C16.6198 13.0879 16.7943 13.6522 16.8965 13.9971C16.9987 14.342 17.1396 14.8086 17.2096 15.0341C17.3309 15.425 17.37 15.5584 17.4677 15.9144C17.4913 16.0006 17.5874 16.3099 17.6812 16.6017C17.7749 16.8935 17.8889 17.2517 17.9344 17.3976C17.9799 17.5435 18.1669 18.1167 18.3499 18.6714C18.7613 19.9183 19.0424 19.7794 16.1936 19.7367L13.7972 19.7007L13.7235 19.5259C13.6566 19.3671 13.5246 18.953 13.4217 18.5793C13.3998 18.4997 13.2802 18.0982 13.156 17.687C13.0317 17.2758 12.9104 16.8688 12.8863 16.7826C12.8622 16.6964 12.8229 16.5553 12.7989 16.4691C12.6066 15.7765 12.3401 14.9425 12.2826 14.8528C12.1921 14.7119 6.78606 14.7006 6.71461 14.8412C6.69439 14.881 6.65111 15.0112 6.61843 15.1306C6.58575 15.25 6.53978 15.4128 6.51627 15.4923C6.48103 15.6117 6.28324 16.3153 6.03494 17.2047C6.00902 17.2975 5.96927 17.4386 5.94661 17.5182C5.92396 17.5978 5.86119 17.8257 5.80714 18.0246C5.64798 18.6105 5.55391 18.954 5.50337 19.134C5.4773 19.2269 5.44327 19.3571 5.42775 19.4234C5.34768 19.7657 5.33744 19.7691 4.45414 19.7522C4.01401 19.7438 2.99189 19.7261 2.18277 19.7128ZM9.95237 11.2719C11.8063 11.2719 11.6313 11.3597 11.3768 10.557C11.287 10.2737 11.1654 9.85742 11.1067 9.63193C11.0479 9.40643 10.9813 9.16768 10.9586 9.10136C10.9359 9.03503 10.8181 8.63349 10.6968 8.20903C10.4404 7.31194 10.3014 6.83919 10.2148 6.56907C10.138 6.32992 9.91342 5.48704 9.68388 4.57671C9.47394 3.74418 9.40942 3.56624 9.38314 3.74739C9.344 4.0172 9.17419 4.78903 9.08071 5.12206C8.96212 5.5445 8.93108 5.675 8.81286 6.24818C8.7453 6.57574 8.66156 6.93387 8.62679 7.04404C8.59201 7.15421 8.53481 7.34202 8.49968 7.4614C8.46455 7.58078 8.42092 7.70016 8.40273 7.72669C8.38454 7.75322 8.3574 7.82919 8.34242 7.89551C8.32744 7.96183 8.29358 8.09206 8.26716 8.18491C8.24075 8.27776 8.17335 8.53822 8.1174 8.76372C8.06144 8.98921 7.99519 9.23882 7.97019 9.31841C7.94518 9.39799 7.88374 9.59334 7.83366 9.75251C7.6322 10.3927 7.4885 10.9721 7.4885 11.1442C7.4885 11.2629 7.99768 11.3518 8.30036 11.2859C8.33569 11.2782 9.0791 11.2719 9.95237 11.2719ZM82.9987 19.7128L82.3234 19.6887L82.2956 15.2029C82.2652 10.3057 82.2823 10.5985 81.9725 9.65604C81.7979 9.12471 81.7399 8.99291 81.5589 8.71548C80.3433 6.85269 77.3539 7.12714 76.0407 9.22209C75.491 10.0989 75.5023 9.98011 75.4702 15.222L75.4429 19.6887L74.1442 19.7015L72.8454 19.7144L72.8432 17.6998C72.8355 10.882 72.7843 6.05824 72.716 5.71693L72.6887 5.58028H73.8495C74.5798 5.58028 75.0215 5.59837 75.0405 5.62904C75.0636 5.66644 75.1515 7.20898 75.1594 7.71463C75.1616 7.86007 75.2366 7.80842 75.4392 7.52169C77.4967 4.61055 82.1116 4.53821 83.901 7.38905C84.522 8.37844 84.7885 9.2608 84.9032 10.7078C84.9858 11.7488 84.9681 19.6395 84.8831 19.7101C84.8134 19.7679 84.5529 19.7683 82.9987 19.7128ZM111.041 19.7259L109.901 19.7111L109.874 15.2865C109.844 10.3006 109.834 10.1487 109.479 9.36592C109.443 9.28593 109.39 9.15948 109.361 9.08492C109.1 8.39802 108.238 7.69071 107.492 7.55147C107.113 7.48076 105.881 7.52665 105.587 7.6224C104.737 7.8997 103.905 8.6555 103.456 9.55745C103.049 10.3762 102.999 11.2311 102.994 17.4579L102.992 19.7128H101.713H100.435L100.433 14.5638C100.431 10.051 100.383 5.89563 100.332 5.67675C100.312 5.59351 102.536 5.53972 102.618 5.62145C102.642 5.6451 102.68 5.98737 102.703 6.38205C102.787 7.83851 102.807 7.92747 102.967 7.61816C103.388 6.80918 104.837 5.778 106.006 5.45625C106.646 5.28031 108.187 5.26943 108.735 5.43698C108.826 5.46474 108.976 5.51015 109.069 5.53787C110.835 6.06521 112.087 7.70454 112.399 9.89721C112.572 11.1163 112.486 19.7359 112.301 19.7388C112.234 19.7398 111.667 19.734 111.041 19.7259ZM129.086 19.7141L127.904 19.6887V12.6465V5.6044H129.207H130.509L130.505 12.6386C130.501 19.9968 130.507 19.7892 130.316 19.7495C130.29 19.744 129.736 19.7281 129.086 19.7141ZM53.6319 19.0978C53.5723 17.929 53.5946 0.13893 53.6558 0.101149C53.7482 0.0440348 64.0148 0.0279349 64.1209 0.0847374C64.2084 0.131541 64.2127 0.191361 64.2005 1.18113L64.1875 2.22802L60.2323 2.25214C58.0569 2.2654 56.25 2.29382 56.2168 2.31528C56.1476 2.36005 56.134 4.73835 56.1883 7.27253L56.22 8.74773L59.7763 8.72504C61.7323 8.71255 63.3898 8.71667 63.4595 8.73419C63.5864 8.76603 63.5864 8.76603 63.5734 9.81396L63.5604 10.8619L59.8705 10.886L56.1806 10.9101V15.3115V19.7128L54.9219 19.7128L53.6632 19.7128L53.6319 19.0978ZM67.2327 19.6751C67.2199 19.6543 67.2042 16.4799 67.1978 12.6209L67.1863 5.6044L68.4724 5.59155L69.7585 5.5787V12.6458V19.7128H68.5072C67.8191 19.7128 67.2455 19.6958 67.2327 19.6751ZM146.738 13.5758C146.735 3.41611 146.742 0.165066 146.769 0.122304C146.797 0.0759287 148.96 0.0770048 149.165 0.123496L149.299 0.153965V9.92133V19.6887L148.02 19.7015L146.74 19.7144L146.738 13.5758ZM67.9979 3.22355C66.6414 2.86534 66.4748 0.789895 67.7536 0.179597C68.742 -0.29211 69.7224 0.190698 70.0913 1.33083C70.4385 2.40393 69.1853 3.53708 67.9979 3.22355ZM128.749 3.23481C128.124 3.11252 127.591 2.39599 127.591 1.67744C127.591 -0.182412 130.155 -0.639564 130.723 1.11898C131.137 2.40213 130.111 3.5015 128.749 3.23481ZM152.241 2.32701C152.208 2.28764 152.194 1.94023 152.202 1.35457L152.214 0.443368L151.875 0.429406C151.593 0.417783 151.525 0.398658 151.473 0.315194C151.373 0.154602 151.44 0.139995 152.447 0.103348L153.403 0.0685497L153.388 0.231842C153.372 0.395134 153.372 0.395134 152.999 0.409203L152.626 0.423273L152.613 1.398L152.6 2.37272L152.446 2.38049C152.361 2.38477 152.268 2.3607 152.241 2.32701ZM153.83 1.24578V0.0947258L154.055 0.0638561C154.33 0.0262452 154.464 0.0998947 154.539 0.329596C154.948 1.57892 155.01 1.66608 155.172 1.22717C155.233 1.06137 155.336 0.784085 155.401 0.610992C155.465 0.437899 155.518 0.270447 155.518 0.238877C155.518 0.114109 155.896 0.00200013 156.109 0.0636585C156.276 0.111866 156.232 2.33002 156.064 2.36213C155.83 2.40683 155.827 2.39568 155.84 1.56351C155.857 0.420117 155.837 0.382585 155.613 1.14276C155.578 1.26214 155.536 1.38152 155.519 1.40805C155.502 1.43458 155.426 1.64616 155.349 1.87824C155.202 2.32096 155.14 2.38512 154.912 2.32793C154.848 2.31176 154.795 2.26628 154.795 2.22687C154.795 2.18745 154.741 2.04272 154.674 1.90524C154.608 1.76776 154.554 1.61955 154.554 1.57588C154.554 1.53221 154.538 1.48055 154.518 1.46109C154.499 1.44163 154.425 1.24809 154.354 1.031L154.225 0.636303L154.22 1.46664C154.216 2.36576 154.206 2.39684 153.93 2.39684C153.832 2.39684 153.83 2.3769 153.83 1.24578Z" fill="black"/>
</svg>
