<svg width="80" height="32" viewBox="0 0 80 32" fill="none" xmlns="http://www.w3.org/2000/svg">
<path d="M16.1745 4.88553H20.8873C22.1804 4.88553 23.8183 5.19378 23.8183 7.39101C23.8183 9.58832 21.477 10.4837 19.7394 10.4837H16.1745V4.88553ZM16.1745 13.469H18.8592C23.2728 13.469 25.5206 14.4338 25.5206 17.0163C25.5206 19.3045 23.7173 20.2718 20.8873 20.2718H16.5912L11.6788 23.7118L20.8545 23.7105C26.349 23.7105 30.0479 21.7317 30.0479 17.1539C30.0479 13.1608 26.7746 11.5924 23.8524 11.5924C25.8717 11.5924 28.2572 9.78281 28.2572 6.71415C28.2572 3.64802 25.4524 1.44434 22.2524 1.44434H12.8873H10.8567L11.6788 3.26912V22.1093L16.1745 18.961V13.469Z" fill="black"/>
<path d="M37.4472 4.88553H40.5095C41.7723 4.88553 48.2165 5.20521 48.2165 12.5787C48.2165 20.9916 40.5095 20.2693 40.5095 20.2693L37.8652 20.2718L32.9502 23.7118L41.7723 23.713C47.2681 23.713 52.9003 20.3324 52.9003 12.5787C52.9003 5.70261 47.9816 1.44434 41.7723 1.44434H32.1294L32.9502 3.26912V22.1093L37.4472 18.961V4.88553Z" fill="black"/>
<path d="M59.6629 12.5776C59.6629 6.28111 64.0007 4.5119 66.8105 4.5119C69.6202 4.5119 73.9593 6.28111 73.9593 12.5776C73.9593 18.874 69.6202 20.6432 66.8105 20.6432C64.0007 20.6432 59.6629 18.874 59.6629 12.5776ZM54.9778 12.5776C54.9778 21.4615 62.1582 23.9581 66.8105 23.9581C71.4627 23.9581 78.6431 21.4615 78.6431 12.5776C78.6431 3.69358 71.4627 1.19824 66.8105 1.19824C62.1582 1.19824 54.9778 3.69358 54.9778 12.5776Z" fill="black"/>
<path d="M1.55176 1.44434V29.2025L5.94386 26.1262V1.44434H1.55176Z" fill="#777777"/>
<path d="M6.76422 27.1533L1.55127 30.8016H78.3967V27.1533H6.76422Z" fill="#777777"/>
</svg>
