<svg width="101" height="36" viewBox="0 0 101 36" fill="none" xmlns="http://www.w3.org/2000/svg">
<g clip-path="url(#clip0_251_732)">
<path d="M68.6806 26.0399H68.6566C64.3846 29.0639 59.3446 32.2319 53.8966 35.5679L53.6806 35.6879C53.6571 35.6975 53.6361 35.7124 53.6191 35.7314C53.6022 35.7504 53.5898 35.773 53.5828 35.7975C53.5759 35.822 53.5746 35.8477 53.5791 35.8728C53.5835 35.8978 53.5936 35.9215 53.6086 35.9421C53.6236 35.9627 53.643 35.9796 53.6655 35.9916C53.6879 36.0035 53.7128 36.0102 53.7382 36.0112C53.7637 36.0121 53.789 36.0073 53.8123 35.997C53.8355 35.9867 53.8562 35.9713 53.8726 35.9519L54.0406 35.8559C58.6726 33.4559 63.9766 30.5999 69.3046 27.6479L69.4006 27.5999C69.0862 27.1176 68.8436 26.5921 68.6806 26.0399ZM96.7126 3.33588C89.9926 -4.08012 46.6486 2.59188 28.2406 6.62388L27.8086 6.71988C27.7664 6.73076 27.7291 6.75571 27.703 6.79061C27.6768 6.82551 27.6633 6.86828 27.6646 6.91188C27.667 6.93356 27.6742 6.95442 27.6858 6.97289C27.6974 6.99137 27.713 7.00697 27.7315 7.01852C27.75 7.03008 27.7709 7.03729 27.7925 7.0396C27.8142 7.04191 27.8361 7.03927 27.8566 7.03188L28.2886 6.95988C43.5526 4.24788 75.3046 0.47988 82.1206 7.24788C84.2086 9.31188 83.7286 11.9759 81.3046 15.1199C82.6427 15.9941 83.5892 17.3536 83.9446 18.9119C93.3766 12.6479 99.7126 6.64788 96.7126 3.33588Z" fill="#CC2427"/>
<path d="M68.6806 26.0399H68.6566C64.3846 29.0639 59.3446 32.2319 53.8966 35.5679L53.6806 35.6879C53.6571 35.6975 53.6361 35.7124 53.6191 35.7314C53.6022 35.7504 53.5898 35.773 53.5828 35.7975C53.5759 35.822 53.5746 35.8477 53.5791 35.8728C53.5835 35.8978 53.5936 35.9215 53.6086 35.9421C53.6236 35.9627 53.643 35.9796 53.6655 35.9916C53.6879 36.0035 53.7128 36.0102 53.7382 36.0112C53.7637 36.0121 53.789 36.0073 53.8123 35.997C53.8355 35.9867 53.8562 35.9713 53.8726 35.9519L54.0406 35.8559C58.6726 33.4559 63.9766 30.5999 69.3046 27.6479L69.4006 27.5999C69.0862 27.1176 68.8436 26.5921 68.6806 26.0399ZM96.7126 3.33588C89.9926 -4.08012 46.6486 2.59188 28.2406 6.62388L27.8086 6.71988C27.7664 6.73076 27.7291 6.75571 27.703 6.79061C27.6768 6.82551 27.6633 6.86828 27.6646 6.91188C27.667 6.93356 27.6742 6.95442 27.6858 6.97289C27.6974 6.99137 27.713 7.00697 27.7315 7.01852C27.75 7.03008 27.7709 7.03729 27.7925 7.0396C27.8142 7.04191 27.8361 7.03927 27.8566 7.03188L28.2886 6.95988C43.5526 4.24788 75.3046 0.47988 82.1206 7.24788C84.2086 9.31188 83.7286 11.9759 81.3046 15.1199C82.6427 15.9941 83.5892 17.3536 83.9446 18.9119C93.3766 12.6479 99.7126 6.64788 96.7126 3.33588Z" fill="white"/>
<path d="M68.6806 26.0399H68.6566C64.3846 29.0639 59.3446 32.2319 53.8966 35.5679L53.6806 35.6879C53.6571 35.6975 53.6361 35.7124 53.6191 35.7314C53.6022 35.7504 53.5898 35.773 53.5828 35.7975C53.5759 35.822 53.5746 35.8477 53.5791 35.8728C53.5835 35.8978 53.5936 35.9215 53.6086 35.9421C53.6236 35.9627 53.643 35.9796 53.6655 35.9916C53.6879 36.0035 53.7128 36.0102 53.7382 36.0112C53.7637 36.0121 53.789 36.0073 53.8123 35.997C53.8355 35.9867 53.8562 35.9713 53.8726 35.9519L54.0406 35.8559C58.6726 33.4559 63.9766 30.5999 69.3046 27.6479L69.4006 27.5999C69.0862 27.1176 68.8436 26.5921 68.6806 26.0399ZM96.7126 3.33588C89.9926 -4.08012 46.6486 2.59188 28.2406 6.62388L27.8086 6.71988C27.7664 6.73076 27.7291 6.75571 27.703 6.79061C27.6768 6.82551 27.6633 6.86828 27.6646 6.91188C27.667 6.93356 27.6742 6.95442 27.6858 6.97289C27.6974 6.99137 27.713 7.00697 27.7315 7.01852C27.75 7.03008 27.7709 7.03729 27.7925 7.0396C27.8142 7.04191 27.8361 7.03927 27.8566 7.03188L28.2886 6.95988C43.5526 4.24788 75.3046 0.47988 82.1206 7.24788C84.2086 9.31188 83.7286 11.9759 81.3046 15.1199C82.6427 15.9941 83.5892 17.3536 83.9446 18.9119C93.3766 12.6479 99.7126 6.64788 96.7126 3.33588Z" fill="#777777"/>
<path d="M32.5127 20.2318C31.9863 20.2334 31.4739 20.4014 31.0487 20.7118C30.6131 21.0751 30.3303 21.5893 30.2567 22.1518C30.1127 22.8958 30.1847 23.3998 30.4727 23.7358C30.6405 23.8988 30.84 24.0255 31.0588 24.1081C31.2776 24.1907 31.5111 24.2273 31.7447 24.2158C32.1084 24.2231 32.4692 24.1493 32.8007 23.9998C33.1208 23.8517 33.3946 23.6194 33.5927 23.3278C33.8172 22.994 33.9723 22.6186 34.0487 22.2238C34.1687 21.5518 34.0727 21.0718 33.7607 20.7358C33.6015 20.5666 33.4075 20.4339 33.192 20.3469C32.9766 20.2599 32.7448 20.2206 32.5127 20.2318ZM25.0487 29.5438L27.0407 18.3118H30.6407L30.3527 19.7518C30.747 19.2587 31.2704 18.8848 31.8647 18.6718C32.6045 18.3696 33.3938 18.2068 34.1927 18.1918C35.1287 18.1918 35.7047 18.2398 36.4007 18.5998C37.0606 18.9309 37.5738 19.4954 37.8407 20.1838C38.1236 20.9093 38.1902 21.7012 38.0327 22.4638C37.9329 23.1185 37.7031 23.7467 37.3568 24.3114C37.0106 24.876 36.555 25.3658 36.0167 25.7518C34.9127 26.5438 33.9287 26.7598 32.5127 26.7598C32.0843 26.7676 31.6566 26.7192 31.2407 26.6158C30.9546 26.5535 30.6795 26.4483 30.4247 26.3038C30.1759 26.1243 29.9501 25.9147 29.7527 25.6798L29.0807 29.5438H25.0487ZM66.5927 26.6398H62.4167L64.5287 14.9758L68.5847 15.0718L66.5927 26.6398ZM45.7607 18.2158L46.0487 16.5118L50.3207 15.5998L49.8647 18.2158H51.9767L51.5687 19.9198H49.5287L48.3047 26.6398H44.1527L45.4007 19.9198H43.8407L44.1527 18.2398H45.7607V18.2158ZM12.4967 23.6398C11.3783 23.89 10.2348 24.0108 9.08874 23.9998C7.14474 23.9998 5.58474 23.0398 5.68074 21.2398C5.72874 20.0638 7.14474 17.5678 10.6967 17.5678C11.8218 17.5418 12.9304 17.8418 13.8887 18.4318L14.3927 15.5278C13.112 15.0191 11.7373 14.79 10.3607 14.8558C5.68074 14.9038 1.19274 17.0158 0.64074 21.3358C0.0887402 25.6558 5.44074 26.8318 7.81674 26.8318C9.18474 26.8318 10.6247 26.7598 11.9447 26.6398L12.4967 23.6398ZM58.0247 22.7998L57.3287 22.9918L55.7207 23.2798C55.3404 23.3109 54.9716 23.4256 54.6407 23.6158C54.5441 23.6701 54.4614 23.746 54.399 23.8376C54.3365 23.9292 54.2961 24.034 54.2807 24.1438C54.252 24.2503 54.2574 24.3632 54.2962 24.4665C54.3349 24.5698 54.4051 24.6584 54.4967 24.7198C54.7127 24.8638 55.0487 24.9118 55.5287 24.9118C55.8857 24.9128 56.2411 24.8643 56.5847 24.7678C56.9005 24.6754 57.1943 24.5203 57.4487 24.3118C57.6169 24.1641 57.7415 23.9732 57.8087 23.7598C57.9099 23.447 57.9822 23.1257 58.0247 22.7998ZM62.4407 20.0398C62.4167 20.4478 62.3447 20.8318 62.2487 21.4318L61.5047 25.6318C61.4652 25.8007 61.4839 25.978 61.558 26.1349C61.6321 26.2918 61.7571 26.419 61.9127 26.4958V26.6398H57.6167V25.5598C56.9703 25.9443 56.2765 26.2429 55.5527 26.4478C54.8787 26.6203 54.1844 26.701 53.4887 26.6878C52.1207 26.6878 51.3287 26.5438 50.7767 26.0638C50.2247 25.5838 49.9607 25.2478 49.9847 24.5758C50.0302 24.1159 50.2143 23.6806 50.5127 23.3278C50.8266 22.9848 51.2116 22.7145 51.6407 22.5358C52.1824 22.2937 52.7564 22.132 53.3447 22.0558C54.1127 21.9358 55.1687 21.8158 56.5847 21.6958C57.0599 21.6498 57.5275 21.545 57.9767 21.3838C58.2647 21.2638 58.3847 21.1438 58.4327 20.9038C58.4807 20.6638 58.3847 20.2318 57.8087 20.1118C56.2727 19.7998 53.3927 20.3038 51.9047 20.6638L52.6967 18.5038C54.5942 18.202 56.5115 18.0415 58.4327 18.0238C61.4807 18.0478 62.4647 18.9358 62.4407 20.0398ZM37.9127 26.6398L39.4007 18.2638H43.5047L42.0167 26.6398H37.9127ZM39.6407 16.3438C39.7607 15.6478 40.8407 15.0958 42.0647 15.0958C43.2887 15.0958 44.1527 15.6478 44.0327 16.3438C43.9127 17.0398 42.8327 17.5918 41.6087 17.5918C40.3847 17.5918 39.5207 17.0158 39.6407 16.3438ZM21.1127 22.7758C20.889 22.8665 20.6554 22.9309 20.4167 22.9678L18.8327 23.2558C18.4442 23.2834 18.0668 23.3982 17.7287 23.5918C17.6315 23.6513 17.5488 23.7317 17.4865 23.8272C17.4243 23.9227 17.384 24.0308 17.3687 24.1438C17.344 24.2493 17.3541 24.3601 17.3973 24.4595C17.4405 24.559 17.5147 24.6418 17.6087 24.6958C17.9155 24.8672 18.2667 24.9425 18.6167 24.9118C18.9748 24.9047 19.3302 24.8481 19.6727 24.7438C19.9885 24.6514 20.2823 24.4963 20.5367 24.2878C20.705 24.1401 20.8295 23.9492 20.8967 23.7358C21.0132 23.4274 21.0859 23.1043 21.1127 22.7758ZM25.5287 20.0398C25.5047 20.4478 25.4327 20.8078 25.3367 21.4318L24.5927 25.6078C24.5532 25.7767 24.5719 25.954 24.646 26.1109C24.7201 26.2678 24.8451 26.395 25.0007 26.4718V26.6398H20.7047V25.5838C20.0526 25.9508 19.3599 26.2408 18.6407 26.4478C17.9758 26.6274 17.2895 26.7162 16.6007 26.7118C15.2087 26.7118 14.4167 26.5678 13.8887 26.0878C13.3607 25.6078 13.0487 25.2718 13.0727 24.5758C13.1243 24.1246 13.308 23.6988 13.6007 23.3518C13.9132 23.0012 14.2981 22.7228 14.7287 22.5358C15.2815 22.3017 15.8624 22.1403 16.4567 22.0558C17.2007 21.9358 18.2567 21.8158 19.6727 21.6958C20.1524 21.6813 20.6248 21.5754 21.0647 21.3838C21.3767 21.2638 21.4727 21.1438 21.5207 20.9038C21.5687 20.6638 21.4727 20.2318 20.8967 20.1118C19.3607 19.8238 16.4807 20.3038 14.9927 20.6878L15.7847 18.5038C17.6823 18.2029 19.5995 18.0425 21.5207 18.0238C24.5687 18.0238 25.5527 18.9118 25.5287 20.0398Z" fill="#013D5B"/>
<path d="M32.5127 20.2318C31.9863 20.2334 31.4739 20.4014 31.0487 20.7118C30.6131 21.0751 30.3303 21.5893 30.2567 22.1518C30.1127 22.8958 30.1847 23.3998 30.4727 23.7358C30.6405 23.8988 30.84 24.0255 31.0588 24.1081C31.2776 24.1907 31.5111 24.2273 31.7447 24.2158C32.1084 24.2231 32.4692 24.1493 32.8007 23.9998C33.1208 23.8517 33.3946 23.6194 33.5927 23.3278C33.8172 22.994 33.9723 22.6186 34.0487 22.2238C34.1687 21.5518 34.0727 21.0718 33.7607 20.7358C33.6015 20.5666 33.4075 20.4339 33.192 20.3469C32.9766 20.2599 32.7448 20.2206 32.5127 20.2318ZM25.0487 29.5438L27.0407 18.3118H30.6407L30.3527 19.7518C30.747 19.2587 31.2704 18.8848 31.8647 18.6718C32.6045 18.3696 33.3938 18.2068 34.1927 18.1918C35.1287 18.1918 35.7047 18.2398 36.4007 18.5998C37.0606 18.9309 37.5738 19.4954 37.8407 20.1838C38.1236 20.9093 38.1902 21.7012 38.0327 22.4638C37.9329 23.1185 37.7031 23.7467 37.3568 24.3114C37.0106 24.876 36.555 25.3658 36.0167 25.7518C34.9127 26.5438 33.9287 26.7598 32.5127 26.7598C32.0843 26.7676 31.6566 26.7192 31.2407 26.6158C30.9546 26.5535 30.6795 26.4483 30.4247 26.3038C30.1759 26.1243 29.9501 25.9147 29.7527 25.6798L29.0807 29.5438H25.0487ZM66.5927 26.6398H62.4167L64.5287 14.9758L68.5847 15.0718L66.5927 26.6398ZM45.7607 18.2158L46.0487 16.5118L50.3207 15.5998L49.8647 18.2158H51.9767L51.5687 19.9198H49.5287L48.3047 26.6398H44.1527L45.4007 19.9198H43.8407L44.1527 18.2398H45.7607V18.2158ZM12.4967 23.6398C11.3783 23.89 10.2348 24.0108 9.08874 23.9998C7.14474 23.9998 5.58474 23.0398 5.68074 21.2398C5.72874 20.0638 7.14474 17.5678 10.6967 17.5678C11.8218 17.5418 12.9304 17.8418 13.8887 18.4318L14.3927 15.5278C13.112 15.0191 11.7373 14.79 10.3607 14.8558C5.68074 14.9038 1.19274 17.0158 0.64074 21.3358C0.0887402 25.6558 5.44074 26.8318 7.81674 26.8318C9.18474 26.8318 10.6247 26.7598 11.9447 26.6398L12.4967 23.6398ZM58.0247 22.7998L57.3287 22.9918L55.7207 23.2798C55.3404 23.3109 54.9716 23.4256 54.6407 23.6158C54.5441 23.6701 54.4614 23.746 54.399 23.8376C54.3365 23.9292 54.2961 24.034 54.2807 24.1438C54.252 24.2503 54.2574 24.3632 54.2962 24.4665C54.3349 24.5698 54.4051 24.6584 54.4967 24.7198C54.7127 24.8638 55.0487 24.9118 55.5287 24.9118C55.8857 24.9128 56.2411 24.8643 56.5847 24.7678C56.9005 24.6754 57.1943 24.5203 57.4487 24.3118C57.6169 24.1641 57.7415 23.9732 57.8087 23.7598C57.9099 23.447 57.9822 23.1257 58.0247 22.7998ZM62.4407 20.0398C62.4167 20.4478 62.3447 20.8318 62.2487 21.4318L61.5047 25.6318C61.4652 25.8007 61.4839 25.978 61.558 26.1349C61.6321 26.2918 61.7571 26.419 61.9127 26.4958V26.6398H57.6167V25.5598C56.9703 25.9443 56.2765 26.2429 55.5527 26.4478C54.8787 26.6203 54.1844 26.701 53.4887 26.6878C52.1207 26.6878 51.3287 26.5438 50.7767 26.0638C50.2247 25.5838 49.9607 25.2478 49.9847 24.5758C50.0302 24.1159 50.2143 23.6806 50.5127 23.3278C50.8266 22.9848 51.2116 22.7145 51.6407 22.5358C52.1824 22.2937 52.7564 22.132 53.3447 22.0558C54.1127 21.9358 55.1687 21.8158 56.5847 21.6958C57.0599 21.6498 57.5275 21.545 57.9767 21.3838C58.2647 21.2638 58.3847 21.1438 58.4327 20.9038C58.4807 20.6638 58.3847 20.2318 57.8087 20.1118C56.2727 19.7998 53.3927 20.3038 51.9047 20.6638L52.6967 18.5038C54.5942 18.202 56.5115 18.0415 58.4327 18.0238C61.4807 18.0478 62.4647 18.9358 62.4407 20.0398ZM37.9127 26.6398L39.4007 18.2638H43.5047L42.0167 26.6398H37.9127ZM39.6407 16.3438C39.7607 15.6478 40.8407 15.0958 42.0647 15.0958C43.2887 15.0958 44.1527 15.6478 44.0327 16.3438C43.9127 17.0398 42.8327 17.5918 41.6087 17.5918C40.3847 17.5918 39.5207 17.0158 39.6407 16.3438ZM21.1127 22.7758C20.889 22.8665 20.6554 22.9309 20.4167 22.9678L18.8327 23.2558C18.4442 23.2834 18.0668 23.3982 17.7287 23.5918C17.6315 23.6513 17.5488 23.7317 17.4865 23.8272C17.4243 23.9227 17.384 24.0308 17.3687 24.1438C17.344 24.2493 17.3541 24.3601 17.3973 24.4595C17.4405 24.559 17.5147 24.6418 17.6087 24.6958C17.9155 24.8672 18.2667 24.9425 18.6167 24.9118C18.9748 24.9047 19.3302 24.8481 19.6727 24.7438C19.9885 24.6514 20.2823 24.4963 20.5367 24.2878C20.705 24.1401 20.8295 23.9492 20.8967 23.7358C21.0132 23.4274 21.0859 23.1043 21.1127 22.7758ZM25.5287 20.0398C25.5047 20.4478 25.4327 20.8078 25.3367 21.4318L24.5927 25.6078C24.5532 25.7767 24.5719 25.954 24.646 26.1109C24.7201 26.2678 24.8451 26.395 25.0007 26.4718V26.6398H20.7047V25.5838C20.0526 25.9508 19.3599 26.2408 18.6407 26.4478C17.9758 26.6274 17.2895 26.7162 16.6007 26.7118C15.2087 26.7118 14.4167 26.5678 13.8887 26.0878C13.3607 25.6078 13.0487 25.2718 13.0727 24.5758C13.1243 24.1246 13.308 23.6988 13.6007 23.3518C13.9132 23.0012 14.2981 22.7228 14.7287 22.5358C15.2815 22.3017 15.8624 22.1403 16.4567 22.0558C17.2007 21.9358 18.2567 21.8158 19.6727 21.6958C20.1524 21.6813 20.6248 21.5754 21.0647 21.3838C21.3767 21.2638 21.4727 21.1438 21.5207 20.9038C21.5687 20.6638 21.4727 20.2318 20.8967 20.1118C19.3607 19.8238 16.4807 20.3038 14.9927 20.6878L15.7847 18.5038C17.6823 18.2029 19.5995 18.0425 21.5207 18.0238C24.5687 18.0238 25.5527 18.9118 25.5287 20.0398Z" fill="white"/>
<path d="M32.5127 20.2318C31.9863 20.2334 31.4739 20.4014 31.0487 20.7118C30.6131 21.0751 30.3303 21.5893 30.2567 22.1518C30.1127 22.8958 30.1847 23.3998 30.4727 23.7358C30.6405 23.8988 30.84 24.0255 31.0588 24.1081C31.2776 24.1907 31.5111 24.2273 31.7447 24.2158C32.1084 24.2231 32.4692 24.1493 32.8007 23.9998C33.1208 23.8517 33.3946 23.6194 33.5927 23.3278C33.8172 22.994 33.9723 22.6186 34.0487 22.2238C34.1687 21.5518 34.0727 21.0718 33.7607 20.7358C33.6015 20.5666 33.4075 20.4339 33.192 20.3469C32.9766 20.2599 32.7448 20.2206 32.5127 20.2318ZM25.0487 29.5438L27.0407 18.3118H30.6407L30.3527 19.7518C30.747 19.2587 31.2704 18.8848 31.8647 18.6718C32.6045 18.3696 33.3938 18.2068 34.1927 18.1918C35.1287 18.1918 35.7047 18.2398 36.4007 18.5998C37.0606 18.9309 37.5738 19.4954 37.8407 20.1838C38.1236 20.9093 38.1902 21.7012 38.0327 22.4638C37.9329 23.1185 37.7031 23.7467 37.3568 24.3114C37.0106 24.876 36.555 25.3658 36.0167 25.7518C34.9127 26.5438 33.9287 26.7598 32.5127 26.7598C32.0843 26.7676 31.6566 26.7192 31.2407 26.6158C30.9546 26.5535 30.6795 26.4483 30.4247 26.3038C30.1759 26.1243 29.9501 25.9147 29.7527 25.6798L29.0807 29.5438H25.0487ZM66.5927 26.6398H62.4167L64.5287 14.9758L68.5847 15.0718L66.5927 26.6398ZM45.7607 18.2158L46.0487 16.5118L50.3207 15.5998L49.8647 18.2158H51.9767L51.5687 19.9198H49.5287L48.3047 26.6398H44.1527L45.4007 19.9198H43.8407L44.1527 18.2398H45.7607V18.2158ZM12.4967 23.6398C11.3783 23.89 10.2348 24.0108 9.08874 23.9998C7.14474 23.9998 5.58474 23.0398 5.68074 21.2398C5.72874 20.0638 7.14474 17.5678 10.6967 17.5678C11.8218 17.5418 12.9304 17.8418 13.8887 18.4318L14.3927 15.5278C13.112 15.0191 11.7373 14.79 10.3607 14.8558C5.68074 14.9038 1.19274 17.0158 0.64074 21.3358C0.0887402 25.6558 5.44074 26.8318 7.81674 26.8318C9.18474 26.8318 10.6247 26.7598 11.9447 26.6398L12.4967 23.6398ZM58.0247 22.7998L57.3287 22.9918L55.7207 23.2798C55.3404 23.3109 54.9716 23.4256 54.6407 23.6158C54.5441 23.6701 54.4614 23.746 54.399 23.8376C54.3365 23.9292 54.2961 24.034 54.2807 24.1438C54.252 24.2503 54.2574 24.3632 54.2962 24.4665C54.3349 24.5698 54.4051 24.6584 54.4967 24.7198C54.7127 24.8638 55.0487 24.9118 55.5287 24.9118C55.8857 24.9128 56.2411 24.8643 56.5847 24.7678C56.9005 24.6754 57.1943 24.5203 57.4487 24.3118C57.6169 24.1641 57.7415 23.9732 57.8087 23.7598C57.9099 23.447 57.9822 23.1257 58.0247 22.7998ZM62.4407 20.0398C62.4167 20.4478 62.3447 20.8318 62.2487 21.4318L61.5047 25.6318C61.4652 25.8007 61.4839 25.978 61.558 26.1349C61.6321 26.2918 61.7571 26.419 61.9127 26.4958V26.6398H57.6167V25.5598C56.9703 25.9443 56.2765 26.2429 55.5527 26.4478C54.8787 26.6203 54.1844 26.701 53.4887 26.6878C52.1207 26.6878 51.3287 26.5438 50.7767 26.0638C50.2247 25.5838 49.9607 25.2478 49.9847 24.5758C50.0302 24.1159 50.2143 23.6806 50.5127 23.3278C50.8266 22.9848 51.2116 22.7145 51.6407 22.5358C52.1824 22.2937 52.7564 22.132 53.3447 22.0558C54.1127 21.9358 55.1687 21.8158 56.5847 21.6958C57.0599 21.6498 57.5275 21.545 57.9767 21.3838C58.2647 21.2638 58.3847 21.1438 58.4327 20.9038C58.4807 20.6638 58.3847 20.2318 57.8087 20.1118C56.2727 19.7998 53.3927 20.3038 51.9047 20.6638L52.6967 18.5038C54.5942 18.202 56.5115 18.0415 58.4327 18.0238C61.4807 18.0478 62.4647 18.9358 62.4407 20.0398ZM37.9127 26.6398L39.4007 18.2638H43.5047L42.0167 26.6398H37.9127ZM39.6407 16.3438C39.7607 15.6478 40.8407 15.0958 42.0647 15.0958C43.2887 15.0958 44.1527 15.6478 44.0327 16.3438C43.9127 17.0398 42.8327 17.5918 41.6087 17.5918C40.3847 17.5918 39.5207 17.0158 39.6407 16.3438ZM21.1127 22.7758C20.889 22.8665 20.6554 22.9309 20.4167 22.9678L18.8327 23.2558C18.4442 23.2834 18.0668 23.3982 17.7287 23.5918C17.6315 23.6513 17.5488 23.7317 17.4865 23.8272C17.4243 23.9227 17.384 24.0308 17.3687 24.1438C17.344 24.2493 17.3541 24.3601 17.3973 24.4595C17.4405 24.559 17.5147 24.6418 17.6087 24.6958C17.9155 24.8672 18.2667 24.9425 18.6167 24.9118C18.9748 24.9047 19.3302 24.8481 19.6727 24.7438C19.9885 24.6514 20.2823 24.4963 20.5367 24.2878C20.705 24.1401 20.8295 23.9492 20.8967 23.7358C21.0132 23.4274 21.0859 23.1043 21.1127 22.7758ZM25.5287 20.0398C25.5047 20.4478 25.4327 20.8078 25.3367 21.4318L24.5927 25.6078C24.5532 25.7767 24.5719 25.954 24.646 26.1109C24.7201 26.2678 24.8451 26.395 25.0007 26.4718V26.6398H20.7047V25.5838C20.0526 25.9508 19.3599 26.2408 18.6407 26.4478C17.9758 26.6274 17.2895 26.7162 16.6007 26.7118C15.2087 26.7118 14.4167 26.5678 13.8887 26.0878C13.3607 25.6078 13.0487 25.2718 13.0727 24.5758C13.1243 24.1246 13.308 23.6988 13.6007 23.3518C13.9132 23.0012 14.2981 22.7228 14.7287 22.5358C15.2815 22.3017 15.8624 22.1403 16.4567 22.0558C17.2007 21.9358 18.2567 21.8158 19.6727 21.6958C20.1524 21.6813 20.6248 21.5754 21.0647 21.3838C21.3767 21.2638 21.4727 21.1438 21.5207 20.9038C21.5687 20.6638 21.4727 20.2318 20.8967 20.1118C19.3607 19.8238 16.4807 20.3038 14.9927 20.6878L15.7847 18.5038C17.6823 18.2029 19.5995 18.0425 21.5207 18.0238C24.5687 18.0238 25.5527 18.9118 25.5287 20.0398Z" fill="black"/>
<path d="M83.2969 21.1677L84.2329 21.0717C84.5449 21.0717 84.8089 21.1437 84.8329 21.4317C84.8569 21.7197 84.5209 22.8717 84.4489 23.1837L83.8009 25.9917C83.5609 27.1437 83.2729 28.3437 83.0329 29.3037H84.6649L85.5769 24.8397C88.4089 21.9117 89.4889 20.9517 90.1369 20.9517C90.2081 20.9442 90.2801 20.9526 90.3476 20.9765C90.4151 21.0004 90.4764 21.039 90.527 21.0896C90.5776 21.1403 90.6163 21.2016 90.6401 21.2691C90.664 21.3366 90.6725 21.4085 90.6649 21.4797C90.6889 21.9837 90.3529 23.1597 90.2569 23.4957L89.2969 26.7357C89.1049 27.4797 88.9369 28.1277 88.9609 28.6077C88.9849 29.0877 89.4169 29.6397 90.0409 29.6397C91.2409 29.6397 92.1289 28.3917 92.8729 27.1677L92.6569 26.7597C92.3449 27.2397 91.6489 28.3197 91.0729 28.3197C90.9049 28.3197 90.7369 28.1997 90.7369 27.9117C90.7563 27.4628 90.837 27.0187 90.9769 26.5917L92.0329 22.7757C92.2969 21.7197 92.4409 21.0477 92.4409 20.6877C92.4409 20.3277 91.9849 19.6557 91.3609 19.6557C90.2809 19.6557 88.8409 20.4477 85.8169 23.9277H85.7689L86.1529 22.2237C86.3689 21.2877 86.5609 20.3277 86.7529 19.6557C85.6158 20.0598 84.4533 20.3885 83.2729 20.6397L83.2969 21.1677ZM99.3529 21.2637C99.3289 20.5917 98.9929 20.1357 98.2969 20.1357C96.6169 20.1357 94.8409 23.4237 94.5289 24.7437C97.2649 24.7437 99.4249 23.1117 99.3529 21.2637ZM99.7129 26.4237L100.025 26.6397C99.2089 28.2957 97.5529 29.6397 95.5849 29.6397C93.9769 29.6397 92.6809 28.5837 92.6089 26.5917C92.4649 22.9917 95.8489 19.6557 98.5849 19.6557C99.7609 19.6557 100.865 20.1837 100.913 21.4557C101.009 24.3117 97.0009 25.1757 94.3609 25.2237C94.2744 25.5686 94.242 25.9249 94.2649 26.2797C94.3129 27.4797 95.0329 28.4637 96.4969 28.4637C97.9609 28.4637 99.0649 27.4317 99.7129 26.4237ZM71.4169 24.0957C71.4889 26.7117 73.1449 28.8477 75.3049 28.8477C79.4809 28.8477 81.2569 23.7117 81.1369 20.2797C81.0409 17.6637 79.3609 15.5277 77.2009 15.5277C73.6009 15.5277 71.2729 20.6397 71.4169 24.0957ZM69.2089 23.9517C69.0409 19.4877 72.5449 14.9277 77.6089 14.9277C81.0169 14.9277 83.2249 17.2077 83.3449 20.6637C83.5129 25.3677 80.2489 29.6877 74.9449 29.6877C71.5369 29.6877 69.3289 27.4317 69.2089 23.9517Z" fill="#013D5B"/>
<path d="M83.2969 21.1677L84.2329 21.0717C84.5449 21.0717 84.8089 21.1437 84.8329 21.4317C84.8569 21.7197 84.5209 22.8717 84.4489 23.1837L83.8009 25.9917C83.5609 27.1437 83.2729 28.3437 83.0329 29.3037H84.6649L85.5769 24.8397C88.4089 21.9117 89.4889 20.9517 90.1369 20.9517C90.2081 20.9442 90.2801 20.9526 90.3476 20.9765C90.4151 21.0004 90.4764 21.039 90.527 21.0896C90.5776 21.1403 90.6163 21.2016 90.6401 21.2691C90.664 21.3366 90.6725 21.4085 90.6649 21.4797C90.6889 21.9837 90.3529 23.1597 90.2569 23.4957L89.2969 26.7357C89.1049 27.4797 88.9369 28.1277 88.9609 28.6077C88.9849 29.0877 89.4169 29.6397 90.0409 29.6397C91.2409 29.6397 92.1289 28.3917 92.8729 27.1677L92.6569 26.7597C92.3449 27.2397 91.6489 28.3197 91.0729 28.3197C90.9049 28.3197 90.7369 28.1997 90.7369 27.9117C90.7563 27.4628 90.837 27.0187 90.9769 26.5917L92.0329 22.7757C92.2969 21.7197 92.4409 21.0477 92.4409 20.6877C92.4409 20.3277 91.9849 19.6557 91.3609 19.6557C90.2809 19.6557 88.8409 20.4477 85.8169 23.9277H85.7689L86.1529 22.2237C86.3689 21.2877 86.5609 20.3277 86.7529 19.6557C85.6158 20.0598 84.4533 20.3885 83.2729 20.6397L83.2969 21.1677ZM99.3529 21.2637C99.3289 20.5917 98.9929 20.1357 98.2969 20.1357C96.6169 20.1357 94.8409 23.4237 94.5289 24.7437C97.2649 24.7437 99.4249 23.1117 99.3529 21.2637ZM99.7129 26.4237L100.025 26.6397C99.2089 28.2957 97.5529 29.6397 95.5849 29.6397C93.9769 29.6397 92.6809 28.5837 92.6089 26.5917C92.4649 22.9917 95.8489 19.6557 98.5849 19.6557C99.7609 19.6557 100.865 20.1837 100.913 21.4557C101.009 24.3117 97.0009 25.1757 94.3609 25.2237C94.2744 25.5686 94.242 25.9249 94.2649 26.2797C94.3129 27.4797 95.0329 28.4637 96.4969 28.4637C97.9609 28.4637 99.0649 27.4317 99.7129 26.4237ZM71.4169 24.0957C71.4889 26.7117 73.1449 28.8477 75.3049 28.8477C79.4809 28.8477 81.2569 23.7117 81.1369 20.2797C81.0409 17.6637 79.3609 15.5277 77.2009 15.5277C73.6009 15.5277 71.2729 20.6397 71.4169 24.0957ZM69.2089 23.9517C69.0409 19.4877 72.5449 14.9277 77.6089 14.9277C81.0169 14.9277 83.2249 17.2077 83.3449 20.6637C83.5129 25.3677 80.2489 29.6877 74.9449 29.6877C71.5369 29.6877 69.3289 27.4317 69.2089 23.9517Z" fill="white"/>
<path d="M83.2969 21.1677L84.2329 21.0717C84.5449 21.0717 84.8089 21.1437 84.8329 21.4317C84.8569 21.7197 84.5209 22.8717 84.4489 23.1837L83.8009 25.9917C83.5609 27.1437 83.2729 28.3437 83.0329 29.3037H84.6649L85.5769 24.8397C88.4089 21.9117 89.4889 20.9517 90.1369 20.9517C90.2081 20.9442 90.2801 20.9526 90.3476 20.9765C90.4151 21.0004 90.4764 21.039 90.527 21.0896C90.5776 21.1403 90.6163 21.2016 90.6401 21.2691C90.664 21.3366 90.6725 21.4085 90.6649 21.4797C90.6889 21.9837 90.3529 23.1597 90.2569 23.4957L89.2969 26.7357C89.1049 27.4797 88.9369 28.1277 88.9609 28.6077C88.9849 29.0877 89.4169 29.6397 90.0409 29.6397C91.2409 29.6397 92.1289 28.3917 92.8729 27.1677L92.6569 26.7597C92.3449 27.2397 91.6489 28.3197 91.0729 28.3197C90.9049 28.3197 90.7369 28.1997 90.7369 27.9117C90.7563 27.4628 90.837 27.0187 90.9769 26.5917L92.0329 22.7757C92.2969 21.7197 92.4409 21.0477 92.4409 20.6877C92.4409 20.3277 91.9849 19.6557 91.3609 19.6557C90.2809 19.6557 88.8409 20.4477 85.8169 23.9277H85.7689L86.1529 22.2237C86.3689 21.2877 86.5609 20.3277 86.7529 19.6557C85.6158 20.0598 84.4533 20.3885 83.2729 20.6397L83.2969 21.1677ZM99.3529 21.2637C99.3289 20.5917 98.9929 20.1357 98.2969 20.1357C96.6169 20.1357 94.8409 23.4237 94.5289 24.7437C97.2649 24.7437 99.4249 23.1117 99.3529 21.2637ZM99.7129 26.4237L100.025 26.6397C99.2089 28.2957 97.5529 29.6397 95.5849 29.6397C93.9769 29.6397 92.6809 28.5837 92.6089 26.5917C92.4649 22.9917 95.8489 19.6557 98.5849 19.6557C99.7609 19.6557 100.865 20.1837 100.913 21.4557C101.009 24.3117 97.0009 25.1757 94.3609 25.2237C94.2744 25.5686 94.242 25.9249 94.2649 26.2797C94.3129 27.4797 95.0329 28.4637 96.4969 28.4637C97.9609 28.4637 99.0649 27.4317 99.7129 26.4237ZM71.4169 24.0957C71.4889 26.7117 73.1449 28.8477 75.3049 28.8477C79.4809 28.8477 81.2569 23.7117 81.1369 20.2797C81.0409 17.6637 79.3609 15.5277 77.2009 15.5277C73.6009 15.5277 71.2729 20.6397 71.4169 24.0957ZM69.2089 23.9517C69.0409 19.4877 72.5449 14.9277 77.6089 14.9277C81.0169 14.9277 83.2249 17.2077 83.3449 20.6637C83.5129 25.3677 80.2489 29.6877 74.9449 29.6877C71.5369 29.6877 69.3289 27.4317 69.2089 23.9517Z" fill="black"/>
</g>
<defs>
<clipPath id="clip0_251_732">
<rect width="100.32" height="36" fill="white" transform="translate(0.592773)"/>
</clipPath>
</defs>
</svg>
