<svg width="167" height="25" viewBox="0 0 167 25" fill="none" xmlns="http://www.w3.org/2000/svg">
<path d="M33.1439 20.1681L33.0253 20.0502L32.9067 19.9333L40.2139 12.67L32.9067 5.40676L33.0253 5.28887L33.1439 5.1719C33.4118 4.90534 33.7299 4.69388 34.08 4.5496C34.4302 4.40532 34.8054 4.33105 35.1845 4.33105C35.5635 4.33105 35.9388 4.40532 36.2889 4.5496C36.639 4.69388 36.9571 4.90534 37.225 5.1719L44.7637 12.6655L37.225 20.159C36.9571 20.4256 36.639 20.637 36.2889 20.7813C35.9388 20.9256 35.5635 20.9998 35.1845 20.9998C34.8054 20.9998 34.4302 20.9256 34.08 20.7813C33.7299 20.637 33.4118 20.4256 33.1439 20.159V20.1681Z" fill="#006EB3"/>
<path d="M33.1439 20.1681L33.0253 20.0502L32.9067 19.9333L40.2139 12.67L32.9067 5.40676L33.0253 5.28887L33.1439 5.1719C33.4118 4.90534 33.7299 4.69388 34.08 4.5496C34.4302 4.40532 34.8054 4.33105 35.1845 4.33105C35.5635 4.33105 35.9388 4.40532 36.2889 4.5496C36.639 4.69388 36.9571 4.90534 37.225 5.1719L44.7637 12.6655L37.225 20.159C36.9571 20.4256 36.639 20.637 36.2889 20.7813C35.9388 20.9256 35.5635 20.9998 35.1845 20.9998C34.8054 20.9998 34.4302 20.9256 34.08 20.7813C33.7299 20.637 33.4118 20.4256 33.1439 20.159V20.1681Z" fill="white"/>
<path d="M33.1439 20.1681L33.0253 20.0502L32.9067 19.9333L40.2139 12.67L32.9067 5.40676L33.0253 5.28887L33.1439 5.1719C33.4118 4.90534 33.7299 4.69388 34.08 4.5496C34.4302 4.40532 34.8054 4.33105 35.1845 4.33105C35.5635 4.33105 35.9388 4.40532 36.2889 4.5496C36.639 4.69388 36.9571 4.90534 37.225 5.1719L44.7637 12.6655L37.225 20.159C36.9571 20.4256 36.639 20.637 36.2889 20.7813C35.9388 20.9256 35.5635 20.9998 35.1845 20.9998C34.8054 20.9998 34.4302 20.9256 34.08 20.7813C33.7299 20.637 33.4118 20.4256 33.1439 20.159V20.1681Z" fill="black"/>
<path d="M30.4643 17.7615L29.3169 16.6219L33.2931 12.6695L29.3169 8.71713L30.4643 7.57664C30.7641 7.2787 31.1707 7.11133 31.5946 7.11133C32.0186 7.11133 32.4252 7.2787 32.725 7.57664L37.8477 12.6732L32.724 17.7615C32.5757 17.9092 32.3995 18.0264 32.2056 18.1064C32.0116 18.1864 31.8037 18.2275 31.5937 18.2275C31.3837 18.2275 31.1758 18.1864 30.9818 18.1064C30.7879 18.0264 30.6117 17.9092 30.4633 17.7615H30.4643Z" fill="#006EB3"/>
<path d="M30.4643 17.7615L29.3169 16.6219L33.2931 12.6695L29.3169 8.71713L30.4643 7.57664C30.7641 7.2787 31.1707 7.11133 31.5946 7.11133C32.0186 7.11133 32.4252 7.2787 32.725 7.57664L37.8477 12.6732L32.724 17.7615C32.5757 17.9092 32.3995 18.0264 32.2056 18.1064C32.0116 18.1864 31.8037 18.2275 31.5937 18.2275C31.3837 18.2275 31.1758 18.1864 30.9818 18.1064C30.7879 18.0264 30.6117 17.9092 30.4633 17.7615H30.4643Z" fill="white"/>
<path d="M30.4643 17.7615L29.3169 16.6219L33.2931 12.6695L29.3169 8.71713L30.4643 7.57664C30.7641 7.2787 31.1707 7.11133 31.5946 7.11133C32.0186 7.11133 32.4252 7.2787 32.725 7.57664L37.8477 12.6732L32.724 17.7615C32.5757 17.9092 32.3995 18.0264 32.2056 18.1064C32.0116 18.1864 31.8037 18.2275 31.5937 18.2275C31.3837 18.2275 31.1758 18.1864 30.9818 18.1064C30.7879 18.0264 30.6117 17.9092 30.4633 17.7615H30.4643Z" fill="black"/>
<path d="M31.1268 12.6695L29.7478 11.2877L28.3687 9.91699L27.2306 11.0483C26.7997 11.4768 26.5576 12.0577 26.5576 12.6636C26.5576 13.2694 26.7997 13.8503 27.2306 14.2788L28.3687 15.411L31.1268 12.6695Z" fill="#006EB3"/>
<path d="M31.1268 12.6695L29.7478 11.2877L28.3687 9.91699L27.2306 11.0483C26.7997 11.4768 26.5576 12.0577 26.5576 12.6636C26.5576 13.2694 26.7997 13.8503 27.2306 14.2788L28.3687 15.411L31.1268 12.6695Z" fill="white"/>
<path d="M31.1268 12.6695L29.7478 11.2877L28.3687 9.91699L27.2306 11.0483C26.7997 11.4768 26.5576 12.0577 26.5576 12.6636C26.5576 13.2694 26.7997 13.8503 27.2306 14.2788L28.3687 15.411L31.1268 12.6695Z" fill="black"/>
<path d="M54.9516 11.3213C54.7938 11.1257 54.5902 10.9714 54.3587 10.8717C54.1195 10.7603 53.8588 10.702 53.5946 10.7009C53.3401 10.697 53.0881 10.7527 52.8592 10.8635C52.6447 10.9695 52.4539 11.1175 52.2983 11.2985C52.1387 11.484 52.0141 11.6967 51.9306 11.9263C51.8413 12.1696 51.7965 12.4268 51.7982 12.6857C51.798 12.9442 51.8415 13.2009 51.9269 13.4451C52.0067 13.6764 52.1316 13.8898 52.2947 14.0729C52.4548 14.2537 52.6515 14.3989 52.872 14.4988C53.1092 14.6057 53.3674 14.6587 53.6277 14.6541C53.8921 14.6532 54.154 14.6033 54.4 14.507C54.6387 14.4196 54.8509 14.2726 55.016 14.0802L56.4318 15.801C56.0751 16.1329 55.6491 16.3825 55.1842 16.5321C54.6625 16.7104 54.1142 16.7997 53.5625 16.7962C52.9782 16.801 52.3974 16.7064 51.8451 16.5165C51.3324 16.3421 50.8609 16.0653 50.4596 15.7032C50.0637 15.3403 49.7492 14.8984 49.5366 14.4065C49.0868 13.3082 49.0868 12.0787 49.5366 10.9805C49.7505 10.4891 50.0659 10.0479 50.4624 9.68555C50.8646 9.3225 51.3356 9.04286 51.8479 8.86308C52.3934 8.66859 52.9691 8.57084 53.5487 8.57431C53.8284 8.57426 54.1076 8.59996 54.3825 8.65108C54.6524 8.70191 54.9182 8.77215 55.1778 8.86126C55.4227 8.94422 55.6579 9.0533 55.8793 9.18658C56.0797 9.3059 56.265 9.44891 56.4309 9.61242L54.9516 11.3213Z" fill="#006EB3"/>
<path d="M54.9516 11.3213C54.7938 11.1257 54.5902 10.9714 54.3587 10.8717C54.1195 10.7603 53.8588 10.702 53.5946 10.7009C53.3401 10.697 53.0881 10.7527 52.8592 10.8635C52.6447 10.9695 52.4539 11.1175 52.2983 11.2985C52.1387 11.484 52.0141 11.6967 51.9306 11.9263C51.8413 12.1696 51.7965 12.4268 51.7982 12.6857C51.798 12.9442 51.8415 13.2009 51.9269 13.4451C52.0067 13.6764 52.1316 13.8898 52.2947 14.0729C52.4548 14.2537 52.6515 14.3989 52.872 14.4988C53.1092 14.6057 53.3674 14.6587 53.6277 14.6541C53.8921 14.6532 54.154 14.6033 54.4 14.507C54.6387 14.4196 54.8509 14.2726 55.016 14.0802L56.4318 15.801C56.0751 16.1329 55.6491 16.3825 55.1842 16.5321C54.6625 16.7104 54.1142 16.7997 53.5625 16.7962C52.9782 16.801 52.3974 16.7064 51.8451 16.5165C51.3324 16.3421 50.8609 16.0653 50.4596 15.7032C50.0637 15.3403 49.7492 14.8984 49.5366 14.4065C49.0868 13.3082 49.0868 12.0787 49.5366 10.9805C49.7505 10.4891 50.0659 10.0479 50.4624 9.68555C50.8646 9.3225 51.3356 9.04286 51.8479 8.86308C52.3934 8.66859 52.9691 8.57084 53.5487 8.57431C53.8284 8.57426 54.1076 8.59996 54.3825 8.65108C54.6524 8.70191 54.9182 8.77215 55.1778 8.86126C55.4227 8.94422 55.6579 9.0533 55.8793 9.18658C56.0797 9.3059 56.265 9.44891 56.4309 9.61242L54.9516 11.3213Z" fill="white"/>
<path d="M54.9516 11.3213C54.7938 11.1257 54.5902 10.9714 54.3587 10.8717C54.1195 10.7603 53.8588 10.702 53.5946 10.7009C53.3401 10.697 53.0881 10.7527 52.8592 10.8635C52.6447 10.9695 52.4539 11.1175 52.2983 11.2985C52.1387 11.484 52.0141 11.6967 51.9306 11.9263C51.8413 12.1696 51.7965 12.4268 51.7982 12.6857C51.798 12.9442 51.8415 13.2009 51.9269 13.4451C52.0067 13.6764 52.1316 13.8898 52.2947 14.0729C52.4548 14.2537 52.6515 14.3989 52.872 14.4988C53.1092 14.6057 53.3674 14.6587 53.6277 14.6541C53.8921 14.6532 54.154 14.6033 54.4 14.507C54.6387 14.4196 54.8509 14.2726 55.016 14.0802L56.4318 15.801C56.0751 16.1329 55.6491 16.3825 55.1842 16.5321C54.6625 16.7104 54.1142 16.7997 53.5625 16.7962C52.9782 16.801 52.3974 16.7064 51.8451 16.5165C51.3324 16.3421 50.8609 16.0653 50.4596 15.7032C50.0637 15.3403 49.7492 14.8984 49.5366 14.4065C49.0868 13.3082 49.0868 12.0787 49.5366 10.9805C49.7505 10.4891 50.0659 10.0479 50.4624 9.68555C50.8646 9.3225 51.3356 9.04286 51.8479 8.86308C52.3934 8.66859 52.9691 8.57084 53.5487 8.57431C53.8284 8.57426 54.1076 8.59996 54.3825 8.65108C54.6524 8.70191 54.9182 8.77215 55.1778 8.86126C55.4227 8.94422 55.6579 9.0533 55.8793 9.18658C56.0797 9.3059 56.265 9.44891 56.4309 9.61242L54.9516 11.3213Z" fill="black"/>
<path fill-rule="evenodd" clip-rule="evenodd" d="M64.9384 14.361C65.1723 13.8215 65.2892 13.2391 65.2814 12.6517C65.2896 12.0666 65.1727 11.4864 64.9384 10.9496C64.7215 10.4597 64.4025 10.0212 64.0025 9.66288C63.6018 9.3083 63.1357 9.03453 62.6299 8.85685C61.5517 8.48522 60.379 8.48522 59.3009 8.85685C58.794 9.03212 58.3273 9.30615 57.9282 9.66288C57.5325 10.023 57.2165 10.4612 57.0006 10.9496C56.7662 11.4852 56.6493 12.0643 56.6577 12.6484C56.649 13.2369 56.7658 13.8206 57.0006 14.361C57.2161 14.854 57.5319 15.2974 57.9282 15.6632C58.3275 16.0254 58.7937 16.3072 59.3009 16.493C60.3754 16.8853 61.5553 16.8853 62.6299 16.493C63.1359 16.3048 63.6016 16.0233 64.0025 15.6632C64.403 15.2993 64.722 14.8556 64.9384 14.361ZM62.6924 11.9228C62.7757 12.1576 62.8179 12.4049 62.8174 12.6539V12.6494C62.8174 12.8973 62.778 13.1437 62.7007 13.3795C62.6238 13.6122 62.5048 13.829 62.3495 14.0192C62.0936 14.3282 61.7398 14.5416 61.346 14.6247C60.9521 14.7076 60.5416 14.6553 60.1816 14.4761C59.9584 14.3672 59.7617 14.2112 59.6052 14.0192C59.4495 13.8293 59.3304 13.6124 59.254 13.3795C59.0983 12.9062 59.0983 12.396 59.254 11.9228C59.327 11.6938 59.4434 11.4807 59.5969 11.295C59.7534 11.1096 59.9472 10.9589 60.166 10.8527C60.4159 10.7404 60.687 10.6823 60.9612 10.6823C61.2355 10.6823 61.5066 10.7404 61.7565 10.8527C61.9767 10.9604 62.173 11.1107 62.3338 11.295C62.4925 11.4796 62.6142 11.6927 62.6924 11.9228Z" fill="#006EB3"/>
<path fill-rule="evenodd" clip-rule="evenodd" d="M64.9384 14.361C65.1723 13.8215 65.2892 13.2391 65.2814 12.6517C65.2896 12.0666 65.1727 11.4864 64.9384 10.9496C64.7215 10.4597 64.4025 10.0212 64.0025 9.66288C63.6018 9.3083 63.1357 9.03453 62.6299 8.85685C61.5517 8.48522 60.379 8.48522 59.3009 8.85685C58.794 9.03212 58.3273 9.30615 57.9282 9.66288C57.5325 10.023 57.2165 10.4612 57.0006 10.9496C56.7662 11.4852 56.6493 12.0643 56.6577 12.6484C56.649 13.2369 56.7658 13.8206 57.0006 14.361C57.2161 14.854 57.5319 15.2974 57.9282 15.6632C58.3275 16.0254 58.7937 16.3072 59.3009 16.493C60.3754 16.8853 61.5553 16.8853 62.6299 16.493C63.1359 16.3048 63.6016 16.0233 64.0025 15.6632C64.403 15.2993 64.722 14.8556 64.9384 14.361ZM62.6924 11.9228C62.7757 12.1576 62.8179 12.4049 62.8174 12.6539V12.6494C62.8174 12.8973 62.778 13.1437 62.7007 13.3795C62.6238 13.6122 62.5048 13.829 62.3495 14.0192C62.0936 14.3282 61.7398 14.5416 61.346 14.6247C60.9521 14.7076 60.5416 14.6553 60.1816 14.4761C59.9584 14.3672 59.7617 14.2112 59.6052 14.0192C59.4495 13.8293 59.3304 13.6124 59.254 13.3795C59.0983 12.9062 59.0983 12.396 59.254 11.9228C59.327 11.6938 59.4434 11.4807 59.5969 11.295C59.7534 11.1096 59.9472 10.9589 60.166 10.8527C60.4159 10.7404 60.687 10.6823 60.9612 10.6823C61.2355 10.6823 61.5066 10.7404 61.7565 10.8527C61.9767 10.9604 62.173 11.1107 62.3338 11.295C62.4925 11.4796 62.6142 11.6927 62.6924 11.9228Z" fill="white"/>
<path fill-rule="evenodd" clip-rule="evenodd" d="M64.9384 14.361C65.1723 13.8215 65.2892 13.2391 65.2814 12.6517C65.2896 12.0666 65.1727 11.4864 64.9384 10.9496C64.7215 10.4597 64.4025 10.0212 64.0025 9.66288C63.6018 9.3083 63.1357 9.03453 62.6299 8.85685C61.5517 8.48522 60.379 8.48522 59.3009 8.85685C58.794 9.03212 58.3273 9.30615 57.9282 9.66288C57.5325 10.023 57.2165 10.4612 57.0006 10.9496C56.7662 11.4852 56.6493 12.0643 56.6577 12.6484C56.649 13.2369 56.7658 13.8206 57.0006 14.361C57.2161 14.854 57.5319 15.2974 57.9282 15.6632C58.3275 16.0254 58.7937 16.3072 59.3009 16.493C60.3754 16.8853 61.5553 16.8853 62.6299 16.493C63.1359 16.3048 63.6016 16.0233 64.0025 15.6632C64.403 15.2993 64.722 14.8556 64.9384 14.361ZM62.6924 11.9228C62.7757 12.1576 62.8179 12.4049 62.8174 12.6539V12.6494C62.8174 12.8973 62.778 13.1437 62.7007 13.3795C62.6238 13.6122 62.5048 13.829 62.3495 14.0192C62.0936 14.3282 61.7398 14.5416 61.346 14.6247C60.9521 14.7076 60.5416 14.6553 60.1816 14.4761C59.9584 14.3672 59.7617 14.2112 59.6052 14.0192C59.4495 13.8293 59.3304 13.6124 59.254 13.3795C59.0983 12.9062 59.0983 12.396 59.254 11.9228C59.327 11.6938 59.4434 11.4807 59.5969 11.295C59.7534 11.1096 59.9472 10.9589 60.166 10.8527C60.4159 10.7404 60.687 10.6823 60.9612 10.6823C61.2355 10.6823 61.5066 10.7404 61.7565 10.8527C61.9767 10.9604 62.173 11.1107 62.3338 11.295C62.4925 11.4796 62.6142 11.6927 62.6924 11.9228Z" fill="black"/>
<path d="M70.2946 11.6777H66.334V13.6928H70.2946V11.6777Z" fill="#006EB3"/>
<path d="M70.2946 11.6777H66.334V13.6928H70.2946V11.6777Z" fill="white"/>
<path d="M70.2946 11.6777H66.334V13.6928H70.2946V11.6777Z" fill="black"/>
<path d="M116.795 13.6744V10.7172H118.622V8.82647H116.798V6.7959H114.287V8.82647H113.055V10.7172H114.303V13.9806C114.298 14.3607 114.345 14.7397 114.443 15.1073C114.528 15.4281 114.686 15.7256 114.903 15.9773C115.132 16.2346 115.424 16.4288 115.751 16.5412C116.172 16.6817 116.616 16.7476 117.061 16.7358C117.333 16.7354 117.604 16.7122 117.872 16.6663C118.099 16.63 118.323 16.5756 118.542 16.5037L118.511 14.6431C118.398 14.6886 118.28 14.7193 118.161 14.7345C118.029 14.7547 117.896 14.7651 117.762 14.7656C117.398 14.7656 117.145 14.6687 117.005 14.4914C116.866 14.3141 116.795 14.04 116.795 13.6744Z" fill="#006EB3"/>
<path d="M116.795 13.6744V10.7172H118.622V8.82647H116.798V6.7959H114.287V8.82647H113.055V10.7172H114.303V13.9806C114.298 14.3607 114.345 14.7397 114.443 15.1073C114.528 15.4281 114.686 15.7256 114.903 15.9773C115.132 16.2346 115.424 16.4288 115.751 16.5412C116.172 16.6817 116.616 16.7476 117.061 16.7358C117.333 16.7354 117.604 16.7122 117.872 16.6663C118.099 16.63 118.323 16.5756 118.542 16.5037L118.511 14.6431C118.398 14.6886 118.28 14.7193 118.161 14.7345C118.029 14.7547 117.896 14.7651 117.762 14.7656C117.398 14.7656 117.145 14.6687 117.005 14.4914C116.866 14.3141 116.795 14.04 116.795 13.6744Z" fill="white"/>
<path d="M116.795 13.6744V10.7172H118.622V8.82647H116.798V6.7959H114.287V8.82647H113.055V10.7172H114.303V13.9806C114.298 14.3607 114.345 14.7397 114.443 15.1073C114.528 15.4281 114.686 15.7256 114.903 15.9773C115.132 16.2346 115.424 16.4288 115.751 16.5412C116.172 16.6817 116.616 16.7476 117.061 16.7358C117.333 16.7354 117.604 16.7122 117.872 16.6663C118.099 16.63 118.323 16.5756 118.542 16.5037L118.511 14.6431C118.398 14.6886 118.28 14.7193 118.161 14.7345C118.029 14.7547 117.896 14.7651 117.762 14.7656C117.398 14.7656 117.145 14.6687 117.005 14.4914C116.866 14.3141 116.795 14.04 116.795 13.6744Z" fill="black"/>
<path fill-rule="evenodd" clip-rule="evenodd" d="M105.434 9.8801C105.891 9.44559 106.436 9.11261 107.032 8.9032C107.628 8.68719 108.256 8.57586 108.891 8.57422C109.546 8.57422 110.1 8.65434 110.552 8.81456C110.981 8.95789 111.363 9.21513 111.655 9.55844C111.954 9.93095 112.164 10.3654 112.271 10.8296C112.41 11.4265 112.476 12.0382 112.466 12.6509V16.5411H110.122V15.7187H110.077C109.862 16.0532 109.549 16.3134 109.179 16.4635C108.769 16.6411 108.325 16.7308 107.877 16.7266C107.551 16.725 107.226 16.6832 106.91 16.6024C106.585 16.5233 106.275 16.3868 105.998 16.1994C105.717 16.0074 105.484 15.7527 105.32 15.4555C105.133 15.1026 105.041 14.7073 105.055 14.3086C105.055 13.7506 105.208 13.301 105.515 12.9598C105.84 12.6058 106.247 12.3348 106.7 12.1693C107.219 11.9753 107.762 11.8502 108.314 11.7973C108.889 11.7367 109.467 11.7062 110.045 11.706V11.5817C110.045 11.1997 109.909 10.9182 109.64 10.7373C109.343 10.5477 108.994 10.4521 108.641 10.4631C108.278 10.4633 107.918 10.5425 107.588 10.6953C107.274 10.8364 106.981 11.0247 106.724 11.2536L105.434 9.8801ZM110.122 13.1818H109.795C109.515 13.1818 109.231 13.1946 108.946 13.2202C108.686 13.2407 108.43 13.29 108.182 13.3673C107.976 13.4301 107.787 13.5389 107.63 13.6854C107.558 13.7567 107.5 13.8423 107.463 13.9367C107.426 14.0311 107.408 14.1323 107.412 14.2337C107.408 14.3649 107.443 14.4943 107.513 14.6056C107.579 14.7069 107.667 14.7919 107.771 14.8542C107.882 14.9184 108.003 14.963 108.129 14.9858C108.258 15.0107 108.388 15.0235 108.519 15.0242C109.04 15.0242 109.438 14.8822 109.714 14.5983C109.991 14.3144 110.127 13.93 110.122 13.445V13.1818Z" fill="#006EB3"/>
<path fill-rule="evenodd" clip-rule="evenodd" d="M105.434 9.8801C105.891 9.44559 106.436 9.11261 107.032 8.9032C107.628 8.68719 108.256 8.57586 108.891 8.57422C109.546 8.57422 110.1 8.65434 110.552 8.81456C110.981 8.95789 111.363 9.21513 111.655 9.55844C111.954 9.93095 112.164 10.3654 112.271 10.8296C112.41 11.4265 112.476 12.0382 112.466 12.6509V16.5411H110.122V15.7187H110.077C109.862 16.0532 109.549 16.3134 109.179 16.4635C108.769 16.6411 108.325 16.7308 107.877 16.7266C107.551 16.725 107.226 16.6832 106.91 16.6024C106.585 16.5233 106.275 16.3868 105.998 16.1994C105.717 16.0074 105.484 15.7527 105.32 15.4555C105.133 15.1026 105.041 14.7073 105.055 14.3086C105.055 13.7506 105.208 13.301 105.515 12.9598C105.84 12.6058 106.247 12.3348 106.7 12.1693C107.219 11.9753 107.762 11.8502 108.314 11.7973C108.889 11.7367 109.467 11.7062 110.045 11.706V11.5817C110.045 11.1997 109.909 10.9182 109.64 10.7373C109.343 10.5477 108.994 10.4521 108.641 10.4631C108.278 10.4633 107.918 10.5425 107.588 10.6953C107.274 10.8364 106.981 11.0247 106.724 11.2536L105.434 9.8801ZM110.122 13.1818H109.795C109.515 13.1818 109.231 13.1946 108.946 13.2202C108.686 13.2407 108.43 13.29 108.182 13.3673C107.976 13.4301 107.787 13.5389 107.63 13.6854C107.558 13.7567 107.5 13.8423 107.463 13.9367C107.426 14.0311 107.408 14.1323 107.412 14.2337C107.408 14.3649 107.443 14.4943 107.513 14.6056C107.579 14.7069 107.667 14.7919 107.771 14.8542C107.882 14.9184 108.003 14.963 108.129 14.9858C108.258 15.0107 108.388 15.0235 108.519 15.0242C109.04 15.0242 109.438 14.8822 109.714 14.5983C109.991 14.3144 110.127 13.93 110.122 13.445V13.1818Z" fill="white"/>
<path fill-rule="evenodd" clip-rule="evenodd" d="M105.434 9.8801C105.891 9.44559 106.436 9.11261 107.032 8.9032C107.628 8.68719 108.256 8.57586 108.891 8.57422C109.546 8.57422 110.1 8.65434 110.552 8.81456C110.981 8.95789 111.363 9.21513 111.655 9.55844C111.954 9.93095 112.164 10.3654 112.271 10.8296C112.41 11.4265 112.476 12.0382 112.466 12.6509V16.5411H110.122V15.7187H110.077C109.862 16.0532 109.549 16.3134 109.179 16.4635C108.769 16.6411 108.325 16.7308 107.877 16.7266C107.551 16.725 107.226 16.6832 106.91 16.6024C106.585 16.5233 106.275 16.3868 105.998 16.1994C105.717 16.0074 105.484 15.7527 105.32 15.4555C105.133 15.1026 105.041 14.7073 105.055 14.3086C105.055 13.7506 105.208 13.301 105.515 12.9598C105.84 12.6058 106.247 12.3348 106.7 12.1693C107.219 11.9753 107.762 11.8502 108.314 11.7973C108.889 11.7367 109.467 11.7062 110.045 11.706V11.5817C110.045 11.1997 109.909 10.9182 109.64 10.7373C109.343 10.5477 108.994 10.4521 108.641 10.4631C108.278 10.4633 107.918 10.5425 107.588 10.6953C107.274 10.8364 106.981 11.0247 106.724 11.2536L105.434 9.8801ZM110.122 13.1818H109.795C109.515 13.1818 109.231 13.1946 108.946 13.2202C108.686 13.2407 108.43 13.29 108.182 13.3673C107.976 13.4301 107.787 13.5389 107.63 13.6854C107.558 13.7567 107.5 13.8423 107.463 13.9367C107.426 14.0311 107.408 14.1323 107.412 14.2337C107.408 14.3649 107.443 14.4943 107.513 14.6056C107.579 14.7069 107.667 14.7919 107.771 14.8542C107.882 14.9184 108.003 14.963 108.129 14.9858C108.258 15.0107 108.388 15.0235 108.519 15.0242C109.04 15.0242 109.438 14.8822 109.714 14.5983C109.991 14.3144 110.127 13.93 110.122 13.445V13.1818Z" fill="black"/>
<path fill-rule="evenodd" clip-rule="evenodd" d="M98.6422 12.7785V13.0883C98.6422 13.1866 98.6369 13.2848 98.6265 13.3825H92.9973C93.0149 13.5915 93.0815 13.7934 93.1924 13.9719C93.3023 14.1493 93.445 14.3043 93.6134 14.4289C93.7876 14.5602 93.9821 14.6624 94.1896 14.7313C94.4032 14.8034 94.6273 14.8399 94.8523 14.8392C95.2091 14.8507 95.5631 14.7734 95.8823 14.6144C96.1521 14.4746 96.3866 14.2759 96.5679 14.0332L98.3462 15.1545C97.9837 15.6809 97.4851 16.101 96.9038 16.3708C96.2505 16.6666 95.5388 16.8125 94.8214 16.7975C94.2581 16.8002 93.6986 16.7074 93.1662 16.5234C92.6633 16.3523 92.2 16.0836 91.8022 15.7329C91.4059 15.3778 91.0924 14.9412 90.8826 14.4535C90.6509 13.9042 90.5367 13.3128 90.5481 12.7172C90.5396 12.13 90.6509 11.547 90.8755 11.0037C91.0791 10.5138 91.3817 10.0705 91.7642 9.70156C92.1462 9.34041 92.5967 9.05865 93.0891 8.87268C93.6177 8.67285 94.1786 8.57304 94.7438 8.57842C95.2829 8.57207 95.8181 8.66952 96.32 8.86536C96.7867 9.04853 97.2073 9.33152 97.5517 9.69423C97.9062 10.0749 98.1792 10.5232 98.3543 11.012C98.5546 11.5792 98.6522 12.1773 98.6422 12.7785ZM96.2877 11.8025C96.2943 11.4223 96.1578 11.0534 95.9051 10.768C95.6506 10.4792 95.2686 10.3348 94.7586 10.3348C94.525 10.3319 94.2923 10.3712 94.073 10.4509C93.8737 10.5239 93.6886 10.6312 93.5268 10.768C93.3732 10.9007 93.2461 11.0614 93.1524 11.2414C93.0611 11.4168 93.0078 11.6096 92.9973 11.8071L96.2877 11.8025Z" fill="#006EB3"/>
<path fill-rule="evenodd" clip-rule="evenodd" d="M98.6422 12.7785V13.0883C98.6422 13.1866 98.6369 13.2848 98.6265 13.3825H92.9973C93.0149 13.5915 93.0815 13.7934 93.1924 13.9719C93.3023 14.1493 93.445 14.3043 93.6134 14.4289C93.7876 14.5602 93.9821 14.6624 94.1896 14.7313C94.4032 14.8034 94.6273 14.8399 94.8523 14.8392C95.2091 14.8507 95.5631 14.7734 95.8823 14.6144C96.1521 14.4746 96.3866 14.2759 96.5679 14.0332L98.3462 15.1545C97.9837 15.6809 97.4851 16.101 96.9038 16.3708C96.2505 16.6666 95.5388 16.8125 94.8214 16.7975C94.2581 16.8002 93.6986 16.7074 93.1662 16.5234C92.6633 16.3523 92.2 16.0836 91.8022 15.7329C91.4059 15.3778 91.0924 14.9412 90.8826 14.4535C90.6509 13.9042 90.5367 13.3128 90.5481 12.7172C90.5396 12.13 90.6509 11.547 90.8755 11.0037C91.0791 10.5138 91.3817 10.0705 91.7642 9.70156C92.1462 9.34041 92.5967 9.05865 93.0891 8.87268C93.6177 8.67285 94.1786 8.57304 94.7438 8.57842C95.2829 8.57207 95.8181 8.66952 96.32 8.86536C96.7867 9.04853 97.2073 9.33152 97.5517 9.69423C97.9062 10.0749 98.1792 10.5232 98.3543 11.012C98.5546 11.5792 98.6522 12.1773 98.6422 12.7785ZM96.2877 11.8025C96.2943 11.4223 96.1578 11.0534 95.9051 10.768C95.6506 10.4792 95.2686 10.3348 94.7586 10.3348C94.525 10.3319 94.2923 10.3712 94.073 10.4509C93.8737 10.5239 93.6886 10.6312 93.5268 10.768C93.3732 10.9007 93.2461 11.0614 93.1524 11.2414C93.0611 11.4168 93.0078 11.6096 92.9973 11.8071L96.2877 11.8025Z" fill="white"/>
<path fill-rule="evenodd" clip-rule="evenodd" d="M98.6422 12.7785V13.0883C98.6422 13.1866 98.6369 13.2848 98.6265 13.3825H92.9973C93.0149 13.5915 93.0815 13.7934 93.1924 13.9719C93.3023 14.1493 93.445 14.3043 93.6134 14.4289C93.7876 14.5602 93.9821 14.6624 94.1896 14.7313C94.4032 14.8034 94.6273 14.8399 94.8523 14.8392C95.2091 14.8507 95.5631 14.7734 95.8823 14.6144C96.1521 14.4746 96.3866 14.2759 96.5679 14.0332L98.3462 15.1545C97.9837 15.6809 97.4851 16.101 96.9038 16.3708C96.2505 16.6666 95.5388 16.8125 94.8214 16.7975C94.2581 16.8002 93.6986 16.7074 93.1662 16.5234C92.6633 16.3523 92.2 16.0836 91.8022 15.7329C91.4059 15.3778 91.0924 14.9412 90.8826 14.4535C90.6509 13.9042 90.5367 13.3128 90.5481 12.7172C90.5396 12.13 90.6509 11.547 90.8755 11.0037C91.0791 10.5138 91.3817 10.0705 91.7642 9.70156C92.1462 9.34041 92.5967 9.05865 93.0891 8.87268C93.6177 8.67285 94.1786 8.57304 94.7438 8.57842C95.2829 8.57207 95.8181 8.66952 96.32 8.86536C96.7867 9.04853 97.2073 9.33152 97.5517 9.69423C97.9062 10.0749 98.1792 10.5232 98.3543 11.012C98.5546 11.5792 98.6522 12.1773 98.6422 12.7785ZM96.2877 11.8025C96.2943 11.4223 96.1578 11.0534 95.9051 10.768C95.6506 10.4792 95.2686 10.3348 94.7586 10.3348C94.525 10.3319 94.2923 10.3712 94.073 10.4509C93.8737 10.5239 93.6886 10.6312 93.5268 10.768C93.3732 10.9007 93.2461 11.0614 93.1524 11.2414C93.0611 11.4168 93.0078 11.6096 92.9973 11.8071L96.2877 11.8025Z" fill="black"/>
<path fill-rule="evenodd" clip-rule="evenodd" d="M79.7401 14.361C79.9741 13.8215 80.0907 13.2391 80.0831 12.6517C80.0916 12.0666 79.9746 11.4864 79.7401 10.9496C79.5231 10.4597 79.2043 10.0212 78.8042 9.66288C78.4037 9.3083 77.9374 9.03453 77.4317 8.85686C76.3536 8.48521 75.1809 8.48521 74.1026 8.85686C73.5957 9.03212 73.1291 9.30616 72.73 9.66288C72.3342 10.023 72.0183 10.4612 71.8024 10.9496C71.568 11.4852 71.4511 12.0643 71.4594 12.6484C71.4507 13.2369 71.5676 13.8206 71.8024 14.361C72.0178 14.854 72.3336 15.2974 72.73 15.6632C73.1292 16.0254 73.5954 16.3072 74.1026 16.493C75.1771 16.8853 76.357 16.8853 77.4317 16.493C77.9379 16.3048 78.4032 16.0233 78.8042 15.6632C79.2048 15.2993 79.5236 14.8556 79.7401 14.361ZM77.494 11.9228C77.5773 12.1576 77.6196 12.4049 77.6191 12.6539V12.6493C77.6191 12.8973 77.5796 13.1437 77.5026 13.3795C77.4255 13.6122 77.3066 13.829 77.151 14.0192C76.8955 14.3282 76.5415 14.5417 76.1476 14.6247C75.7537 14.7076 75.3431 14.6553 74.9835 14.4761C74.7603 14.3672 74.5634 14.2112 74.4068 14.0192C74.2513 13.8293 74.1322 13.6124 74.0557 13.3795C73.9 12.9062 73.9 12.396 74.0557 11.9228C74.1288 11.6938 74.2451 11.4807 74.3987 11.295C74.5553 11.1097 74.7489 10.9589 74.9677 10.8527C75.2175 10.7404 75.4887 10.6823 75.7632 10.6823C76.0372 10.6823 76.3084 10.7404 76.5582 10.8527C76.7785 10.9604 76.975 11.1107 77.1358 11.295C77.2942 11.4796 77.416 11.6927 77.494 11.9228Z" fill="#006EB3"/>
<path fill-rule="evenodd" clip-rule="evenodd" d="M79.7401 14.361C79.9741 13.8215 80.0907 13.2391 80.0831 12.6517C80.0916 12.0666 79.9746 11.4864 79.7401 10.9496C79.5231 10.4597 79.2043 10.0212 78.8042 9.66288C78.4037 9.3083 77.9374 9.03453 77.4317 8.85686C76.3536 8.48521 75.1809 8.48521 74.1026 8.85686C73.5957 9.03212 73.1291 9.30616 72.73 9.66288C72.3342 10.023 72.0183 10.4612 71.8024 10.9496C71.568 11.4852 71.4511 12.0643 71.4594 12.6484C71.4507 13.2369 71.5676 13.8206 71.8024 14.361C72.0178 14.854 72.3336 15.2974 72.73 15.6632C73.1292 16.0254 73.5954 16.3072 74.1026 16.493C75.1771 16.8853 76.357 16.8853 77.4317 16.493C77.9379 16.3048 78.4032 16.0233 78.8042 15.6632C79.2048 15.2993 79.5236 14.8556 79.7401 14.361ZM77.494 11.9228C77.5773 12.1576 77.6196 12.4049 77.6191 12.6539V12.6493C77.6191 12.8973 77.5796 13.1437 77.5026 13.3795C77.4255 13.6122 77.3066 13.829 77.151 14.0192C76.8955 14.3282 76.5415 14.5417 76.1476 14.6247C75.7537 14.7076 75.3431 14.6553 74.9835 14.4761C74.7603 14.3672 74.5634 14.2112 74.4068 14.0192C74.2513 13.8293 74.1322 13.6124 74.0557 13.3795C73.9 12.9062 73.9 12.396 74.0557 11.9228C74.1288 11.6938 74.2451 11.4807 74.3987 11.295C74.5553 11.1097 74.7489 10.9589 74.9677 10.8527C75.2175 10.7404 75.4887 10.6823 75.7632 10.6823C76.0372 10.6823 76.3084 10.7404 76.5582 10.8527C76.7785 10.9604 76.975 11.1107 77.1358 11.295C77.2942 11.4796 77.416 11.6927 77.494 11.9228Z" fill="white"/>
<path fill-rule="evenodd" clip-rule="evenodd" d="M79.7401 14.361C79.9741 13.8215 80.0907 13.2391 80.0831 12.6517C80.0916 12.0666 79.9746 11.4864 79.7401 10.9496C79.5231 10.4597 79.2043 10.0212 78.8042 9.66288C78.4037 9.3083 77.9374 9.03453 77.4317 8.85686C76.3536 8.48521 75.1809 8.48521 74.1026 8.85686C73.5957 9.03212 73.1291 9.30616 72.73 9.66288C72.3342 10.023 72.0183 10.4612 71.8024 10.9496C71.568 11.4852 71.4511 12.0643 71.4594 12.6484C71.4507 13.2369 71.5676 13.8206 71.8024 14.361C72.0178 14.854 72.3336 15.2974 72.73 15.6632C73.1292 16.0254 73.5954 16.3072 74.1026 16.493C75.1771 16.8853 76.357 16.8853 77.4317 16.493C77.9379 16.3048 78.4032 16.0233 78.8042 15.6632C79.2048 15.2993 79.5236 14.8556 79.7401 14.361ZM77.494 11.9228C77.5773 12.1576 77.6196 12.4049 77.6191 12.6539V12.6493C77.6191 12.8973 77.5796 13.1437 77.5026 13.3795C77.4255 13.6122 77.3066 13.829 77.151 14.0192C76.8955 14.3282 76.5415 14.5417 76.1476 14.6247C75.7537 14.7076 75.3431 14.6553 74.9835 14.4761C74.7603 14.3672 74.5634 14.2112 74.4068 14.0192C74.2513 13.8293 74.1322 13.6124 74.0557 13.3795C73.9 12.9062 73.9 12.396 74.0557 11.9228C74.1288 11.6938 74.2451 11.4807 74.3987 11.295C74.5553 11.1097 74.7489 10.9589 74.9677 10.8527C75.2175 10.7404 75.4887 10.6823 75.7632 10.6823C76.0372 10.6823 76.3084 10.7404 76.5582 10.8527C76.7785 10.9604 76.975 11.1107 77.1358 11.295C77.2942 11.4796 77.416 11.6927 77.494 11.9228Z" fill="black"/>
<path fill-rule="evenodd" clip-rule="evenodd" d="M89.4626 14.213C89.6301 13.7121 89.7143 13.1874 89.7124 12.6595L89.7134 12.6549C89.7153 12.13 89.6282 11.6085 89.456 11.1123C89.2933 10.6395 89.044 10.2008 88.7204 9.81832C88.4012 9.44462 88.0049 9.14327 87.5587 8.93464C87.08 8.71296 86.5572 8.60174 86.0296 8.60931C85.5115 8.59662 84.9986 8.71651 84.54 8.95749C84.1575 9.15859 83.8207 9.43572 83.5499 9.7717H83.5043V8.82589H81.0703V20.2618H83.6265V15.6926H83.6575C83.9139 16.0377 84.2588 16.3081 84.6561 16.4757C85.0819 16.6699 85.5448 16.7706 86.0129 16.7709C86.5539 16.7805 87.0891 16.6638 87.5758 16.43C88.022 16.2109 88.4174 15.9019 88.7371 15.5226C89.0601 15.1356 89.3061 14.6912 89.4626 14.213ZM87.1134 11.9238C87.1914 12.1598 87.2309 12.4066 87.2304 12.6549V12.6595C87.2299 12.9095 87.1904 13.158 87.1134 13.396C87.0401 13.6285 86.9235 13.8454 86.7703 14.0357C86.6162 14.2251 86.4221 14.3786 86.2013 14.4853C85.9535 14.6038 85.6813 14.6623 85.4063 14.6562C85.1366 14.6613 84.8692 14.6027 84.6266 14.4853C84.403 14.3762 84.2041 14.2233 84.0419 14.0357C83.8787 13.847 83.7521 13.6302 83.6679 13.396C83.5366 13.0458 83.5019 12.667 83.5676 12.299C83.6337 11.931 83.7973 11.5872 84.0419 11.3033C84.2046 11.116 84.4035 10.9631 84.6266 10.8537C84.8697 10.7371 85.1366 10.6789 85.4063 10.6837C85.6809 10.6779 85.9535 10.7361 86.2013 10.8537C86.4202 10.9599 86.6143 11.1107 86.7703 11.296C86.924 11.4817 87.0406 11.6948 87.1134 11.9238Z" fill="#006EB3"/>
<path fill-rule="evenodd" clip-rule="evenodd" d="M89.4626 14.213C89.6301 13.7121 89.7143 13.1874 89.7124 12.6595L89.7134 12.6549C89.7153 12.13 89.6282 11.6085 89.456 11.1123C89.2933 10.6395 89.044 10.2008 88.7204 9.81832C88.4012 9.44462 88.0049 9.14327 87.5587 8.93464C87.08 8.71296 86.5572 8.60174 86.0296 8.60931C85.5115 8.59662 84.9986 8.71651 84.54 8.95749C84.1575 9.15859 83.8207 9.43572 83.5499 9.7717H83.5043V8.82589H81.0703V20.2618H83.6265V15.6926H83.6575C83.9139 16.0377 84.2588 16.3081 84.6561 16.4757C85.0819 16.6699 85.5448 16.7706 86.0129 16.7709C86.5539 16.7805 87.0891 16.6638 87.5758 16.43C88.022 16.2109 88.4174 15.9019 88.7371 15.5226C89.0601 15.1356 89.3061 14.6912 89.4626 14.213ZM87.1134 11.9238C87.1914 12.1598 87.2309 12.4066 87.2304 12.6549V12.6595C87.2299 12.9095 87.1904 13.158 87.1134 13.396C87.0401 13.6285 86.9235 13.8454 86.7703 14.0357C86.6162 14.2251 86.4221 14.3786 86.2013 14.4853C85.9535 14.6038 85.6813 14.6623 85.4063 14.6562C85.1366 14.6613 84.8692 14.6027 84.6266 14.4853C84.403 14.3762 84.2041 14.2233 84.0419 14.0357C83.8787 13.847 83.7521 13.6302 83.6679 13.396C83.5366 13.0458 83.5019 12.667 83.5676 12.299C83.6337 11.931 83.7973 11.5872 84.0419 11.3033C84.2046 11.116 84.4035 10.9631 84.6266 10.8537C84.8697 10.7371 85.1366 10.6789 85.4063 10.6837C85.6809 10.6779 85.9535 10.7361 86.2013 10.8537C86.4202 10.9599 86.6143 11.1107 86.7703 11.296C86.924 11.4817 87.0406 11.6948 87.1134 11.9238Z" fill="white"/>
<path fill-rule="evenodd" clip-rule="evenodd" d="M89.4626 14.213C89.6301 13.7121 89.7143 13.1874 89.7124 12.6595L89.7134 12.6549C89.7153 12.13 89.6282 11.6085 89.456 11.1123C89.2933 10.6395 89.044 10.2008 88.7204 9.81832C88.4012 9.44462 88.0049 9.14327 87.5587 8.93464C87.08 8.71296 86.5572 8.60174 86.0296 8.60931C85.5115 8.59662 84.9986 8.71651 84.54 8.95749C84.1575 9.15859 83.8207 9.43572 83.5499 9.7717H83.5043V8.82589H81.0703V20.2618H83.6265V15.6926H83.6575C83.9139 16.0377 84.2588 16.3081 84.6561 16.4757C85.0819 16.6699 85.5448 16.7706 86.0129 16.7709C86.5539 16.7805 87.0891 16.6638 87.5758 16.43C88.022 16.2109 88.4174 15.9019 88.7371 15.5226C89.0601 15.1356 89.3061 14.6912 89.4626 14.213ZM87.1134 11.9238C87.1914 12.1598 87.2309 12.4066 87.2304 12.6549V12.6595C87.2299 12.9095 87.1904 13.158 87.1134 13.396C87.0401 13.6285 86.9235 13.8454 86.7703 14.0357C86.6162 14.2251 86.4221 14.3786 86.2013 14.4853C85.9535 14.6038 85.6813 14.6623 85.4063 14.6562C85.1366 14.6613 84.8692 14.6027 84.6266 14.4853C84.403 14.3762 84.2041 14.2233 84.0419 14.0357C83.8787 13.847 83.7521 13.6302 83.6679 13.396C83.5366 13.0458 83.5019 12.667 83.5676 12.299C83.6337 11.931 83.7973 11.5872 84.0419 11.3033C84.2046 11.116 84.4035 10.9631 84.6266 10.8537C84.8697 10.7371 85.1366 10.6789 85.4063 10.6837C85.6809 10.6779 85.9535 10.7361 86.2013 10.8537C86.4202 10.9599 86.6143 11.1107 86.7703 11.296C86.924 11.4817 87.0406 11.6948 87.1134 11.9238Z" fill="black"/>
<path d="M104.33 10.8587C104.444 10.869 104.557 10.8889 104.668 10.9181L104.775 8.67094C104.697 8.64674 104.615 8.63112 104.534 8.62433C104.433 8.61357 104.331 8.60838 104.229 8.60879C103.779 8.60023 103.338 8.73084 102.966 8.98256C102.606 9.22798 102.316 9.56125 102.124 9.95032H102.094V8.83452H99.6304V16.5447H102.188V12.5877C102.192 12.4039 102.223 12.2217 102.28 12.0467C102.344 11.8385 102.447 11.6443 102.583 11.4746C102.738 11.2885 102.929 11.1358 103.145 11.0259C103.415 10.8955 103.712 10.8327 104.011 10.8432C104.114 10.8432 104.222 10.8486 104.33 10.8587Z" fill="#006EB3"/>
<path d="M104.33 10.8587C104.444 10.869 104.557 10.8889 104.668 10.9181L104.775 8.67094C104.697 8.64674 104.615 8.63112 104.534 8.62433C104.433 8.61357 104.331 8.60838 104.229 8.60879C103.779 8.60023 103.338 8.73084 102.966 8.98256C102.606 9.22798 102.316 9.56125 102.124 9.95032H102.094V8.83452H99.6304V16.5447H102.188V12.5877C102.192 12.4039 102.223 12.2217 102.28 12.0467C102.344 11.8385 102.447 11.6443 102.583 11.4746C102.738 11.2885 102.929 11.1358 103.145 11.0259C103.415 10.8955 103.712 10.8327 104.011 10.8432C104.114 10.8432 104.222 10.8486 104.33 10.8587Z" fill="white"/>
<path d="M104.33 10.8587C104.444 10.869 104.557 10.8889 104.668 10.9181L104.775 8.67094C104.697 8.64674 104.615 8.63112 104.534 8.62433C104.433 8.61357 104.331 8.60838 104.229 8.60879C103.779 8.60023 103.338 8.73084 102.966 8.98256C102.606 9.22798 102.316 9.56125 102.124 9.95032H102.094V8.83452H99.6304V16.5447H102.188V12.5877C102.192 12.4039 102.223 12.2217 102.28 12.0467C102.344 11.8385 102.447 11.6443 102.583 11.4746C102.738 11.2885 102.929 11.1358 103.145 11.0259C103.415 10.8955 103.712 10.8327 104.011 10.8432C104.114 10.8432 104.222 10.8486 104.33 10.8587Z" fill="black"/>
<path fill-rule="evenodd" clip-rule="evenodd" d="M127.777 12.6517C127.785 13.2391 127.668 13.8215 127.434 14.361C127.217 14.8556 126.899 15.2993 126.498 15.6632C126.097 16.0231 125.631 16.3046 125.126 16.493C124.051 16.8853 122.871 16.8853 121.796 16.493C121.289 16.3072 120.823 16.0254 120.424 15.6632C120.029 15.2987 119.715 14.8572 119.5 14.3664C119.265 13.8261 119.148 13.2424 119.157 12.6539C119.148 12.068 119.265 11.4869 119.5 10.9496C119.716 10.4612 120.032 10.023 120.427 9.66288C120.827 9.30616 121.293 9.03212 121.8 8.85686C122.878 8.48521 124.051 8.48521 125.129 8.85686C125.635 9.03466 126.101 9.30839 126.501 9.66288C126.9 10.0215 127.218 10.4601 127.434 10.9496C127.668 11.4864 127.785 12.0666 127.777 12.6517ZM125.313 12.6497C125.313 12.4021 125.271 12.1564 125.188 11.9228C125.11 11.6927 124.988 11.4796 124.829 11.295C124.668 11.1107 124.472 10.9604 124.252 10.8527C124.002 10.7404 123.731 10.6823 123.457 10.6823C123.183 10.6823 122.911 10.7404 122.662 10.8527C122.443 10.9589 122.249 11.1097 122.092 11.295C121.939 11.4807 121.822 11.6938 121.75 11.9228C121.594 12.396 121.594 12.9062 121.75 13.3795C121.826 13.6124 121.945 13.8293 122.101 14.0192C122.257 14.2112 122.454 14.3672 122.677 14.4761C122.927 14.5885 123.198 14.6467 123.473 14.6467C123.747 14.6467 124.018 14.5885 124.269 14.4761C124.491 14.367 124.688 14.2111 124.845 14.0192C125 13.8293 125.12 13.6124 125.196 13.3795C125.274 13.1439 125.313 12.8976 125.313 12.6497Z" fill="#006EB3"/>
<path fill-rule="evenodd" clip-rule="evenodd" d="M127.777 12.6517C127.785 13.2391 127.668 13.8215 127.434 14.361C127.217 14.8556 126.899 15.2993 126.498 15.6632C126.097 16.0231 125.631 16.3046 125.126 16.493C124.051 16.8853 122.871 16.8853 121.796 16.493C121.289 16.3072 120.823 16.0254 120.424 15.6632C120.029 15.2987 119.715 14.8572 119.5 14.3664C119.265 13.8261 119.148 13.2424 119.157 12.6539C119.148 12.068 119.265 11.4869 119.5 10.9496C119.716 10.4612 120.032 10.023 120.427 9.66288C120.827 9.30616 121.293 9.03212 121.8 8.85686C122.878 8.48521 124.051 8.48521 125.129 8.85686C125.635 9.03466 126.101 9.30839 126.501 9.66288C126.9 10.0215 127.218 10.4601 127.434 10.9496C127.668 11.4864 127.785 12.0666 127.777 12.6517ZM125.313 12.6497C125.313 12.4021 125.271 12.1564 125.188 11.9228C125.11 11.6927 124.988 11.4796 124.829 11.295C124.668 11.1107 124.472 10.9604 124.252 10.8527C124.002 10.7404 123.731 10.6823 123.457 10.6823C123.183 10.6823 122.911 10.7404 122.662 10.8527C122.443 10.9589 122.249 11.1097 122.092 11.295C121.939 11.4807 121.822 11.6938 121.75 11.9228C121.594 12.396 121.594 12.9062 121.75 13.3795C121.826 13.6124 121.945 13.8293 122.101 14.0192C122.257 14.2112 122.454 14.3672 122.677 14.4761C122.927 14.5885 123.198 14.6467 123.473 14.6467C123.747 14.6467 124.018 14.5885 124.269 14.4761C124.491 14.367 124.688 14.2111 124.845 14.0192C125 13.8293 125.12 13.6124 125.196 13.3795C125.274 13.1439 125.313 12.8976 125.313 12.6497Z" fill="white"/>
<path fill-rule="evenodd" clip-rule="evenodd" d="M127.777 12.6517C127.785 13.2391 127.668 13.8215 127.434 14.361C127.217 14.8556 126.899 15.2993 126.498 15.6632C126.097 16.0231 125.631 16.3046 125.126 16.493C124.051 16.8853 122.871 16.8853 121.796 16.493C121.289 16.3072 120.823 16.0254 120.424 15.6632C120.029 15.2987 119.715 14.8572 119.5 14.3664C119.265 13.8261 119.148 13.2424 119.157 12.6539C119.148 12.068 119.265 11.4869 119.5 10.9496C119.716 10.4612 120.032 10.023 120.427 9.66288C120.827 9.30616 121.293 9.03212 121.8 8.85686C122.878 8.48521 124.051 8.48521 125.129 8.85686C125.635 9.03466 126.101 9.30839 126.501 9.66288C126.9 10.0215 127.218 10.4601 127.434 10.9496C127.668 11.4864 127.785 12.0666 127.777 12.6517ZM125.313 12.6497C125.313 12.4021 125.271 12.1564 125.188 11.9228C125.11 11.6927 124.988 11.4796 124.829 11.295C124.668 11.1107 124.472 10.9604 124.252 10.8527C124.002 10.7404 123.731 10.6823 123.457 10.6823C123.183 10.6823 122.911 10.7404 122.662 10.8527C122.443 10.9589 122.249 11.1097 122.092 11.295C121.939 11.4807 121.822 11.6938 121.75 11.9228C121.594 12.396 121.594 12.9062 121.75 13.3795C121.826 13.6124 121.945 13.8293 122.101 14.0192C122.257 14.2112 122.454 14.3672 122.677 14.4761C122.927 14.5885 123.198 14.6467 123.473 14.6467C123.747 14.6467 124.018 14.5885 124.269 14.4761C124.491 14.367 124.688 14.2111 124.845 14.0192C125 13.8293 125.12 13.6124 125.196 13.3795C125.274 13.1439 125.313 12.8976 125.313 12.6497Z" fill="black"/>
<path d="M133.402 10.856C133.516 10.8674 133.628 10.8882 133.738 10.9181L133.849 8.67094C133.77 8.64674 133.689 8.63112 133.607 8.62433C133.506 8.61357 133.405 8.60838 133.303 8.60879C132.853 8.60023 132.412 8.73084 132.04 8.98256C131.68 9.22798 131.39 9.56125 131.197 9.95032H131.167V8.83452H128.703V16.5419H131.26V12.585C131.265 12.4012 131.296 12.219 131.352 12.0439C131.415 11.8358 131.519 11.6416 131.656 11.4719C131.81 11.2857 132.001 11.133 132.217 11.0232C132.486 10.8926 132.784 10.8299 133.083 10.8404C133.186 10.8404 133.293 10.8459 133.402 10.856Z" fill="#006EB3"/>
<path d="M133.402 10.856C133.516 10.8674 133.628 10.8882 133.738 10.9181L133.849 8.67094C133.77 8.64674 133.689 8.63112 133.607 8.62433C133.506 8.61357 133.405 8.60838 133.303 8.60879C132.853 8.60023 132.412 8.73084 132.04 8.98256C131.68 9.22798 131.39 9.56125 131.197 9.95032H131.167V8.83452H128.703V16.5419H131.26V12.585C131.265 12.4012 131.296 12.219 131.352 12.0439C131.415 11.8358 131.519 11.6416 131.656 11.4719C131.81 11.2857 132.001 11.133 132.217 11.0232C132.486 10.8926 132.784 10.8299 133.083 10.8404C133.186 10.8404 133.293 10.8459 133.402 10.856Z" fill="white"/>
<path d="M133.402 10.856C133.516 10.8674 133.628 10.8882 133.738 10.9181L133.849 8.67094C133.77 8.64674 133.689 8.63112 133.607 8.62433C133.506 8.61357 133.405 8.60838 133.303 8.60879C132.853 8.60023 132.412 8.73084 132.04 8.98256C131.68 9.22798 131.39 9.56125 131.197 9.95032H131.167V8.83452H128.703V16.5419H131.26V12.585C131.265 12.4012 131.296 12.219 131.352 12.0439C131.415 11.8358 131.519 11.6416 131.656 11.4719C131.81 11.2857 132.001 11.133 132.217 11.0232C132.486 10.8926 132.784 10.8299 133.083 10.8404C133.186 10.8404 133.293 10.8459 133.402 10.856Z" fill="black"/>
<path d="M139.334 11.1037C139.117 10.9011 138.868 10.7337 138.599 10.6075C138.322 10.4738 138.018 10.4048 137.71 10.4056C137.481 10.4034 137.255 10.4511 137.047 10.5454C136.952 10.5843 136.872 10.6515 136.818 10.7376C136.764 10.8238 136.737 10.9246 136.744 11.0261C136.744 11.2424 136.855 11.3974 137.078 11.4912C137.431 11.6214 137.794 11.7249 138.162 11.801C138.462 11.8659 138.757 11.9539 139.044 12.0642C139.332 12.1737 139.602 12.3252 139.846 12.5138C140.084 12.6991 140.281 12.9316 140.424 13.1965C140.577 13.4933 140.653 13.8234 140.645 14.1569C140.663 14.561 140.573 14.9628 140.386 15.3218C140.198 15.6809 139.92 15.9847 139.577 16.203C139.25 16.4141 138.888 16.5663 138.509 16.6526C138.12 16.7451 137.723 16.792 137.324 16.7924C136.69 16.7927 136.06 16.6905 135.46 16.4899C134.891 16.312 134.371 16.0072 133.939 15.599L135.374 14.0948C135.614 14.3514 135.9 14.5618 136.216 14.7153C136.545 14.8797 136.909 14.9645 137.276 14.9629C137.491 14.9618 137.702 14.9115 137.893 14.8158C137.991 14.7701 138.072 14.696 138.127 14.6033C138.181 14.5106 138.206 14.4036 138.197 14.2967C138.197 14.0591 138.072 13.8834 137.823 13.7694C137.445 13.6157 137.053 13.4964 136.653 13.413C136.378 13.3494 136.107 13.2667 135.842 13.1654C135.579 13.0661 135.334 12.9247 135.117 12.7468C134.9 12.5668 134.723 12.3452 134.595 12.0953C134.452 11.806 134.383 11.4869 134.392 11.165C134.379 10.7493 134.481 10.3381 134.689 9.97695C134.881 9.65753 135.141 9.38469 135.453 9.17826C135.77 8.96907 136.121 8.81459 136.49 8.72135C136.858 8.62434 137.238 8.57489 137.619 8.57422C138.2 8.57471 138.776 8.66726 139.328 8.84837C139.854 9.01122 140.336 9.28915 140.739 9.66172L139.334 11.1037Z" fill="#006EB3"/>
<path d="M139.334 11.1037C139.117 10.9011 138.868 10.7337 138.599 10.6075C138.322 10.4738 138.018 10.4048 137.71 10.4056C137.481 10.4034 137.255 10.4511 137.047 10.5454C136.952 10.5843 136.872 10.6515 136.818 10.7376C136.764 10.8238 136.737 10.9246 136.744 11.0261C136.744 11.2424 136.855 11.3974 137.078 11.4912C137.431 11.6214 137.794 11.7249 138.162 11.801C138.462 11.8659 138.757 11.9539 139.044 12.0642C139.332 12.1737 139.602 12.3252 139.846 12.5138C140.084 12.6991 140.281 12.9316 140.424 13.1965C140.577 13.4933 140.653 13.8234 140.645 14.1569C140.663 14.561 140.573 14.9628 140.386 15.3218C140.198 15.6809 139.92 15.9847 139.577 16.203C139.25 16.4141 138.888 16.5663 138.509 16.6526C138.12 16.7451 137.723 16.792 137.324 16.7924C136.69 16.7927 136.06 16.6905 135.46 16.4899C134.891 16.312 134.371 16.0072 133.939 15.599L135.374 14.0948C135.614 14.3514 135.9 14.5618 136.216 14.7153C136.545 14.8797 136.909 14.9645 137.276 14.9629C137.491 14.9618 137.702 14.9115 137.893 14.8158C137.991 14.7701 138.072 14.696 138.127 14.6033C138.181 14.5106 138.206 14.4036 138.197 14.2967C138.197 14.0591 138.072 13.8834 137.823 13.7694C137.445 13.6157 137.053 13.4964 136.653 13.413C136.378 13.3494 136.107 13.2667 135.842 13.1654C135.579 13.0661 135.334 12.9247 135.117 12.7468C134.9 12.5668 134.723 12.3452 134.595 12.0953C134.452 11.806 134.383 11.4869 134.392 11.165C134.379 10.7493 134.481 10.3381 134.689 9.97695C134.881 9.65753 135.141 9.38469 135.453 9.17826C135.77 8.96907 136.121 8.81459 136.49 8.72135C136.858 8.62434 137.238 8.57489 137.619 8.57422C138.2 8.57471 138.776 8.66726 139.328 8.84837C139.854 9.01122 140.336 9.28915 140.739 9.66172L139.334 11.1037Z" fill="white"/>
<path d="M139.334 11.1037C139.117 10.9011 138.868 10.7337 138.599 10.6075C138.322 10.4738 138.018 10.4048 137.71 10.4056C137.481 10.4034 137.255 10.4511 137.047 10.5454C136.952 10.5843 136.872 10.6515 136.818 10.7376C136.764 10.8238 136.737 10.9246 136.744 11.0261C136.744 11.2424 136.855 11.3974 137.078 11.4912C137.431 11.6214 137.794 11.7249 138.162 11.801C138.462 11.8659 138.757 11.9539 139.044 12.0642C139.332 12.1737 139.602 12.3252 139.846 12.5138C140.084 12.6991 140.281 12.9316 140.424 13.1965C140.577 13.4933 140.653 13.8234 140.645 14.1569C140.663 14.561 140.573 14.9628 140.386 15.3218C140.198 15.6809 139.92 15.9847 139.577 16.203C139.25 16.4141 138.888 16.5663 138.509 16.6526C138.12 16.7451 137.723 16.792 137.324 16.7924C136.69 16.7927 136.06 16.6905 135.46 16.4899C134.891 16.312 134.371 16.0072 133.939 15.599L135.374 14.0948C135.614 14.3514 135.9 14.5618 136.216 14.7153C136.545 14.8797 136.909 14.9645 137.276 14.9629C137.491 14.9618 137.702 14.9115 137.893 14.8158C137.991 14.7701 138.072 14.696 138.127 14.6033C138.181 14.5106 138.206 14.4036 138.197 14.2967C138.197 14.0591 138.072 13.8834 137.823 13.7694C137.445 13.6157 137.053 13.4964 136.653 13.413C136.378 13.3494 136.107 13.2667 135.842 13.1654C135.579 13.0661 135.334 12.9247 135.117 12.7468C134.9 12.5668 134.723 12.3452 134.595 12.0953C134.452 11.806 134.383 11.4869 134.392 11.165C134.379 10.7493 134.481 10.3381 134.689 9.97695C134.881 9.65753 135.141 9.38469 135.453 9.17826C135.77 8.96907 136.121 8.81459 136.49 8.72135C136.858 8.62434 137.238 8.57489 137.619 8.57422C138.2 8.57471 138.776 8.66726 139.328 8.84837C139.854 9.01122 140.336 9.28915 140.739 9.66172L139.334 11.1037Z" fill="black"/>
</svg>
