<svg width="878" height="164" viewBox="0 0 878 164" fill="none" xmlns="http://www.w3.org/2000/svg">
<path fill-rule="evenodd" clip-rule="evenodd" d="M2.75 0.815994L0 1.133V81.674V162.215L33.75 161.732C69.694 161.218 74.788 160.602 88.812 155.074C108.649 147.255 124.187 128.996 130.147 106.5C133.426 94.125 133.901 67.807 131.077 55C127.424 38.438 119.827 25.602 108.339 16.586C96.956 7.652 82.084 2.31401 66 1.38901C55.241 0.771008 6.947 0.333994 2.75 0.815994ZM274 81.021V162.041L294.25 161.771L314.5 161.5L314.756 80.75L315.012 0H294.506H274V81.021ZM463 13.5V27H483.5H504V13.5V0H483.5H463V13.5ZM552.5 7.547C542.6 9.387 534.388 10.916 534.25 10.946C534.112 10.976 534 17.75 534 26V41H527H520V57V73H526.925H533.849L534.227 104.25C534.58 133.446 534.753 135.948 536.863 142.316C539.8 151.182 545.965 157.744 554.5 161.09C559.726 163.139 562.177 163.439 573.5 163.414C586.475 163.386 593.528 162.184 602.351 158.498L606 156.973V141.987C606 133.744 605.847 127 605.66 127C605.473 127 601.801 127.9 597.5 129C588.245 131.367 583.889 131.511 580.145 129.575C575.358 127.1 575 124.898 575 97.953V73H588.025H601.051L600.775 57.25L600.5 41.5L587.75 41.22L575 40.94V22.47V4L572.75 4.101C571.513 4.157 562.4 5.708 552.5 7.547ZM645.75 7.25999L628 10.297V25.648V41H621H614V57V73H620.937H627.875L628.199 105.25C628.506 135.688 628.646 137.801 630.707 142.858C631.907 145.804 633.927 149.755 635.195 151.637C643.534 164.018 668.465 167.602 692.25 159.838L699 157.635V142.211C699 127.93 698.87 126.836 697.25 127.462C692.235 129.398 681.964 131.123 678.033 130.689C674.823 130.335 672.923 129.45 671.283 127.543C669.033 124.926 669 124.519 669 98.944V73H681.5H694V57V41H681.5H669V22.5V4L666.25 4.112C664.737 4.173 655.513 5.58999 645.75 7.25999ZM66.774 37.526C81.647 41.942 88.965 55.785 88.965 79.5C88.965 97.58 84.712 110.563 76.388 117.889C70.436 123.128 64.542 125.084 52.75 125.732L43 126.267V81.134V36H52.318C57.76 36 63.775 36.635 66.774 37.526ZM192.477 39.922C168.549 43.754 154.062 56.659 147.839 79.686C145.017 90.13 144.739 112.317 147.309 122C152.816 142.753 166.133 156.081 187 161.724C195.672 164.07 222.193 164.049 232.636 161.688C243.158 159.31 251.291 155.498 250.594 153.272C250.288 152.297 248.875 146.333 247.453 140.017C246.031 133.702 244.743 128.41 244.59 128.257C244.437 128.104 242.329 128.683 239.906 129.545C232.154 132.3 222.103 134 213.56 134C197.707 134 189.473 128.429 186.588 115.75L185.962 113H222.636H259.311L258.634 97.313C258.262 88.683 257.255 78.898 256.395 75.563C251.788 57.694 238.388 44.969 220.1 41.1C212.759 39.546 198.595 38.942 192.477 39.922ZM377.87 40.071C348.975 44.316 332.7 63.664 330.403 96.5C328.859 118.574 336.719 139.61 350.939 151.459C361.499 160.258 371.875 163.476 389.5 163.417C400.993 163.378 403.415 163.057 410.391 160.646C424.88 155.64 434.104 147.663 440.548 134.57C449.805 115.761 449.472 86.09 439.797 67.686C428.93 47.016 404.562 36.15 377.87 40.071ZM756 39.936C731.657 43.469 716.091 57.67 710.416 81.528C708.135 91.112 708.106 112.153 710.359 121.4C714.064 136.602 723.598 149.781 735.516 156.178C752.075 165.065 785.384 166.44 805.13 159.053C814.626 155.5 814.336 156.384 810.873 141.508C809.21 134.362 807.751 128.418 807.632 128.298C807.512 128.179 803.834 129.236 799.457 130.647C789.819 133.756 771.718 135.02 765.416 133.025C756.809 130.3 751.97 125.274 750.149 117.168L749.213 113H785.748H822.284L821.719 97.25C821.094 79.828 819.67 72.914 814.844 63.858C809.096 53.074 797.341 44.438 784 41.197C777.702 39.667 762.556 38.985 756 39.936ZM463.467 42.229C463.2 42.928 463.098 70.05 463.241 102.5L463.5 161.5L483.758 161.771L504.016 162.041L503.758 101.771L503.5 41.5L483.727 41.229C468.453 41.019 463.843 41.247 463.467 42.229ZM213.01 70.25C214.828 71.488 217.175 73.66 218.224 75.077C220.231 77.788 222.228 84.822 221.38 86.195C220.702 87.292 188.256 87.223 187.576 86.123C186.507 84.394 190.008 75.368 192.726 72.843C196.961 68.911 199.052 68.063 204.602 68.03C208.283 68.008 210.625 68.627 213.01 70.25ZM776.016 69.849C780.031 71.981 783.815 78.074 784.221 83.061L784.5 86.5L768.076 86.776C759.042 86.927 751.328 86.702 750.934 86.276C749.842 85.095 752.441 76.281 754.596 73.856C759.901 67.887 769.083 66.17 776.016 69.849ZM396.614 72.234C402.303 74.826 406 86.22 406 101.161C406 116.446 402.954 127.018 397.525 130.575C394.12 132.807 387.915 133.457 383.606 132.035C375.732 129.436 371.976 119.528 371.932 101.235C371.902 88.782 373.731 80.113 377.338 75.617C381.39 70.566 389.738 69.101 396.614 72.234Z" fill="black"/>
<path fill-rule="evenodd" clip-rule="evenodd" d="M2.75 0.815994L0 1.133V81.674V162.215L33.75 161.732C69.694 161.218 74.788 160.602 88.812 155.074C108.649 147.255 124.187 128.996 130.147 106.5C133.426 94.125 133.901 67.807 131.077 55C127.424 38.438 119.827 25.602 108.339 16.586C96.956 7.652 82.084 2.31401 66 1.38901C55.241 0.771008 6.947 0.333994 2.75 0.815994ZM274 81.021V162.041L294.25 161.771L314.5 161.5L314.756 80.75L315.012 0H294.506H274V81.021ZM463 13.5V27H483.5H504V13.5V0H483.5H463V13.5ZM552.5 7.547C542.6 9.387 534.388 10.916 534.25 10.946C534.112 10.976 534 17.75 534 26V41H527H520V57V73H526.925H533.849L534.227 104.25C534.58 133.446 534.753 135.948 536.863 142.316C539.8 151.182 545.965 157.744 554.5 161.09C559.726 163.139 562.177 163.439 573.5 163.414C586.475 163.386 593.528 162.184 602.351 158.498L606 156.973V141.987C606 133.744 605.847 127 605.66 127C605.473 127 601.801 127.9 597.5 129C588.245 131.367 583.889 131.511 580.145 129.575C575.358 127.1 575 124.898 575 97.953V73H588.025H601.051L600.775 57.25L600.5 41.5L587.75 41.22L575 40.94V22.47V4L572.75 4.101C571.513 4.157 562.4 5.708 552.5 7.547ZM645.75 7.25999L628 10.297V25.648V41H621H614V57V73H620.937H627.875L628.199 105.25C628.506 135.688 628.646 137.801 630.707 142.858C631.907 145.804 633.927 149.755 635.195 151.637C643.534 164.018 668.465 167.602 692.25 159.838L699 157.635V142.211C699 127.93 698.87 126.836 697.25 127.462C692.235 129.398 681.964 131.123 678.033 130.689C674.823 130.335 672.923 129.45 671.283 127.543C669.033 124.926 669 124.519 669 98.944V73H681.5H694V57V41H681.5H669V22.5V4L666.25 4.112C664.737 4.173 655.513 5.58999 645.75 7.25999ZM66.774 37.526C81.647 41.942 88.965 55.785 88.965 79.5C88.965 97.58 84.712 110.563 76.388 117.889C70.436 123.128 64.542 125.084 52.75 125.732L43 126.267V81.134V36H52.318C57.76 36 63.775 36.635 66.774 37.526ZM192.477 39.922C168.549 43.754 154.062 56.659 147.839 79.686C145.017 90.13 144.739 112.317 147.309 122C152.816 142.753 166.133 156.081 187 161.724C195.672 164.07 222.193 164.049 232.636 161.688C243.158 159.31 251.291 155.498 250.594 153.272C250.288 152.297 248.875 146.333 247.453 140.017C246.031 133.702 244.743 128.41 244.59 128.257C244.437 128.104 242.329 128.683 239.906 129.545C232.154 132.3 222.103 134 213.56 134C197.707 134 189.473 128.429 186.588 115.75L185.962 113H222.636H259.311L258.634 97.313C258.262 88.683 257.255 78.898 256.395 75.563C251.788 57.694 238.388 44.969 220.1 41.1C212.759 39.546 198.595 38.942 192.477 39.922ZM377.87 40.071C348.975 44.316 332.7 63.664 330.403 96.5C328.859 118.574 336.719 139.61 350.939 151.459C361.499 160.258 371.875 163.476 389.5 163.417C400.993 163.378 403.415 163.057 410.391 160.646C424.88 155.64 434.104 147.663 440.548 134.57C449.805 115.761 449.472 86.09 439.797 67.686C428.93 47.016 404.562 36.15 377.87 40.071ZM756 39.936C731.657 43.469 716.091 57.67 710.416 81.528C708.135 91.112 708.106 112.153 710.359 121.4C714.064 136.602 723.598 149.781 735.516 156.178C752.075 165.065 785.384 166.44 805.13 159.053C814.626 155.5 814.336 156.384 810.873 141.508C809.21 134.362 807.751 128.418 807.632 128.298C807.512 128.179 803.834 129.236 799.457 130.647C789.819 133.756 771.718 135.02 765.416 133.025C756.809 130.3 751.97 125.274 750.149 117.168L749.213 113H785.748H822.284L821.719 97.25C821.094 79.828 819.67 72.914 814.844 63.858C809.096 53.074 797.341 44.438 784 41.197C777.702 39.667 762.556 38.985 756 39.936ZM463.467 42.229C463.2 42.928 463.098 70.05 463.241 102.5L463.5 161.5L483.758 161.771L504.016 162.041L503.758 101.771L503.5 41.5L483.727 41.229C468.453 41.019 463.843 41.247 463.467 42.229ZM213.01 70.25C214.828 71.488 217.175 73.66 218.224 75.077C220.231 77.788 222.228 84.822 221.38 86.195C220.702 87.292 188.256 87.223 187.576 86.123C186.507 84.394 190.008 75.368 192.726 72.843C196.961 68.911 199.052 68.063 204.602 68.03C208.283 68.008 210.625 68.627 213.01 70.25ZM776.016 69.849C780.031 71.981 783.815 78.074 784.221 83.061L784.5 86.5L768.076 86.776C759.042 86.927 751.328 86.702 750.934 86.276C749.842 85.095 752.441 76.281 754.596 73.856C759.901 67.887 769.083 66.17 776.016 69.849ZM396.614 72.234C402.303 74.826 406 86.22 406 101.161C406 116.446 402.954 127.018 397.525 130.575C394.12 132.807 387.915 133.457 383.606 132.035C375.732 129.436 371.976 119.528 371.932 101.235C371.902 88.782 373.731 80.113 377.338 75.617C381.39 70.566 389.738 69.101 396.614 72.234Z" fill="#7B7B7B"/>
<circle cx="855" cy="141" r="23" fill="#86BC26"/>
<circle cx="855" cy="141" r="23" fill="#9B9B9B"/>
</svg>
