<svg width="37" height="38" viewBox="0 0 37 38" fill="none" xmlns="http://www.w3.org/2000/svg">
<g clip-path="url(#clip0_194_668)">
<path fill-rule="evenodd" clip-rule="evenodd" d="M35.2157 6.26141V0L1.65039 12.1367L35.2157 6.26141Z" fill="white"/>
<path fill-rule="evenodd" clip-rule="evenodd" d="M35.2157 6.26141V0L1.65039 12.1367L35.2157 6.26141Z" fill="black"/>
<path fill-rule="evenodd" clip-rule="evenodd" d="M6.74359 29.8475H15.2339V33.7187H1.65039V16.8945H11.2796L13.5329 20.7658H6.74848V23.5421H12.8877V27.0712H6.74848L6.74359 29.8475ZM24.2716 16.8945L21.3878 22.3837L18.5137 16.8945H12.8828L18.8118 27.0712V33.7187H23.8953V27.0712L29.8243 16.8945H24.2716Z" fill="white"/>
<path fill-rule="evenodd" clip-rule="evenodd" d="M6.74359 29.8475H15.2339V33.7187H1.65039V16.8945H11.2796L13.5329 20.7658H6.74848V23.5421H12.8877V27.0712H6.74848L6.74359 29.8475ZM24.2716 16.8945L21.3878 22.3837L18.5137 16.8945H12.8828L18.8118 27.0712V33.7187H23.8953V27.0712L29.8243 16.8945H24.2716Z" fill="black"/>
</g>
<defs>
<clipPath id="clip0_194_668">
<rect width="33.5653" height="33.7184" fill="white" transform="translate(1.65039)"/>
</clipPath>
</defs>
</svg>
