<svg width="84" height="39" viewBox="0 0 84 39" fill="none" xmlns="http://www.w3.org/2000/svg">
<path d="M54.1515 0.749023L66.4051 19.7632C66.4051 19.7632 56.5741 18.4359 53.7298 13.0519C50.8855 7.66777 54.1515 0.749023 54.1515 0.749023Z" fill="#777777"/>
<path d="M63.4948 1.4375L66.397 19.7631C66.397 19.7631 59.4681 15.499 59.1043 10.5132C58.7405 5.52734 63.4948 1.4375 63.4948 1.4375Z" fill="#777777"/>
<path d="M59.1047 10.5135C59.4685 15.4911 66.4056 19.7634 66.4056 19.7634L59.2039 8.58887C59.0917 9.22383 59.0584 9.87034 59.1047 10.5135Z" fill="#EDEFF0"/>
<path d="M0.812988 16.1221H10.2306V18.9842H4.0707V22.1946H9.36239V24.9074H4.0707V31.0215H0.812988V16.1221Z" fill="#111111"/>
<path d="M11.4709 20.9H14.5302V22.2522H14.5716C14.8935 21.7745 15.3308 21.3863 15.8426 21.1237C16.3543 20.8612 16.924 20.7329 17.4985 20.7507C17.7218 20.7469 17.9445 20.7748 18.16 20.8336V23.7704C17.8888 23.7074 17.6115 23.674 17.3332 23.6708C16.8174 23.646 16.3029 23.7408 15.8297 23.9481C15.3565 24.1552 14.9372 24.4692 14.6046 24.8654V30.996H11.4709V20.9Z" fill="#111111"/>
<path d="M22.1869 26.7813C22.35 27.4187 22.7365 27.9757 23.2755 28.3505C23.8146 28.7252 24.4702 28.8927 25.1222 28.8222C26.3462 28.7909 27.5351 28.4049 28.5452 27.7105V30.3237C27.3664 30.9559 26.0451 31.273 24.7087 31.2445C21.4014 31.2445 18.9871 29.1706 18.9871 26.0016C18.9703 25.2982 19.0954 24.5986 19.3549 23.9449C19.6144 23.2913 20.003 22.6971 20.4974 22.1981C20.9917 21.6989 21.5816 21.3053 22.2313 21.0409C22.8812 20.7764 23.5776 20.6465 24.2788 20.659C26.7593 20.659 29.0992 22.3181 29.0992 25.7029C29.1004 26.0607 29.0783 26.4181 29.033 26.7731L22.1869 26.7813ZM26.2218 24.807C26.1665 24.3201 25.9327 23.8714 25.566 23.5478C25.1992 23.2244 24.7257 23.0492 24.2374 23.0565C23.7407 23.0535 23.2591 23.228 22.8789 23.5487C22.4986 23.8694 22.2445 24.3155 22.1621 24.807H26.2218Z" fill="#111111"/>
<path d="M33.696 26.7813C33.8589 27.4171 34.2442 27.9729 34.7814 28.3476C35.3187 28.7222 35.9723 28.8906 36.623 28.8222C37.8473 28.7924 39.0365 28.4062 40.0461 27.7105V30.3237C38.8702 30.9559 37.5516 31.2731 36.2178 31.2445C32.9105 31.2445 30.4961 29.1706 30.4961 26.0016C30.4793 25.2982 30.6045 24.5986 30.864 23.9449C31.1235 23.2913 31.5121 22.6971 32.0065 22.1981C32.5008 21.6989 33.0906 21.3053 33.7404 21.0409C34.3903 20.7764 35.0867 20.6465 35.7879 20.659C38.2684 20.659 40.6 22.3181 40.6 25.7029C40.6037 26.0605 40.5844 26.418 40.5421 26.7731L33.696 26.7813ZM37.7309 24.807C37.6755 24.3201 37.4418 23.8714 37.0751 23.5478C36.7083 23.2244 36.2348 23.0492 35.7465 23.0565C35.2493 23.0519 34.7669 23.2258 34.3863 23.5468C34.0057 23.8678 33.7521 24.3147 33.6712 24.807H37.7309Z" fill="#111111"/>
<path d="M49.3399 30.4652C48.5837 30.9789 47.6901 31.2507 46.7768 31.245C46.128 31.2417 45.4866 31.1057 44.8919 30.8451C44.2973 30.5846 43.7619 30.2052 43.3184 29.7299C42.875 29.2547 42.5328 28.6937 42.3128 28.0813C42.0929 27.4688 41.9997 26.8177 42.0391 26.168C42.0086 25.4497 42.1245 24.7329 42.3797 24.0612C42.635 23.3894 43.0241 22.7771 43.5233 22.2614C44.0225 21.7458 44.6213 21.3377 45.2831 21.0623C45.9448 20.7869 46.6557 20.6498 47.3721 20.6595C48.0248 20.6523 48.6719 20.7794 49.2738 21.0328V15.3086H52.3992V31.0708H49.3399V30.5399V30.4652ZM49.3399 23.6543C48.8273 23.3949 48.2605 23.2613 47.6863 23.2644C47.3336 23.2564 46.9833 23.3241 46.6586 23.4629C46.3341 23.6015 46.0427 23.8081 45.804 24.0688C45.5654 24.3295 45.3849 24.6382 45.2746 24.9745C45.1643 25.3107 45.1267 25.6667 45.1644 26.0186C45.1644 27.5202 46.0326 28.6982 47.5705 28.6982C48.1858 28.6921 48.787 28.514 49.3069 28.1839L49.3399 23.6543Z" fill="#111111"/>
<path d="M59.923 20.6584C60.9518 20.7231 61.9392 21.0884 62.7637 21.7092C63.5881 22.3299 64.2136 23.1792 64.5629 24.1522C64.9124 25.1251 64.9705 26.1794 64.7301 27.1852C64.4898 28.1909 63.9615 29.1041 63.2102 29.8123C62.459 30.5205 61.5177 30.9927 60.5024 31.1709C59.487 31.349 58.4418 31.2253 57.4957 30.8148C56.5495 30.4045 55.7437 29.7253 55.1775 28.8611C54.6112 27.9969 54.3093 26.9854 54.3088 25.9511C54.3168 25.2293 54.47 24.5166 54.7594 23.8557C55.0486 23.1947 55.468 22.5992 55.9923 22.1049C56.5167 21.6107 57.1351 21.2277 57.8105 20.9791C58.486 20.7306 59.2046 20.6214 59.923 20.6584ZM59.923 28.5394C60.4393 28.561 60.9501 28.427 61.3899 28.1547C61.8295 27.8824 62.1779 27.4843 62.3901 27.0117C62.6024 26.539 62.6687 26.0134 62.5806 25.5026C62.4926 24.9918 62.2541 24.5191 61.896 24.1454C61.5379 23.7716 61.0765 23.5141 60.5712 23.4058C60.0659 23.2974 59.5399 23.3434 59.0609 23.5376C58.5818 23.7319 58.1716 24.0656 57.8832 24.4957C57.5948 24.9258 57.4413 25.4327 57.4426 25.9511C57.4292 26.2862 57.4834 26.6206 57.6021 26.9341C57.7208 27.2477 57.9014 27.5339 58.1331 27.7757C58.3647 28.0174 58.6427 28.2097 58.9503 28.341C59.2579 28.4722 59.5888 28.5397 59.923 28.5394Z" fill="#111111"/>
<path d="M80.4696 25.1803C80.5022 24.9362 80.4863 24.688 80.4224 24.4502C80.3585 24.2123 80.2481 23.9896 80.0971 23.795C79.9606 23.6508 79.795 23.5377 79.6106 23.4633C79.4269 23.3889 79.2287 23.3549 79.0312 23.3636C78.2935 23.3995 77.5913 23.6929 77.0468 24.1931C77.0548 24.3451 77.0548 24.4974 77.0468 24.6494V31.0041H73.9457V25.197C74.0074 24.6989 73.8738 24.1965 73.5739 23.795C73.4367 23.6517 73.2702 23.5392 73.0864 23.4648C72.9026 23.3905 72.7052 23.356 72.5071 23.3636C71.7749 23.4125 71.0797 23.7043 70.531 24.1931V31.029H67.4221V20.8997H70.5062V21.8039C71.36 21.0675 72.4479 20.6615 73.5739 20.6591C74.1432 20.6318 74.711 20.75 75.2228 21.0023C75.7347 21.2548 76.174 21.6333 76.5008 22.1026C77.4621 21.1888 78.732 20.6732 80.0564 20.6591C80.5385 20.6381 81.0199 20.718 81.4694 20.8937C81.9196 21.0694 82.3276 21.3369 82.6689 21.6795C83.0174 22.0881 83.2795 22.5636 83.4385 23.0771C83.5975 23.5906 83.6513 24.1312 83.5946 24.666V31.0207H80.4696V25.1803Z" fill="#111111"/>
</svg>
