<svg width="67" height="46" viewBox="0 0 67 46" fill="none" xmlns="http://www.w3.org/2000/svg">
<path d="M8.19644 35.0722L9.19831 35.1914C9.65153 35.2392 9.69924 35.6208 9.69924 35.8594V37.0282H5.09544V35.8594C5.09544 35.6208 5.14315 35.2392 5.59637 35.1914L6.59823 35.0722V34.0703H0.634766V35.0722L1.63663 35.1914C2.08985 35.2392 2.13756 35.6208 2.13756 35.8594V39.7237C2.13756 39.9622 2.08985 40.3439 1.63663 40.3916L0.634766 40.5109V41.5127H6.59823V40.5109L5.59637 40.3916C5.14315 40.3439 5.09544 39.9622 5.09544 39.7237V38.5548H9.67538V39.7237C9.67538 39.9622 9.62767 40.3439 9.17445 40.3916L8.17259 40.5109V41.5127H14.1361V40.5109L13.1342 40.3916C12.681 40.3439 12.6333 39.9622 12.6333 39.7237V35.8594C12.6333 35.6208 12.681 35.2392 13.1342 35.1914L14.1361 35.0722V34.0703H8.17259V35.0722H8.19644Z" fill="black"/>
<path d="M47.9131 34.0703H40.5661V35.0722L41.4487 35.1676C41.7588 35.2153 41.9735 35.3346 41.9735 35.7639V39.6998C41.9735 39.9384 41.9258 40.32 41.4726 40.3677L40.4707 40.487V41.4889H47.9131C50.5847 41.4889 52.7793 40.4154 52.7793 37.7677C52.7793 35.1199 50.5847 34.0703 47.9131 34.0703ZM47.3645 40.0815H44.8598V35.5015H47.3645C48.8434 35.5015 49.3443 36.1933 49.3443 37.7915C49.3443 39.3659 48.8434 40.0815 47.3645 40.0815Z" fill="black"/>
<path d="M65.2789 40.3916C64.8018 40.3439 64.6587 40.0338 64.5156 39.8191L61.0806 34.5712C60.8421 34.1896 60.6512 34.0703 60.2934 34.0703H54.6639V35.0722L56.0236 35.2153C56.2144 35.2392 56.4768 35.5015 56.2621 35.8355L53.7098 39.9622C53.6143 40.1292 53.4712 40.32 53.185 40.3677L52.1831 40.487V41.4889H56.93V40.487L56.119 40.4154C55.7612 40.3677 55.5704 40.1292 55.7612 39.8429L56.1428 39.2227H60.7228L61.0567 39.7237C61.3668 40.1769 60.9852 40.3677 60.6512 40.3916L59.8163 40.487V41.4889H66.2569V40.487L65.2789 40.3916ZM56.93 37.9108L58.3374 35.6208L59.8402 37.9108H56.93Z" fill="black"/>
<path d="M35.2469 35.0726L36.2488 35.1919C36.702 35.2396 36.7497 35.6212 36.7497 35.8598V39.581L32.8139 34.3808C32.6469 34.1423 32.4799 34.0707 32.0505 34.0707H26.9458V35.0726L27.9477 35.1919C28.4009 35.2396 28.4486 35.6212 28.4486 35.8598V39.7241C28.4486 39.9626 28.4009 40.3443 27.9477 40.392L26.9458 40.5113V41.5131H31.7166V40.5113L30.7147 40.392C30.2615 40.3443 30.2138 39.9626 30.2138 39.7241V36.0029L34.1497 41.1792C34.3405 41.4177 34.4836 41.4893 34.913 41.4893H34.9607H38.5388V35.8359C38.5388 35.5974 38.5865 35.2157 39.0397 35.168L40.0416 35.0487V34.0469H35.2947L35.2469 35.0726Z" fill="black"/>
<path d="M20.529 33.8086C15.6867 33.8086 14.4463 35.9316 14.4463 37.7683C14.4463 39.6051 15.6867 41.7519 20.529 41.7519C25.3714 41.7519 26.6118 39.6289 26.6118 37.7922C26.6118 35.9316 25.3714 33.8086 20.529 33.8086ZM20.529 40.3446C18.6446 40.3446 17.8812 39.5574 17.8812 37.7922C17.8812 36.027 18.6684 35.2398 20.529 35.2398C22.4135 35.2398 23.1768 36.027 23.1768 37.7922C23.1768 39.5574 22.4135 40.3446 20.529 40.3446Z" fill="black"/>
<path d="M41.6872 2.70312C40.8762 6.35277 40.5422 8.04639 39.8743 10.6703C39.2302 13.1988 38.7293 15.5604 37.8706 16.7053C37.0118 17.8742 35.843 18.1127 35.0558 18.2081C34.6503 18.2558 34.3402 18.2797 33.4576 18.2797C32.575 18.2797 32.2649 18.2558 31.8594 18.2081C31.0722 18.1127 29.9034 17.8742 29.0446 16.7053C28.1859 15.5604 27.685 13.1988 27.0648 10.6703C26.3969 8.02254 26.0629 6.35277 25.2519 2.70312C25.2519 2.70312 24.4408 2.72698 24.083 2.75083C23.5821 2.77469 23.2004 2.82239 22.7949 2.8701C22.7949 2.8701 23.272 10.3841 23.4867 13.5805C23.7014 16.92 24.1069 22.5734 24.4647 26.8432C24.4647 26.8432 25.1565 26.9625 26.3014 27.0102C27.4941 27.0818 28.0428 27.0818 28.0428 27.0818C28.5437 25.1973 29.1401 22.5972 29.8318 21.4761C30.4043 20.5697 31.263 20.4743 31.764 20.4027C32.5273 20.3073 33.1952 20.2834 33.4815 20.2834C33.7916 20.2834 34.4356 20.2834 35.1989 20.4027C35.6999 20.4743 36.5586 20.5697 37.1311 21.4761C37.8229 22.5972 38.4431 25.1973 38.9201 27.0818C38.9201 27.0818 39.4449 27.0818 40.6376 27.0102C41.7826 26.9387 42.4744 26.8432 42.4744 26.8432C42.8322 22.5734 43.2377 16.9439 43.4524 13.5805C43.6671 10.4079 44.1441 2.8701 44.1441 2.8701C43.7386 2.82239 43.3331 2.77469 42.856 2.75083C42.4982 2.72698 41.6872 2.70312 41.6872 2.70312Z" fill="black"/>
<path d="M51.1574 7.13986C50.6803 2.36909 47.4839 1.36723 44.693 0.890148C43.2856 0.651609 40.781 0.460778 39.1828 0.389217C37.7754 0.293801 34.4835 0.246094 33.4817 0.246094C32.4798 0.246094 29.188 0.293801 27.7806 0.389217C26.1824 0.460778 23.6777 0.651609 22.2704 0.890148C19.4795 1.36723 16.283 2.36909 15.806 7.13986C15.6628 8.45182 15.639 10.1454 15.6628 11.9583C15.7106 14.9878 15.9729 17.0154 16.1161 18.4466C16.2115 19.4246 16.617 22.3348 17.1418 23.8376C17.8574 25.9129 18.5015 26.5092 19.2648 27.1294C20.6483 28.2505 22.9383 28.6083 23.4154 28.7038C25.9916 29.157 31.1917 29.2524 33.5055 29.2524C35.7955 29.2524 41.0195 29.1808 43.5957 28.7038C44.0728 28.6083 46.3628 28.2744 47.7463 27.1294C48.5096 26.5092 49.1537 25.9129 49.8693 23.8376C50.3941 22.3348 50.7996 19.4008 50.895 18.4466C51.0381 17.0392 51.3005 14.9878 51.3482 11.9583C51.3244 10.1216 51.2767 8.42797 51.1574 7.13986ZM49.3922 15.1548C49.106 18.9714 48.772 21.2614 48.2949 22.9073C47.8656 24.3624 47.3408 25.3165 46.5775 26.0083C45.2893 27.1771 43.5242 27.4156 42.4746 27.5826C40.2323 27.9166 36.4396 28.0359 33.4817 28.0359C30.4999 28.0359 26.731 27.9166 24.4888 27.5826C23.4392 27.4156 21.674 27.1771 20.3859 26.0083C19.6226 25.3165 19.0978 24.3385 18.6684 22.9073C18.1914 21.2614 17.8335 18.9714 17.5712 15.1548C17.4042 12.8648 17.428 9.14359 17.6904 7.13986C18.0482 4.13427 19.5272 2.63148 22.6997 2.08284C24.1787 1.82045 26.1824 1.62962 28.0669 1.5342C29.5935 1.43879 32.0743 1.39108 33.4817 1.39108C34.8652 1.36723 37.3699 1.43879 38.8727 1.5342C40.7571 1.62962 42.7608 1.82045 44.2398 2.08284C47.4123 2.65533 48.8913 4.15813 49.2729 7.13986C49.5353 9.11973 49.5592 12.8409 49.3922 15.1548Z" fill="black"/>
</svg>
