<svg width="990" height="175" viewBox="0 0 990 175" fill="none" xmlns="http://www.w3.org/2000/svg">
<path fill-rule="evenodd" clip-rule="evenodd" d="M0 66.9113V133.823H24.9467H49.8934V100.56V67.298H64.9774H80.0614V100.56V133.823H105.008H129.955V66.9113V0H105.008H80.0614V26.107V52.214H64.9774H49.8934V26.107V0H24.9467H0V66.9113ZM896.92 66.9113V133.823H915.678H934.437V66.9113V0H915.678H896.92V66.9113ZM952.228 66.9113V133.823H970.987H989.745V66.9113V0H970.987H952.228V66.9113ZM191.319 36.9389C167.403 40.8298 149.518 56.8386 144.786 78.5933C143.81 83.0755 143.81 93.2917 144.786 97.774C148.492 114.807 160.565 128.772 177.496 135.608C185.196 138.717 191.957 140.005 200.599 140.009C210.229 140.012 218.489 138.135 226.841 134.044C241.568 126.829 251.53 115.149 255.463 100.489C262.995 72.4084 243.909 44.1576 212.917 37.5117C207.822 36.4191 196.379 36.1154 191.319 36.9389ZM438.454 36.9404C414.608 40.8186 396.66 57.0196 391.952 78.9166C390.977 83.4534 390.977 92.9138 391.952 97.4506C396.282 117.586 411.632 132.929 432.785 138.263C438.674 139.748 442.743 140.133 450.007 139.893C457.118 139.658 461.162 138.966 467.148 136.961C478.906 133.022 489.422 125.161 495.89 115.476C497.135 113.613 497.317 113.122 496.861 112.867C495.915 112.338 485.747 108.681 485.267 108.698C485.019 108.706 484.033 109.77 483.076 111.062C475.594 121.158 460.392 128.219 447.575 127.552C441.833 127.254 437.874 124.581 435.219 119.213L433.763 116.268L433.638 105.9L433.513 95.5323H468.704H503.895L504.175 92.5452C504.525 88.8171 504.158 82.5267 503.368 78.7031C499.135 58.2082 482.4 42.2891 460.063 37.5098C454.96 36.4179 443.521 36.1166 438.454 36.9404ZM819.373 36.5989C815.111 37.2398 811.166 38.1189 807.977 39.1377C788.45 45.3751 773.899 61.2397 770.658 79.8236C769.891 84.2239 769.891 92.1434 770.658 96.5437C773.808 114.607 787.666 130.178 806.392 136.696C813.795 139.273 817.153 139.789 826.528 139.789C833.667 139.789 835.399 139.668 838.768 138.934C850.625 136.35 860.054 131.298 868.114 123.21C870.459 120.857 873.28 117.609 874.382 115.993L876.386 113.054L870.501 110.868C867.264 109.666 864.415 108.682 864.17 108.682C863.924 108.682 863.107 109.523 862.353 110.55C860.483 113.098 855.417 117.878 852.459 119.887C842.795 126.45 827.615 129.589 821.075 126.378C816.732 124.245 813.358 119.515 812.58 114.469C812.368 113.094 812.243 108.315 812.303 103.848L812.411 95.7256L847.607 95.5323L882.803 95.3389L882.91 89.3814C883.033 82.5515 882.454 78.3461 880.651 72.9642C875.461 57.471 862.244 44.7756 845.589 39.2831C839.418 37.2483 835.792 36.6886 827.882 36.5517C823.84 36.4817 820.011 36.503 819.373 36.5989ZM335.33 39.0205C328.723 40.4678 322.046 43.5453 316.726 47.5948C315.365 48.6306 314.14 49.4849 314.005 49.4927C313.869 49.5004 313.086 47.5921 312.265 45.2521L310.771 40.9976H290.368H269.966V87.4101V133.823H290.247H310.529L310.67 103.945C310.797 77.0427 310.878 73.8383 311.48 71.7772C312.951 66.7357 315.987 62.6931 319.951 60.4967C321.837 59.452 322.284 59.3692 326.047 59.3692C330.835 59.3692 332.89 60.1377 335.144 62.7705C337.931 66.0263 337.819 64.5059 337.947 101.044L338.062 133.823H358.355H378.648L378.645 101.624C378.643 81.0369 378.496 68.5187 378.237 66.9113C377.133 60.0693 373.772 53.2602 369.172 48.5447C364.913 44.1792 360.41 41.5167 354.058 39.6099C349.358 38.1994 340.369 37.9162 335.33 39.0205ZM499.707 41.1713C499.707 41.2699 511.918 62.2004 526.842 87.6831C541.766 113.166 554.042 134.364 554.122 134.789C554.347 135.991 547.229 153.039 545.783 154.762C544.116 156.747 541.975 157.409 540.107 156.518C538.514 155.758 537.846 154.389 537.302 150.766C536.003 142.103 529.092 136.143 520.346 136.143C511.749 136.143 504.707 142.323 503.463 150.958C502.063 160.673 510.076 170.7 521.968 174.117C524.575 174.866 525.948 175 531.036 175C536.093 175 537.502 174.864 540.047 174.132C549.788 171.331 557.765 163.989 562.505 153.463C563.202 151.914 573.939 126.051 586.364 95.989L608.955 41.331L609.567 42.8081C609.904 43.6207 617.305 64.4297 626.012 89.0508L641.845 133.816L656.736 133.819L671.626 133.821L680.674 107.34C685.651 92.7746 689.841 80.9317 689.987 81.0218C690.133 81.1119 694.416 93.0291 699.504 107.505L708.756 133.824L722.851 133.727L736.946 133.629L752.716 87.6035C761.39 62.2893 768.493 41.4471 768.5 41.2877C768.507 41.1284 764.898 40.9976 760.481 40.9976H752.449L743.366 67.8538C738.371 82.625 734.183 94.5905 734.06 94.4443C733.937 94.2981 729.692 82.4304 724.627 68.0716C719.561 53.7127 715.335 41.7449 715.234 41.4765C715.091 41.0928 712.053 41.01 701.093 41.0897L687.134 41.191L682.262 55.5015C679.582 63.3723 675.328 75.8704 672.81 83.2751C670.291 90.6802 668.104 96.5978 667.95 96.4253C667.744 96.196 654.537 59.2339 648.524 42.0613L648.151 40.9976H620.79H593.429L583.63 64.6138C577.412 79.5992 573.718 88.0452 573.522 87.7234C573.352 87.4449 567.145 76.8609 559.728 64.2039L546.242 41.191L522.974 41.0912C510.177 41.0363 499.707 41.0723 499.707 41.1713ZM206.246 50.9593C208.963 52.1792 212.039 55.2795 213.352 58.1231L214.464 60.5295V88.1836V115.838L213.342 118.267C211.891 121.41 208.595 124.535 205.517 125.686C203.255 126.533 199.297 126.797 197.04 126.252C193.282 125.345 189.36 122.076 187.649 118.428L186.617 116.224L186.495 89.3439C186.41 70.5175 186.504 61.8627 186.807 60.4588C187.342 57.9865 189.653 54.3343 191.641 52.8208C192.46 52.1974 194.101 51.2776 195.288 50.7771C197.133 49.999 197.951 49.886 200.927 50.0005C203.423 50.0964 204.928 50.3679 206.246 50.9593ZM453.774 51.1767C456.602 52.5656 459.133 55.0958 460.521 57.9235L461.61 60.1428L461.734 71.2624L461.857 82.3821H447.713H433.569V72.1671C433.569 63.2114 433.66 61.6605 434.305 59.587C435.535 55.6377 438.736 52.2387 442.735 50.6371C445.628 49.4784 450.834 49.7332 453.774 51.1767ZM833.034 51.4296C837.113 53.6122 839.725 57.2385 840.463 61.7425C840.667 62.9898 840.835 68.1443 840.836 73.1963L840.838 82.3821H826.528H812.217L812.22 73.1963C812.223 60.6931 812.682 58.3895 815.926 54.5992C818.756 51.2935 822.297 49.8377 827.108 50.0024C830.201 50.1084 830.862 50.2678 833.034 51.4296Z" fill="#7B7B7B"/>
</svg>
