<svg width="132" height="39" viewBox="0 0 132 39" fill="none" xmlns="http://www.w3.org/2000/svg">
<path d="M47.0158 3.89258H50.0162V9.29464H55.5492V3.89258H58.5496V17.5437H55.5492V12.0637H50.016V17.5437H47.0156L47.0158 3.89258Z" fill="#111111"/>
<path d="M60.2432 10.7579V10.7188C60.2432 6.83785 63.3016 3.65918 67.5099 3.65918C71.7182 3.65918 74.7381 6.79897 74.7381 10.6797V10.7188C74.7381 14.5998 71.6789 17.7785 67.4707 17.7785C63.263 17.7785 60.2432 14.6387 60.2432 10.7579ZM71.601 10.7579V10.7188C71.601 8.37865 69.8872 6.42843 67.4713 6.42843C65.0553 6.42843 63.3801 8.33953 63.3801 10.6797V10.7188C63.3801 13.059 65.0946 15.0092 67.5105 15.0092C69.9258 15.0092 71.601 13.0981 71.601 10.7579Z" fill="#111111"/>
<path d="M75.9253 10.7579V10.7188C75.9253 6.83785 78.9844 3.65918 83.1927 3.65918C87.401 3.65918 90.4203 6.79897 90.4203 10.6797V10.7188C90.4203 14.5998 87.3617 17.7785 83.1535 17.7785C78.9458 17.7785 75.9253 14.6387 75.9253 10.7579ZM87.2839 10.7579V10.7188C87.2839 8.37865 85.5694 6.42843 83.1535 6.42843C80.7375 6.42843 79.0623 8.33953 79.0623 10.6797V10.7188C79.0623 13.059 80.7768 15.0092 83.1927 15.0092C85.608 15.0092 87.2839 13.0981 87.2839 10.7579Z" fill="#111111"/>
<path d="M92.212 3.89258H97.784C101.038 3.89258 103.005 5.82312 103.005 8.61204V8.6511C103.005 11.8104 100.55 13.4486 97.4915 13.4486H95.2123V17.5439H92.2114L92.212 3.89258ZM97.589 10.7769C99.0895 10.7769 99.9663 9.87961 99.9663 8.70942V8.67054C99.9663 7.32479 99.0306 6.60308 97.5308 6.60308H95.2123V10.7766L97.589 10.7769Z" fill="#111111"/>
<path d="M104.738 3.89258H110.31C113.563 3.89258 115.531 5.82312 115.531 8.61204V8.6511C115.531 11.8104 113.076 13.4486 110.018 13.4486H107.738V17.5439H104.738V3.89258ZM110.115 10.7769C111.615 10.7769 112.492 9.87961 112.492 8.70942V8.67054C112.492 7.32479 111.557 6.60308 110.057 6.60308H107.739V10.7766L110.115 10.7769Z" fill="#111111"/>
<path d="M46.7793 27.3092L47.2824 27.2014C47.4981 27.1563 47.5339 27.1294 47.5339 26.9854V22.5959C47.5339 22.452 47.4981 22.4249 47.2824 22.38L46.7793 22.2719V22.002H49.2863V22.2719L48.8461 22.38C48.6304 22.4249 48.5946 22.452 48.5946 22.5959V24.4758H51.4162V22.5959C51.4162 22.452 51.3803 22.4249 51.1646 22.38L50.7244 22.2719V22.002H53.2315V22.2719L52.7284 22.38C52.5127 22.4249 52.4768 22.452 52.4768 22.5959V26.9854C52.4768 27.1294 52.5127 27.1563 52.7284 27.2014L53.2315 27.3092V27.5791H50.7244V27.3092L51.1646 27.2014C51.3803 27.1563 51.4162 27.1294 51.4162 26.9854V24.9346H48.5946V26.9856C48.5946 27.1296 48.6304 27.1565 48.8461 27.2015L49.2863 27.3094V27.5794H46.7793V27.3092Z" fill="#111111"/>
<path d="M55.6666 23.2617C56.6191 23.2617 57.2752 23.7833 57.2752 24.6918C57.2752 24.8178 57.2393 25.0607 57.2033 25.1775L54.5345 25.1056V25.2854C54.5345 26.4189 55.0826 27.0575 55.9901 27.0575C56.4753 27.0575 56.8706 26.8236 57.1314 26.5088L57.2391 26.5898C56.9246 27.2194 56.4124 27.6873 55.5139 27.6873C54.3456 27.6873 53.6089 26.7877 53.6089 25.4746C53.6089 24.1882 54.4176 23.2617 55.6666 23.2617ZM54.5704 24.8448L56.3225 24.7638C56.3583 24.6918 56.3673 24.5658 56.3673 24.4849C56.3673 23.8732 56.0797 23.5945 55.6304 23.5945C55.0015 23.5945 54.6331 24.1611 54.5704 24.8448Z" fill="#111111"/>
<path d="M59.5036 25.3574L60.3394 25.1414V24.6558C60.3394 23.9633 60.0069 23.6754 59.4409 23.6754C59.2341 23.6754 58.9378 23.7385 58.7759 23.8373L58.8477 23.9813C58.9017 24.0983 58.9645 24.2333 58.9645 24.3952C58.9645 24.6921 58.7759 24.8806 58.4703 24.8806C58.2006 24.8806 58.012 24.6918 58.012 24.3952C58.012 24.0985 58.2996 23.8376 58.524 23.7025L58.7037 23.5947C59.0182 23.4146 59.4046 23.2617 59.8 23.2617C60.7435 23.2617 61.2645 23.6216 61.2645 24.5569V26.329C61.2645 26.5628 61.2645 26.9315 61.3364 27.1384C61.4982 27.2104 61.741 27.2463 61.9565 27.2463V27.4443C61.6779 27.6062 61.3096 27.6873 61.0759 27.6873C60.6447 27.6873 60.4019 27.4353 60.3481 27.0306H60.3392C60.1055 27.3904 59.6652 27.6873 59.0542 27.6873C58.3084 27.6873 57.8682 27.2823 57.8682 26.6077C57.8682 25.8343 58.6947 25.5643 59.5036 25.3574ZM60.3392 26.7516V25.4385L59.7012 25.6186C59.27 25.7536 58.7488 25.9695 58.7488 26.491C58.7488 26.9496 59.0274 27.1566 59.4586 27.1566C59.8539 27.1563 60.1864 26.9494 60.3392 26.7516Z" fill="#111111"/>
<path d="M62.2621 27.3446L62.5675 27.2726C62.7741 27.2275 62.8373 27.1917 62.8373 27.0477V22.1454C62.8373 21.9566 62.7833 21.8757 62.4865 21.7497L62.2529 21.6418V21.4438L63.5112 21.21H63.8435C63.7712 21.8573 63.7712 22.2802 63.7712 22.5051V27.0475C63.7712 27.1915 63.8343 27.2273 64.041 27.2724L64.3733 27.3444V27.5783H62.2621V27.3446Z" fill="#111111"/>
<path d="M65.3263 23.9261H64.8413V23.6113C65.0032 23.5662 65.2816 23.4494 65.4257 23.3055C65.5692 23.0985 65.8028 22.5319 65.8837 22.2529H66.2614V23.4763H67.5105V23.9259H66.2614V26.3455C66.2614 26.9211 66.4227 27.146 66.9439 27.146C67.2407 27.146 67.4829 27.0111 67.627 26.8671L67.7349 26.9842C67.4921 27.3889 67.061 27.6858 66.4767 27.6858C65.7488 27.6858 65.3263 27.2718 65.3263 26.5702V23.9261Z" fill="#111111"/>
<path d="M70.8528 27.3448L71.1581 27.2728C71.3648 27.2278 71.4279 27.1919 71.4279 27.0479V24.961C71.4279 24.3854 71.2838 23.8097 70.5652 23.8097C70.071 23.8097 69.7116 24.1424 69.5676 24.448V27.0477C69.5676 27.1917 69.6307 27.2276 69.8374 27.2727L70.1697 27.3446V27.5785H68.0585V27.3446L68.3639 27.2727C68.5705 27.2276 68.6337 27.1917 68.6337 27.0477V22.1454C68.6337 21.9566 68.5797 21.8757 68.2829 21.7497L68.0493 21.6418V21.4438L69.3076 21.21H69.6399C69.5682 21.8573 69.5682 22.2802 69.5682 22.5051V24.151C69.8196 23.6565 70.269 23.2606 70.9699 23.2606C71.9044 23.2606 72.3624 23.8362 72.3624 24.7266V27.0473C72.3624 27.1912 72.4256 27.2272 72.6322 27.2722L72.9646 27.3442V27.578H70.8534L70.8528 27.3448Z" fill="#111111"/>
<path d="M75.5102 23.2617C76.2295 23.2617 76.912 23.6756 76.912 24.3501C76.912 24.701 76.6691 24.9078 76.3908 24.9078C76.1124 24.9078 75.8879 24.7098 75.8879 24.3862C75.8879 24.2333 75.9241 24.0622 76.1394 23.8465C76.059 23.7387 75.8879 23.5947 75.5016 23.5947C74.7916 23.5947 74.3335 24.2961 74.3335 25.2587C74.3335 26.4281 74.9265 27.0577 75.7616 27.0577C76.1755 27.0577 76.5434 26.8597 76.8047 26.5269L76.9034 26.635C76.6428 27.2196 76.1308 27.6875 75.2772 27.6875C74.1539 27.6875 73.3721 26.842 73.3721 25.4567C73.3721 24.1073 74.3066 23.2617 75.5102 23.2617Z" fill="#111111"/>
<path d="M79.1494 25.3574L79.9852 25.1414V24.6558C79.9852 23.9633 79.6528 23.6754 79.0868 23.6754C78.8802 23.6754 78.5834 23.7385 78.4215 23.8373L78.4939 23.9813C78.5479 24.0983 78.6104 24.2333 78.6104 24.3952C78.6104 24.6921 78.4215 24.8806 78.1162 24.8806C77.8464 24.8806 77.6581 24.6918 77.6581 24.3952C77.6581 24.0985 77.9457 23.8376 78.1701 23.7025L78.3498 23.5947C78.665 23.4146 79.0507 23.2617 79.4468 23.2617C80.3899 23.2617 80.9111 23.6216 80.9111 24.5569V26.329C80.9111 26.5628 80.9111 26.9315 80.9828 27.1384C81.1447 27.2104 81.3875 27.2463 81.6027 27.2463V27.4443C81.3243 27.6062 80.9558 27.6873 80.7222 27.6873C80.2911 27.6873 80.0483 27.4353 79.9944 27.0306H79.9858C79.7515 27.3904 79.3119 27.6873 78.7005 27.6873C77.9549 27.6873 77.5146 27.2823 77.5146 26.6077C77.514 25.8343 78.3406 25.5643 79.1494 25.3574ZM79.9852 26.7516V25.4385L79.3474 25.6186C78.9158 25.7536 78.3946 25.9695 78.3946 26.491C78.3946 26.9496 78.6736 27.1566 79.1046 27.1566C79.5001 27.1563 79.8325 26.9494 79.9852 26.7516Z" fill="#111111"/>
<path d="M81.9536 27.3458L82.259 27.2738C82.4656 27.2288 82.5288 27.1929 82.5288 27.0489V24.1974C82.5288 24.0084 82.4834 23.9095 82.1603 23.8016L81.9806 23.7295V23.4956L83.2027 23.2617H83.4633V24.2423C83.6699 23.7025 84.101 23.2617 84.5596 23.2617C84.8828 23.2617 85.0986 23.4597 85.0986 23.7564C85.0986 24.1432 84.811 24.332 84.6853 24.386C84.6044 24.2239 84.4425 24.062 84.2003 24.062C83.8765 24.062 83.6251 24.2689 83.4633 24.4937V26.9763C83.4633 27.1651 83.508 27.183 83.787 27.2371L84.2898 27.3451V27.579H81.9536V27.3458Z" fill="#111111"/>
<path d="M87.4485 23.2617C88.4007 23.2617 89.0568 23.7833 89.0568 24.6918C89.0568 24.8178 89.0213 25.0607 88.9851 25.1775L86.3159 25.1056V25.2854C86.3159 26.4189 86.8641 27.0575 87.7722 27.0575C88.2572 27.0575 88.6527 26.8236 88.9133 26.5088L89.0213 26.5898C88.7067 27.2194 88.1947 27.6873 87.2958 27.6873C86.1277 27.6873 85.3906 26.7877 85.3906 25.4746C85.3906 24.1882 86.1994 23.2617 87.4485 23.2617ZM86.3527 24.8448L88.1046 24.7638C88.1407 24.6918 88.1493 24.5658 88.1493 24.4849C88.1493 23.8732 87.8617 23.5945 87.4129 23.5945C86.7838 23.5945 86.4152 24.1611 86.3527 24.8448Z" fill="#111111"/>
<path d="M94.1971 23.2617C95.4725 23.2617 96.3536 24.1253 96.3536 25.4562C96.3536 26.7245 95.4725 27.6871 94.1971 27.6871C92.9211 27.6871 92.0405 26.8144 92.0405 25.4562C92.0405 24.1882 92.9211 23.2617 94.1971 23.2617ZM94.1971 27.3812C94.8532 27.3812 95.3204 26.7877 95.3204 25.4562C95.3204 24.4309 94.9249 23.5674 94.1971 23.5674C93.541 23.5674 93.0737 24.1881 93.0737 25.4562C93.0737 26.4908 93.4692 27.3812 94.1971 27.3812Z" fill="#111111"/>
<path d="M96.9129 23.4767H97.4255V23.2249C97.4255 21.9026 98.1711 21.21 99.2945 21.21C99.7617 21.21 100.112 21.4078 100.112 21.8215C100.112 22.1273 99.8697 22.289 99.6452 22.289C99.357 22.289 99.0339 22.0372 99.1774 21.4977C98.7825 21.4977 98.36 21.7946 98.36 22.7928V23.4763H99.4024V23.9259H98.36V27.011C98.36 27.137 98.3962 27.191 98.639 27.2359L99.2135 27.344V27.5778H96.8412V27.344L97.1379 27.272C97.3268 27.2269 97.4255 27.191 97.4255 27.0471V23.9259H96.77L96.9129 23.4767Z" fill="#111111"/>
<path d="M105.072 21.8584C106.816 21.8584 108.037 23.0008 108.037 24.7368C108.037 26.482 106.824 27.6872 105.072 27.6872C103.338 27.6872 102.107 26.4818 102.107 24.7368C102.106 23.028 103.338 21.8584 105.072 21.8584ZM105.072 27.3545C106.366 27.3545 106.843 26.0683 106.843 24.7368C106.843 23.4327 106.375 22.1914 105.072 22.1914C103.787 22.1914 103.302 23.4148 103.302 24.7368C103.302 26.1221 103.778 27.3545 105.072 27.3545Z" fill="#111111"/>
<path d="M108.568 27.3458L108.873 27.2738C109.08 27.2288 109.143 27.1929 109.143 27.0489V24.1974C109.143 24.0084 109.089 23.9364 108.775 23.8016L108.595 23.7295V23.4956L109.817 23.2617H110.078V24.1521C110.329 23.6577 110.778 23.2617 111.479 23.2617C112.414 23.2617 112.872 23.8373 112.872 24.7277V27.0485C112.872 27.1925 112.935 27.2283 113.142 27.2734L113.474 27.3454V27.5792H111.363V27.3454L111.668 27.2734C111.875 27.2283 111.938 27.1925 111.938 27.0485V24.9616C111.938 24.386 111.794 23.8102 111.075 23.8102C110.581 23.8102 110.222 24.1429 110.078 24.4486V27.0483C110.078 27.1922 110.141 27.2281 110.347 27.2731L110.68 27.3451V27.579H108.568L108.568 27.3458Z" fill="#111111"/>
<path d="M114.256 23.9261H113.771V23.6113C113.932 23.5662 114.211 23.4494 114.354 23.3055C114.498 23.0985 114.732 22.5319 114.812 22.2529H115.19V23.4763H116.439V23.9259H115.19V26.3455C115.19 26.9211 115.352 27.146 115.873 27.146C116.169 27.146 116.412 27.0111 116.556 26.8671L116.663 26.9842C116.421 27.3889 115.99 27.6858 115.406 27.6858C114.678 27.6858 114.256 27.2718 114.256 26.5702V23.9261Z" fill="#111111"/>
<path d="M118.613 25.3574L119.449 25.1414V24.6558C119.449 23.9633 119.117 23.6754 118.551 23.6754C118.343 23.6754 118.047 23.7385 117.885 23.8373L117.958 23.9813C118.012 24.0983 118.074 24.2333 118.074 24.3952C118.074 24.6921 117.885 24.8806 117.58 24.8806C117.311 24.8806 117.122 24.6918 117.122 24.3952C117.122 24.0985 117.41 23.8376 117.634 23.7025L117.814 23.5947C118.129 23.4146 118.515 23.2617 118.91 23.2617C119.854 23.2617 120.375 23.6216 120.375 24.5569V26.329C120.375 26.5628 120.375 26.9315 120.447 27.1384C120.609 27.2104 120.851 27.2463 121.067 27.2463V27.4443C120.788 27.6062 120.42 27.6873 120.186 27.6873C119.755 27.6873 119.512 27.4353 119.458 27.0306H119.45C119.216 27.3904 118.775 27.6873 118.164 27.6873C117.419 27.6873 116.979 27.2823 116.979 26.6077C116.978 25.8343 117.804 25.5643 118.613 25.3574ZM119.449 26.7516V25.4385L118.811 25.6186C118.38 25.7536 117.858 25.9695 117.858 26.491C117.858 26.9496 118.137 27.1566 118.568 27.1566C118.964 27.1563 119.296 26.9494 119.449 26.7516Z" fill="#111111"/>
<path d="M121.418 27.3458L121.723 27.2738C121.93 27.2288 121.993 27.1929 121.993 27.0489V24.1974C121.993 24.0084 121.948 23.9095 121.625 23.8016L121.444 23.7295V23.4956L122.667 23.2617H122.928V24.2423C123.134 23.7025 123.565 23.2617 124.024 23.2617C124.347 23.2617 124.563 23.4597 124.563 23.7564C124.563 24.1432 124.275 24.332 124.15 24.386C124.069 24.2239 123.907 24.062 123.664 24.062C123.34 24.062 123.09 24.2689 122.928 24.4937V26.9763C122.928 27.1651 122.972 27.183 123.251 27.2371L123.754 27.3451V27.579H121.418V27.3458Z" fill="#111111"/>
<path d="M125.021 27.3451L125.326 27.2732C125.533 27.2281 125.596 27.1922 125.596 27.0483V24.1968C125.596 24.0078 125.551 23.9089 125.228 23.801L125.057 23.7288V23.495L126.27 23.2611H126.531V27.0479C126.531 27.1918 126.594 27.2277 126.8 27.2728L127.133 27.3447V27.5786H125.022L125.021 27.3451ZM125.542 21.7773C125.542 21.4356 125.776 21.2109 126.099 21.2109C126.422 21.2109 126.656 21.4359 126.656 21.7773C126.656 22.1462 126.422 22.3621 126.099 22.3621C125.776 22.3621 125.542 22.146 125.542 21.7773Z" fill="#111111"/>
<path d="M129.801 23.2617C131.077 23.2617 131.958 24.1253 131.958 25.4562C131.958 26.7245 131.077 27.6871 129.801 27.6871C128.525 27.6871 127.645 26.8144 127.645 25.4562C127.645 24.1882 128.525 23.2617 129.801 23.2617ZM129.801 27.3812C130.457 27.3812 130.924 26.7877 130.924 25.4562C130.924 24.4309 130.529 23.5674 129.801 23.5674C129.145 23.5674 128.678 24.1881 128.678 25.4562C128.678 26.4908 129.073 27.3812 129.801 27.3812Z" fill="#111111"/>
<path d="M46.7793 35.6373L47.2824 35.5294C47.4981 35.4844 47.5339 35.4575 47.5339 35.3135V30.924C47.5339 30.7801 47.4981 30.7529 47.2824 30.7081L46.7793 30.6V30.3301H49.4122C50.778 30.3301 51.5418 30.8068 51.5418 31.8593C51.5418 32.9567 50.7511 33.7031 49.448 33.7031C49.0348 33.7031 48.8101 33.6762 48.5946 33.6132V35.3043C48.5946 35.4483 48.6394 35.4842 48.8641 35.5292L49.4842 35.6371V35.9071H46.7793V35.6373ZM48.5944 30.7352V33.3437H48.9179C49.9962 33.3437 50.4993 32.8582 50.4993 31.8866C50.4993 31.1312 50.1667 30.6632 49.2234 30.6632H49.1335C48.9629 30.6632 48.7024 30.6993 48.5944 30.7352Z" fill="#111111"/>
<path d="M53.878 31.5908C54.8305 31.5908 55.4866 32.1124 55.4866 33.0209C55.4866 33.1469 55.4507 33.3898 55.4147 33.5066L52.7458 33.4347V33.6145C52.7458 34.748 53.294 35.3865 54.2015 35.3865C54.6867 35.3865 55.082 35.1527 55.3428 34.8379L55.4505 34.9188C55.136 35.5485 54.6237 36.0164 53.7252 36.0164C52.557 36.0164 51.8203 35.1168 51.8203 33.8037C51.8203 32.5173 52.6292 31.5908 53.878 31.5908ZM52.7819 33.1739L54.5341 33.0929C54.5702 33.0209 54.5791 32.8949 54.5791 32.814C54.5791 32.2023 54.2915 31.9236 53.8422 31.9236C53.2132 31.9236 52.8449 32.4902 52.7819 33.1739Z" fill="#111111"/>
<path d="M55.9448 35.6739L56.2504 35.6019C56.4571 35.5569 56.5199 35.5209 56.5199 35.377V32.5255C56.5199 32.3365 56.4661 32.2645 56.1513 32.1297L55.9717 32.0576V31.8237L57.1939 31.5898H57.4544V32.4802C57.7059 31.9858 58.1553 31.5898 58.8562 31.5898C59.7908 31.5898 60.2491 32.1654 60.2491 33.0558V35.3766C60.2491 35.5205 60.312 35.5564 60.5186 35.6015L60.8512 35.6734V35.9073H58.7395V35.6734L59.0451 35.6015C59.2516 35.5564 59.3146 35.5205 59.3146 35.3766V33.2897C59.3146 32.7141 59.1707 32.1383 58.4519 32.1383C57.9577 32.1383 57.5982 32.471 57.4544 32.7767V35.3764C57.4544 35.5203 57.5173 35.5562 57.7241 35.6013L58.0566 35.6733V35.9071H55.9448V35.6739Z" fill="#111111"/>
<path d="M61.4536 34.4324H61.7142C61.8129 34.8102 61.9299 35.1878 62.0737 35.4038C62.2895 35.6018 62.6396 35.6917 62.9094 35.6917C63.3675 35.6917 63.6643 35.4307 63.6643 34.999C63.6643 34.5763 63.4214 34.3786 63.0259 34.2257L62.352 33.9646C61.8938 33.7938 61.4895 33.4431 61.4895 32.8312C61.4895 31.9858 62.2803 31.5898 63.1069 31.5898C63.5024 31.5898 63.8887 31.6887 64.0775 31.7968L64.221 31.5898H64.4007V32.957H64.1848C64.1401 32.7231 64.0322 32.3453 63.9604 32.2014C63.7808 32.0215 63.5024 31.8865 63.1155 31.8865C62.7206 31.8865 62.3698 32.1114 62.3698 32.5612C62.3698 32.957 62.5679 33.1187 62.9542 33.2716L63.5919 33.5146C64.0953 33.7126 64.5895 34.0183 64.5895 34.693C64.5895 35.6284 63.79 36.0152 62.9094 36.0152C62.433 36.0152 62.1003 35.9072 61.8487 35.7722L61.705 36.0152H61.4892L61.4536 34.4324Z" fill="#111111"/>
<path d="M65.2725 35.6733L65.5778 35.6013C65.7851 35.5562 65.8476 35.5203 65.8476 35.3764V32.5249C65.8476 32.3358 65.8029 32.237 65.4791 32.1291L65.3086 32.0569V31.823L66.5215 31.5892H66.7821V35.3759C66.7821 35.5199 66.8453 35.5558 67.0519 35.6008L67.3849 35.6728V35.9067H65.2731L65.2725 35.6733ZM65.7937 30.1055C65.7937 29.7637 66.0273 29.5391 66.3504 29.5391C66.6742 29.5391 66.9078 29.7639 66.9078 30.1055C66.9078 30.4743 66.6742 30.6902 66.3504 30.6902C66.0273 30.6902 65.7937 30.4741 65.7937 30.1055Z" fill="#111111"/>
<path d="M70.0711 31.5908C71.3465 31.5908 72.227 32.4543 72.227 33.7853C72.227 35.0536 71.3465 36.0162 70.0711 36.0162C68.7951 36.0162 67.9146 35.1435 67.9146 33.7853C67.9146 32.5173 68.7945 31.5908 70.0711 31.5908ZM70.0711 35.7103C70.7266 35.7103 71.1938 35.1168 71.1938 33.7853C71.1938 32.76 70.7983 31.8964 70.0711 31.8964C69.415 31.8964 68.9471 32.5171 68.9471 33.7853C68.9471 34.82 69.3433 35.7103 70.0711 35.7103Z" fill="#111111"/>
<path d="M72.7124 35.6739L73.0178 35.6019C73.2244 35.5569 73.2876 35.5209 73.2876 35.377V32.5255C73.2876 32.3365 73.2336 32.2645 72.919 32.1297L72.7394 32.0576V31.8237L73.9615 31.5898H74.2221V32.4802C74.4741 31.9858 74.9229 31.5898 75.6238 31.5898C76.5583 31.5898 77.0169 32.1654 77.0169 33.0558V35.3766C77.0169 35.5205 77.0795 35.5564 77.2861 35.6015L77.6191 35.6734V35.9073H75.5073V35.6734L75.8126 35.6015C76.0199 35.5564 76.0824 35.5205 76.0824 35.3766V33.2897C76.0824 32.7141 75.939 32.1383 75.2197 32.1383C74.7255 32.1383 74.3662 32.471 74.2227 32.7767V35.3764C74.2227 35.5203 74.2852 35.5562 74.4919 35.6013L74.8248 35.6733V35.9071H72.713L72.7124 35.6739Z" fill="#111111"/>
<path d="M80.4048 35.6373L80.9076 35.5294C81.1234 35.4844 81.159 35.4575 81.159 35.3135V30.924C81.159 30.7801 81.1234 30.7529 80.9076 30.7081L80.4048 30.6V30.3301H83.0372C84.4033 30.3301 85.1667 30.8068 85.1667 31.8593C85.1667 32.9567 84.3763 33.7031 83.0733 33.7031C82.6601 33.7031 82.4356 33.6762 82.2198 33.6132V35.3043C82.2198 35.4483 82.2646 35.4842 82.4896 35.5292L83.1089 35.6371V35.9071H80.4048V35.6373ZM82.2192 30.7352V33.3437H82.5429C83.6215 33.3437 84.1243 32.8582 84.1243 31.8866C84.1243 31.1312 83.792 30.6632 82.8489 30.6632H82.7588C82.5877 30.6632 82.3271 30.6993 82.2192 30.7352Z" fill="#111111"/>
<path d="M85.4233 35.6738L85.7286 35.6018C85.9359 35.5567 85.9984 35.5208 85.9984 35.3769V30.4746C85.9984 30.2858 85.9445 30.2048 85.6483 30.0788L85.4141 29.9709V29.773L86.6723 29.5391H87.0047C86.9329 30.1865 86.9329 30.6094 86.9329 30.8342V35.3767C86.9329 35.5206 86.9955 35.5565 87.2027 35.6016L87.5351 35.6735V35.9074H85.4239V35.6738H85.4233Z" fill="#111111"/>
<path d="M89.6559 33.6865L90.4916 33.4705V32.9848C90.4916 32.2924 90.1593 32.0045 89.5927 32.0045C89.3867 32.0045 89.0899 32.0675 88.928 32.1664L88.9998 32.3104C89.0537 32.4274 89.1169 32.5624 89.1169 32.7243C89.1169 33.0212 88.928 33.2097 88.6227 33.2097C88.3529 33.2097 88.1646 33.0209 88.1646 32.7243C88.1646 32.4276 88.4522 32.1667 88.6766 32.0316L88.8563 31.9238C89.1708 31.7437 89.5571 31.5908 89.9526 31.5908C90.8963 31.5908 91.4175 31.9507 91.4175 32.886V34.658C91.4175 34.8919 91.4175 35.2605 91.4893 35.4675C91.6511 35.5395 91.894 35.5754 92.1092 35.5754V35.7733C91.8308 35.9353 91.4623 36.0164 91.2287 36.0164C90.7976 36.0164 90.5548 35.7644 90.5008 35.3597H90.4916C90.258 35.7195 89.8184 36.0164 89.207 36.0164C88.4614 36.0164 88.0205 35.6114 88.0205 34.9368C88.0205 34.1634 88.8471 33.8934 89.6559 33.6865ZM90.4916 35.0807V33.7676L89.8539 33.9477C89.4222 34.0827 88.901 34.2986 88.901 34.8201C88.901 35.2787 89.18 35.4857 89.6111 35.4857C90.0066 35.4854 90.3389 35.2785 90.4916 35.0807Z" fill="#111111"/>
<path d="M92.5044 35.6739L92.8098 35.6019C93.0164 35.5569 93.0796 35.5209 93.0796 35.377V32.5255C93.0796 32.3365 93.0256 32.2645 92.711 32.1297L92.5314 32.0576V31.8237L93.7534 31.5898H94.014V32.4802C94.2655 31.9858 94.7149 31.5898 95.4158 31.5898C96.3503 31.5898 96.8083 32.1654 96.8083 33.0558V35.3766C96.8083 35.5205 96.8715 35.5564 97.0781 35.6015L97.4105 35.6734V35.9073H95.2993V35.6734L95.6046 35.6015C95.8113 35.5564 95.8744 35.5205 95.8744 35.3766V33.2897C95.8744 32.7141 95.7303 32.1383 95.0117 32.1383C94.5175 32.1383 94.1581 32.471 94.014 32.7767V35.3764C94.014 35.5203 94.0772 35.5562 94.2838 35.6013L94.6162 35.6733V35.9071H92.505V35.6739H92.5044Z" fill="#111111"/>
<path d="M20.2546 0C9.53446 0 0.844238 8.69891 0.844238 19.4298C0.844238 28.2487 6.71375 35.6953 14.756 38.0691L14.7569 38.0678C17.7747 35.4246 18.3207 30.452 18.5434 28.7393C18.5972 28.326 18.9339 25.6922 18.9651 23.4412C18.9672 23.2847 18.9736 22.9451 18.9747 22.814C18.9766 22.623 18.9868 22.4413 18.9956 22.2561C19.3105 15.6404 23.9122 12.5649 25.9684 11.1532C26.2872 10.7648 26.3783 10.3473 26.3783 10.3469C23.8685 10.9116 22.0568 12.8596 21.8184 13.1262C22.9192 9.23286 26.5163 8.54745 28.7646 8.56689C28.9971 8.56879 29.2154 8.57842 29.4149 8.59276C29.4568 8.59571 29.5043 8.59724 29.5564 8.59724C29.921 8.59595 30.5063 8.51262 30.9134 8.29905L30.6042 9.72322C29.6389 14.671 24.6737 15.2111 23.0188 15.2656C23.0188 15.2656 22.861 15.2686 22.7199 15.2846C22.5475 15.304 22.5149 15.3417 22.4931 15.3647C22.4899 15.3681 22.4865 15.372 22.4837 15.3763C21.7589 16.4694 20.6097 18.726 20.6607 22.9329C20.6812 24.6182 20.9069 26.2383 21.3309 28.3247C21.5967 29.6327 22.6828 34.7217 25.7539 38.0678C33.7953 35.6941 39.6653 28.2485 39.6653 19.4298C39.665 8.69891 30.9746 0 20.2546 0ZM8.18748 21.1104L7.52494 20.579C7.65003 20.5434 7.97882 20.4419 8.32018 20.1615C8.79214 19.7736 11.0927 17.5208 13.7657 19.6923L14.4675 20.2851C14.4675 20.2851 13.7832 20.7544 13.6738 20.8311C12.6573 21.5438 10.3851 22.9382 8.18748 21.1104ZM13.5152 27.5144C13.3911 27.5642 12.6246 27.882 12.6246 27.882L12.5118 26.9694C12.155 23.5414 15.2975 22.8432 15.88 22.6591C16.3012 22.5262 16.5657 22.3058 16.6637 22.2204L16.7465 23.0664C17.0757 25.9079 14.6672 27.0514 13.5152 27.5144ZM16.2609 17.7011C14.5283 17.3589 10.8592 16.3982 10.5682 12.3391L10.4602 11.1346C10.6201 11.2279 11.0478 11.4658 11.6719 11.5401C12.5351 11.6428 17.1122 11.7868 17.5195 16.6733L17.6029 17.9789C17.6029 17.9787 16.4473 17.7378 16.2609 17.7011ZM19.7611 11.6004L19.2435 12.5139C19.2435 12.5139 18.5733 11.8434 18.4643 11.7367C17.451 10.7441 15.4088 8.4838 16.9967 5.62932L17.4536 4.77289C17.5199 4.90571 17.7028 5.25387 18.0892 5.57849C18.6237 6.02765 21.6345 8.13932 19.7611 11.6004ZM23.2117 21.2839C22.8549 17.8557 25.9972 17.1575 26.5799 16.9736C27.0011 16.8405 27.2657 16.6203 27.3638 16.5349L27.4466 17.3809C27.7756 20.2223 25.3671 21.3661 24.2152 21.8289C24.0912 21.8787 23.3246 22.1965 23.3246 22.1965L23.2117 21.2839ZM29.0144 27.6532C26.2729 28.4604 24.7381 26.2786 24.0867 25.221C24.0165 25.1071 23.5738 24.4051 23.5738 24.4051L24.4531 24.1385C27.7673 23.2044 28.9884 26.1857 29.2683 26.7293C29.4708 27.122 29.7326 27.3457 29.8333 27.4279L29.0144 27.6532ZM33.8371 19.8567C32.9374 22.5717 30.2718 22.5908 29.0321 22.5237C28.8988 22.5164 28.07 22.4803 28.07 22.4803L28.3525 21.6053C29.4747 18.3469 32.6178 19.0417 33.2235 19.1211C33.6613 19.1786 33.9942 19.0906 34.119 19.0547L33.8371 19.8567Z" fill="#111111"/>
</svg>
