<svg width="76" height="36" viewBox="0 0 76 36" fill="none" xmlns="http://www.w3.org/2000/svg">
<path d="M3.54225 0.504883V9.01635H8.62847V10.9482H1.24707V0.504883" fill="black"/>
<path fill-rule="evenodd" clip-rule="evenodd" d="M12.9966 3.17813C15.3767 3.17813 16.9116 4.76046 16.9116 7.17408C16.9116 9.57358 15.3767 11.1512 12.9966 11.1512C10.6305 11.1512 9.0957 9.57358 9.0957 7.17408C9.0957 4.76046 10.6305 3.17813 12.9966 3.17813ZM12.9966 9.58771C14.4133 9.58771 14.8384 8.37383 14.8384 7.17408C14.8384 5.96021 14.4133 4.74627 12.9966 4.74627C11.5939 4.74627 11.1689 5.96021 11.1689 7.17408C11.1689 8.37383 11.5939 9.58771 12.9966 9.58771ZM17.8939 0.5H19.9671V4.30699H19.9955C20.5102 3.53239 21.4453 3.17813 22.3803 3.17813C23.8868 3.17813 25.5067 4.39201 25.5067 7.1599C25.5067 9.93722 23.8868 11.1512 22.3803 11.1512C21.2705 11.1512 20.3496 10.8158 19.8962 9.97979H19.8632V10.9481H17.8939V0.5ZM21.6625 4.74158C20.4346 4.74158 19.8962 5.89407 19.8962 7.16939C19.8962 8.42578 20.4346 9.58302 21.6625 9.58302C22.8904 9.58302 23.4335 8.42578 23.4335 7.16939C23.4335 5.89407 22.8904 4.74158 21.6625 4.74158ZM26.5126 0.5H28.5905V10.9433H26.5126V0.5ZM29.7759 5.70515C29.8892 3.76382 31.6319 3.17813 33.3273 3.17813C34.829 3.17813 36.6425 3.51351 36.6425 5.32727V9.26183C36.6425 9.94672 36.7181 10.6363 36.907 10.9433H34.8007C34.7299 10.7119 34.6685 10.4615 34.6543 10.2112C33.9978 10.9008 33.0344 11.1464 32.1135 11.1464C30.6779 11.1464 29.5398 10.4332 29.5398 8.87925C29.5398 7.16939 30.8243 6.75844 32.1135 6.58365C33.3839 6.39474 34.5693 6.43724 34.5693 5.59176C34.5693 4.69907 33.9554 4.5668 33.2234 4.5668C32.4347 4.5668 31.9199 4.88799 31.8491 5.70515H29.7759ZM34.5693 7.24492C34.2198 7.55197 33.4878 7.56611 32.8456 7.6795C32.2033 7.81172 31.6177 8.03376 31.6177 8.79417C31.6177 9.56883 32.2174 9.75775 32.8881 9.75775C34.5126 9.75775 34.5693 8.47304 34.5693 8.01957V7.24492ZM46.3049 10.9433H44.1703L42.8244 5.87044H42.7961L41.5115 10.9433H39.3627L36.9636 3.38124H39.1596L40.5481 8.51555H40.5764L41.8326 3.38124H43.8492L45.1337 8.50136H45.1668L46.5552 3.38124H48.6898L46.3049 10.9433Z" fill="black"/>
<path fill-rule="evenodd" clip-rule="evenodd" d="M8.20318 16.1865C8.05677 15.1474 7.06505 14.3586 5.92217 14.3586C3.86313 14.3586 3.08863 16.1156 3.08863 17.9436C3.08863 19.6818 3.86313 21.4389 5.92217 21.4389C7.32479 21.4389 8.11816 20.4706 8.29289 19.0961H10.5125C10.2811 21.7034 8.4818 23.3707 5.92217 23.3707C2.69193 23.3707 0.793457 20.9571 0.793457 17.9436C0.793457 14.8404 2.69193 12.4268 5.92217 12.4268C8.21737 12.4268 10.1489 13.7729 10.4228 16.1865M15.1595 15.3552C17.5445 15.3552 19.0745 16.9328 19.0745 19.3464C19.0745 21.7459 17.5445 23.3235 15.1595 23.3235C12.7935 23.3235 11.2587 21.7459 11.2587 19.3464C11.2587 16.9328 12.7935 15.3552 15.1595 15.3552ZM15.1595 21.7601C16.5763 21.7601 17.0013 20.5462 17.0013 19.3464C17.0013 18.1326 16.5763 16.9186 15.1595 16.9186C13.7569 16.9186 13.3319 18.1326 13.3319 19.3464C13.3319 20.5462 13.7569 21.7601 15.1595 21.7601ZM20.1135 15.5583H22.0734V16.5833H22.1017C22.6401 15.8086 23.4335 15.3552 24.4111 15.3552C25.3603 15.3552 26.2103 15.7047 26.6165 16.6116C27.0557 15.9551 27.8444 15.3552 28.8975 15.3552C30.5032 15.3552 31.6602 16.1015 31.6602 18.0617V23.1204H29.587V18.8363C29.587 17.8255 29.4973 16.9942 28.3119 16.9942C27.1454 16.9942 26.9235 17.9578 26.9235 18.9072V23.1204H24.8503V18.8788C24.8503 18.0003 24.9069 16.9942 23.5941 16.9942C23.1832 16.9942 22.1914 17.254 22.1914 18.7324V23.1204H20.1135V15.5583ZM32.7889 15.5583H34.7629V16.5219H34.7913C35.2872 15.7189 36.1089 15.3552 37.0439 15.3552C39.41 15.3552 40.4773 17.2681 40.4773 19.422C40.4773 21.4389 39.3675 23.3235 37.1573 23.3235C36.2553 23.3235 35.3911 22.9314 34.8952 22.1852H34.8668V25.7843H32.7889V15.5583ZM38.4041 19.3606C38.4041 18.1609 37.9223 16.9186 36.5906 16.9186C35.2305 16.9186 34.7913 18.1326 34.7913 19.3606C34.7913 20.5887 35.2588 21.7601 36.6047 21.7601C37.9648 21.7601 38.4041 20.5887 38.4041 19.3606ZM41.266 17.8822C41.384 15.9362 43.1219 15.3505 44.8173 15.3505C46.3238 15.3505 48.1373 15.6906 48.1373 17.5043V21.4389C48.1373 22.1238 48.2081 22.8134 48.397 23.1204H46.2955C46.2199 22.8842 46.1632 22.6386 46.1491 22.3883C45.4879 23.0779 44.5245 23.3235 43.6036 23.3235C42.1727 23.3235 41.0298 22.6056 41.0298 21.0563C41.0298 19.3464 42.3191 18.9355 43.6036 18.7608C44.874 18.5718 46.0593 18.6143 46.0593 17.7641C46.0593 16.8714 45.4454 16.7439 44.7134 16.7439C43.9247 16.7439 43.4147 17.0651 43.3392 17.8822H41.266ZM46.0641 19.4173C45.7099 19.7243 44.9826 19.7385 44.3356 19.8565C43.6933 19.9888 43.1077 20.2108 43.1077 20.9713C43.1077 21.7459 43.7075 21.9348 44.3828 21.9348C46.0027 21.9348 46.0641 20.6453 46.0641 20.1919V19.4173ZM49.2707 15.5583H51.2447V16.6116H51.2873C51.8162 15.7614 52.7229 15.3505 53.5966 15.3505C55.8068 15.3505 56.3593 16.5974 56.3593 18.4679V23.1204H54.2861V18.8505C54.2861 17.6035 53.9224 16.9895 52.9543 16.9895C51.8303 16.9895 51.3486 17.6224 51.3486 19.1575V23.1204H49.2707V15.5583ZM57.3744 12.6771H59.4478V14.3869H57.3744V12.6771ZM57.3744 15.5583H59.4478V23.1204H57.3744V15.5583ZM62.4325 19.8471C62.489 21.1602 63.1312 21.7601 64.2883 21.7601C65.1198 21.7601 65.7903 21.25 65.9225 20.7824H67.7501C67.1644 22.5678 65.9225 23.3282 64.2131 23.3282C61.8327 23.3282 60.3545 21.6892 60.3545 19.3464C60.3545 17.0792 61.9175 15.3552 64.2131 15.3552C66.7868 15.3552 68.0288 17.5185 67.8824 19.8471H62.4325ZM65.8089 18.5293C65.6201 17.476 65.1668 16.9186 64.156 16.9186C62.8435 16.9186 62.4608 17.9436 62.4325 18.5293H65.8089ZM70.3521 20.6643C70.3662 21.5711 71.127 21.9348 71.9484 21.9348C72.5482 21.9348 73.3039 21.7034 73.3039 20.9713C73.3039 20.3431 72.4441 20.121 70.9518 19.7999C69.7523 19.5401 68.5579 19.115 68.5579 17.783C68.5579 15.8512 70.2198 15.3552 71.8444 15.3552C73.4973 15.3552 75.0184 15.9125 75.179 17.7689H73.2045C73.1479 16.9611 72.534 16.7439 71.7879 16.7439C71.3204 16.7439 70.6307 16.8336 70.6307 17.4477C70.6307 18.194 71.802 18.2932 72.9829 18.5718C74.1965 18.8505 75.3819 19.2897 75.3819 20.6926C75.3819 22.6811 73.6584 23.3282 71.9343 23.3282C70.1774 23.3282 68.468 22.6669 68.3832 20.6643H70.3521Z" fill="#777777"/>
<path fill-rule="evenodd" clip-rule="evenodd" d="M1.24707 24.8486H3.54224V33.3648H8.62847V35.2967H1.24707M9.38877 24.8486H11.462V26.5632H9.38877V24.8486ZM9.38877 27.7299H11.462V35.2919H9.38877V27.7299ZM12.5529 27.7299H14.508V28.7548H14.5364C15.0795 27.9802 15.8682 27.5268 16.8457 27.5268C17.7997 27.5268 18.645 27.8763 19.0559 28.7831C19.4951 28.1219 20.2838 27.5268 21.3369 27.5268C22.9426 27.5268 24.0996 28.2683 24.0996 30.2285V35.2919H22.0217V31.0078C22.0217 29.9971 21.932 29.161 20.7513 29.161C19.5801 29.161 19.3629 30.1293 19.3629 31.0787V35.2919H17.2849V31.0504C17.2849 30.1719 17.3464 29.161 16.0288 29.161C15.6179 29.161 14.6261 29.4255 14.6261 30.9039V35.2919H12.5529V27.7299ZM25.2047 24.8486H27.2826V26.5585H25.2047V24.8486ZM25.2047 27.7299H27.2826V35.2919H25.2047V27.7299ZM31.1835 27.7299H32.7042V29.1233H31.1835V32.8642C31.1835 33.5679 31.3582 33.7427 32.0619 33.7427C32.2791 33.7427 32.4869 33.7285 32.7042 33.686V35.3109C32.3547 35.3675 31.9013 35.3817 31.4905 35.3817C30.2201 35.3817 29.1103 35.0888 29.1103 33.5821V29.1233H27.8541V27.7299H29.1103V25.4626H31.1835V27.7299ZM35.0418 32.0187C35.0985 33.3318 35.7455 33.9316 36.8978 33.9316C37.729 33.9316 38.4043 33.4215 38.5365 32.9539H40.3641C39.7786 34.7393 38.5365 35.4998 36.827 35.4998C34.4421 35.4998 32.9686 33.8607 32.9686 31.5227C32.9686 29.2508 34.5318 27.5268 36.827 27.5268C39.3961 27.5268 40.6381 29.6901 40.4917 32.0187H35.0418ZM38.4185 30.7008C38.2295 29.6476 37.7762 29.0902 36.7703 29.0902C35.4527 29.0902 35.0749 30.1152 35.0418 30.7008H38.4185ZM46.7491 34.3283H46.7208C46.2391 35.1455 45.389 35.4998 44.4256 35.4998C42.1446 35.4998 41.0348 33.5396 41.0348 31.4471C41.0348 29.4161 42.1587 27.5268 44.3831 27.5268C45.2757 27.5268 46.1493 27.9093 46.631 28.6556H46.6499V24.8486H48.7231V35.2967H46.7491V34.3283ZM44.9356 29.0902C43.5802 29.0902 43.1127 30.2616 43.1127 31.5038C43.1127 32.6894 43.6511 33.9316 44.9356 33.9316C46.3099 33.9316 46.7208 32.7319 46.7208 31.4896C46.7208 30.2616 46.2815 29.0902 44.9356 29.0902Z" fill="#97999B"/>
</svg>
