<svg width="149" height="22" viewBox="0 0 149 22" fill="none" xmlns="http://www.w3.org/2000/svg">
<path d="M78.8296 17.9671C78.8117 17.9491 78.797 14.7992 78.797 10.9672V4L79.1919 4.01421L79.5867 4.02841L79.5927 4.86033C79.5959 5.31788 79.5943 8.46142 79.5893 11.846L79.58 17.9997H79.2211C79.0237 17.9997 78.8476 17.985 78.8296 17.9671ZM89.9206 17.929C89.3333 17.7957 88.9676 17.5316 88.7463 17.0809C88.6178 16.8192 88.6087 16.7606 88.6087 16.1891C88.6087 15.6176 88.6177 15.559 88.7463 15.2973C89.0085 14.7632 89.4276 14.5387 90.3639 14.4307C90.9987 14.3574 91.821 14.468 92.2545 14.6849C92.7826 14.9493 93.0379 15.447 93.0369 16.2102C93.0358 17.1063 92.6551 17.6708 91.9084 17.8841C91.5326 17.9914 90.3167 18.0189 89.9206 17.929ZM91.4432 17.338C91.8465 17.233 91.9843 17.1369 92.1392 16.8532C92.3847 16.4033 92.3025 15.6599 91.9722 15.3436C91.7668 15.1469 91.5098 15.0633 91.017 15.0328C89.8302 14.9595 89.3672 15.2819 89.3672 16.1816C89.3672 16.8921 89.5637 17.1663 90.1991 17.3426C90.5081 17.4284 91.1049 17.4261 91.4432 17.338ZM94.7991 17.923C94.2595 17.8062 93.9271 17.4972 93.8241 17.0168C93.7952 16.8819 93.7715 16.2677 93.7715 15.6519V14.5323L94.0284 14.5035C94.5175 14.4487 94.4777 14.3527 94.5055 15.6554C94.5335 16.9624 94.5563 17.0468 94.9404 17.2594C95.386 17.5062 96.272 17.4241 96.5348 17.1118C96.7254 16.8853 96.756 16.6715 96.7563 15.5651L96.7566 14.5253L96.8667 14.5185C96.9273 14.5147 97.0869 14.5092 97.2215 14.5062L97.4662 14.5008L97.4645 15.7487C97.4631 16.9051 97.4555 17.0127 97.3616 17.2167C97.1803 17.6108 96.87 17.8398 96.3749 17.9448C96.0244 18.019 95.1892 18.0075 94.7991 17.923ZM22.8323 17.7917C22.87 17.7043 23.0333 17.3244 23.1952 16.9476C23.5855 16.0386 24.0226 15.0233 24.575 13.7423C24.8245 13.1636 25.1694 12.3598 25.3413 11.9561C25.5133 11.5524 25.6866 11.156 25.7265 11.0752C25.7664 10.9945 25.9446 10.5871 26.1225 10.1699C26.3005 9.75274 26.5891 9.08109 26.764 8.67737C27.1195 7.8564 27.6432 6.63566 28.096 5.57233C28.553 4.49918 28.7712 4.05343 28.8421 4.04774C28.8775 4.04491 29.0166 4.04347 29.1512 4.04458C29.2857 4.04569 30.7587 4.04799 32.4244 4.04974L35.453 4.0529L35.4206 4.36902C35.3758 4.80616 35.0594 8.79004 34.9521 10.2678C34.8429 11.7715 34.8453 11.6661 34.9219 11.5874C34.9603 11.548 35.2702 11.0422 35.6105 10.4636C35.9509 9.88488 36.279 9.33435 36.3397 9.24014C36.4004 9.14594 36.6384 8.74956 36.8686 8.3593C37.3955 7.46591 38.5675 5.49644 39.0602 4.6765L39.4353 4.05222L43.0651 4.04032C45.8366 4.03125 46.6948 4.04226 46.6948 4.08641C46.6948 4.1183 46.6709 4.20639 46.6418 4.28216C46.6126 4.35793 46.4235 5.00348 46.2216 5.71673C45.6156 7.85715 45.1979 9.32702 45.0117 9.97418C44.8238 10.6273 44.416 12.0634 44.2127 12.788C44.1447 13.0302 43.9907 13.5698 43.8705 13.987C43.7503 14.4041 43.5539 15.0978 43.434 15.5284C43.2487 16.1941 42.9557 17.1962 42.7724 17.7917L42.7234 17.9508H40.6963C39.5154 17.9508 38.6693 17.9323 38.6693 17.9064C38.6693 17.8461 39.0109 16.594 39.2247 15.871C39.4584 15.0804 39.9432 13.3869 40.2614 12.2497C40.892 9.99556 41.2163 8.86625 41.338 8.50091C41.4099 8.28503 41.4549 8.09459 41.4381 8.07771C41.3796 8.01926 41.3778 8.02182 39.8716 10.326C39.4967 10.8996 38.8132 11.9414 38.3527 12.6412C37.3784 14.1218 36.9386 14.7933 35.7486 16.6173L34.8786 17.9508H32.8027H30.7268L30.7574 17.4737C31.0177 13.408 31.1258 11.8087 31.2295 10.488C31.2549 10.165 31.2987 9.54843 31.327 9.11779C31.3553 8.68716 31.3903 8.26325 31.4048 8.17577C31.4193 8.0883 31.4103 8.01673 31.3849 8.01673C31.3199 8.01673 31.0771 8.4957 30.6654 9.43588C30.0542 10.8316 29.6181 11.8048 29.547 11.9316C29.5093 11.9989 29.3682 12.3072 29.2335 12.6167C29.0988 12.9263 28.7859 13.6199 28.5382 14.1582C28.2905 14.6965 27.9785 15.3902 27.8449 15.6997C27.7113 16.0092 27.5465 16.3726 27.4787 16.5072C27.411 16.6417 27.278 16.939 27.1832 17.1678C27.0885 17.3966 26.969 17.6663 26.9178 17.7673L26.8247 17.9508H24.7942H22.7637L22.8323 17.7917ZM44.7703 17.7183C44.8101 17.5905 44.9736 17.0124 45.1337 16.4338C45.5337 14.9875 45.623 14.7161 45.7099 14.6827C45.7512 14.6669 47.5295 14.6525 49.6617 14.6508C53.5161 14.6476 53.5393 14.647 53.6768 14.5452C53.9058 14.3756 54.0156 14.1645 54.176 13.585C54.3717 12.8784 54.3712 12.8004 54.1698 12.6568L54.0108 12.5433L51.564 12.5357C48.814 12.5271 48.6674 12.5127 48.0527 12.1925C47.5714 11.9418 47.1952 11.5599 46.9749 11.0986C46.6658 10.4511 46.6295 9.95847 46.8361 9.21567C47.5528 6.63929 47.7775 5.96816 48.0685 5.53476C48.3948 5.04874 48.9467 4.5711 49.4135 4.37082C50.1646 4.04857 49.5776 4.08003 55.3443 4.0529C58.204 4.03944 60.5438 4.03802 60.5438 4.04979C60.5438 4.07232 59.964 5.33432 59.4375 6.45774C59.2654 6.82492 59.1246 7.14896 59.1246 7.17783C59.1246 7.32127 58.8698 7.33164 55.3426 7.33164H51.7499L51.5565 7.47172C51.3403 7.62839 51.1488 8.00215 51.0481 8.46418C50.9773 8.78912 51.004 8.93137 51.169 9.10939L51.2901 9.24014H53.3903C55.6211 9.24014 56.0216 9.27096 56.5991 9.48704C56.9593 9.6218 57.482 10.0091 57.7683 10.3534C58.4782 11.207 58.6065 12.1495 58.2064 13.571C57.8105 14.9774 57.5445 15.8286 57.4339 16.0423C57.0197 16.8428 56.0472 17.5957 55.0991 17.8498C54.7299 17.9487 54.6195 17.9508 49.7101 17.9508H44.698L44.7703 17.7183ZM61.3874 17.8488C60.7977 17.7128 60.3787 17.4927 60.0206 17.1308C59.6507 16.7569 59.4368 16.3414 59.3449 15.8181C59.2575 15.3206 59.2978 15.0289 59.5947 14.0114C59.8378 13.1786 60.189 11.9435 60.715 10.0721C60.8928 9.43955 61.1014 8.71285 61.1786 8.45716C61.2559 8.20147 61.4126 7.65093 61.527 7.23375C61.861 6.01532 62.1047 5.52448 62.6306 5.01052C62.9694 4.67952 63.3524 4.43748 63.8652 4.23028L64.2385 4.07946L67.8103 4.06465C70.2027 4.05471 71.4631 4.06687 71.6273 4.10186C71.7622 4.13048 72.0597 4.24609 72.2885 4.35878C73.2183 4.81678 73.8371 5.73986 73.9306 6.80846C73.9658 7.21047 73.8383 7.93489 73.6447 8.4327L73.5305 8.72631L71.7717 8.73997C70.8044 8.74746 69.9654 8.74219 69.9074 8.72795L69.8019 8.70229L69.9208 8.27388C70.0654 7.75314 70.0581 7.54594 69.8906 7.42242C69.7766 7.33838 69.6344 7.33204 67.8179 7.33006L65.8674 7.32785L65.7004 7.4553C65.6084 7.5254 65.4984 7.63602 65.4557 7.70112C65.3626 7.84324 65.1191 8.62277 64.6235 10.3656C64.4207 11.0788 64.1358 12.0808 63.9903 12.5922C63.6147 13.9123 63.567 14.1599 63.6499 14.3583C63.6864 14.4457 63.7608 14.5411 63.8151 14.5702C63.9567 14.6459 67.6888 14.6431 67.8556 14.5671C68.018 14.4931 68.1953 14.2176 68.3313 13.8282L68.4418 13.5114L68.9827 13.4802C69.2802 13.463 70.1237 13.4489 70.8571 13.4488C72.3946 13.4485 72.2651 13.3882 72.0656 14.0119C71.9969 14.2269 71.8752 14.6451 71.7952 14.9411C71.5272 15.9331 71.3152 16.3407 70.8018 16.8511C70.2925 17.3573 69.7507 17.6739 69.0911 17.8507C68.7311 17.9472 68.5956 17.9506 65.2548 17.9463C62.0331 17.9422 61.7635 17.9355 61.3874 17.8488ZM86.084 17.9019C86.0815 17.8884 86.0831 17.5625 86.088 17.1776L86.0967 16.4779L85.6412 16.0032C85.3907 15.7421 84.9684 15.3059 84.703 15.0339L84.2202 14.5393L84.6773 14.5098L85.1343 14.4802L85.7816 15.1511L86.4288 15.8221L86.7113 15.5281C86.8667 15.3664 87.1508 15.0636 87.3426 14.8552L87.6913 14.4763H88.1104C88.3409 14.4763 88.5398 14.4928 88.5522 14.513C88.5647 14.5332 88.1812 14.9673 87.6999 15.4778L86.8249 16.4058L86.8115 17.1628L86.7981 17.9199L86.4434 17.9231C86.2483 17.9248 86.0865 17.9153 86.084 17.9019ZM100.28 16.2404V14.5359L100.39 14.5097C100.451 14.4954 100.999 14.4924 101.608 14.5031C102.909 14.526 103.135 14.5744 103.383 14.8846C103.517 15.0506 103.534 15.108 103.531 15.3744C103.527 15.7204 103.441 15.8877 103.175 16.0685L103.004 16.1851L103.147 16.237C103.583 16.3956 103.705 16.5616 103.705 16.9965C103.705 17.3399 103.604 17.542 103.356 17.6953C103.087 17.8615 102.812 17.8951 101.516 17.9206L100.28 17.9449V16.2404ZM102.492 17.3582C102.635 17.3283 102.801 17.2584 102.861 17.2029C103.014 17.0632 103.009 16.8093 102.851 16.6517C102.733 16.5333 102.719 16.5316 101.873 16.5316H101.014V16.9394C101.014 17.1637 101.029 17.3619 101.047 17.3799C101.1 17.4334 102.212 17.4168 102.492 17.3582ZM102.504 15.8751C102.852 15.7298 102.912 15.3651 102.623 15.1495C102.511 15.066 102.405 15.0533 101.767 15.0466L101.039 15.0391L101.024 15.4917L101.01 15.9444H101.674C102.137 15.9444 102.389 15.9233 102.504 15.8751ZM104.555 17.8771C104.545 17.85 104.542 17.0792 104.549 16.1643L104.562 14.5008H105.932H107.302V14.7699V15.0391L106.299 15.0635L105.296 15.088L105.282 15.4662L105.267 15.8444L106.211 15.8577L107.156 15.871V16.1401V16.4093L106.226 16.4338L105.296 16.4582L105.282 16.8855L105.268 17.3127L106.334 17.3259L107.4 17.3391L107.415 17.619L107.429 17.899L106.002 17.9126C105.076 17.9215 104.567 17.909 104.555 17.8771ZM109.268 17.9182C109.25 17.9002 109.235 17.2506 109.235 16.4745V15.0635H108.523H107.811L107.826 14.7822L107.841 14.5008H109.639H111.437L111.437 14.7822L111.437 15.0635H110.728H110.018V16.4775C110.018 17.7216 110.009 17.8949 109.941 17.9211C109.836 17.9612 109.309 17.9589 109.268 17.9182ZM113.281 17.9182C113.263 17.9002 113.248 17.2506 113.248 16.4745V15.0635H112.512H111.775L111.79 14.7894L111.804 14.5153L112.294 14.5028C112.563 14.4959 113.383 14.5017 114.117 14.5156L115.45 14.5409V14.8009V15.0609L114.728 15.0745L114.007 15.088L113.994 16.4582C113.986 17.2118 113.971 17.856 113.958 17.8896C113.935 17.9544 113.342 17.9794 113.281 17.9182ZM116.037 16.2444V14.5253H117.432H118.827V14.6415C118.827 14.7054 118.813 14.8265 118.796 14.9106L118.766 15.0635H117.769H116.772V15.454V15.8444L117.71 15.8577L118.649 15.871L118.649 16.1401L118.648 16.4093L117.71 16.4226L116.772 16.4359V16.873V17.3102L116.939 17.3416C117.031 17.3588 117.499 17.3653 117.979 17.356L118.851 17.3391L118.866 17.6205L118.881 17.9019L117.643 17.9024C116.962 17.9027 116.322 17.9166 116.221 17.9333L116.038 17.9636L116.037 16.2444ZM119.659 17.91C119.627 17.8995 119.61 17.2934 119.61 16.2066V14.5195L120.943 14.5346C122.217 14.549 122.287 14.5547 122.504 14.6616C122.938 14.8754 123.136 15.3895 122.991 15.9267C122.922 16.1829 122.578 16.5121 122.33 16.5585C122.234 16.5766 122.155 16.6055 122.155 16.6227C122.155 16.6399 122.374 16.9292 122.641 17.2655C122.907 17.6018 123.117 17.8859 123.106 17.8967C123.095 17.9076 122.897 17.9187 122.666 17.9214L122.246 17.9263L121.772 17.3009L121.298 16.6755L120.833 16.6892L120.368 16.7029L120.344 17.3146L120.319 17.9263H120.014C119.846 17.9263 119.686 17.919 119.659 17.91ZM121.897 16.0834C122.215 15.9865 122.361 15.5687 122.176 15.2857C122.057 15.1041 121.855 15.0635 121.071 15.0635H120.344V15.5978C120.344 15.979 120.361 16.1392 120.405 16.1573C120.502 16.1972 121.721 16.1368 121.897 16.0834ZM124.146 15.7177C124.127 15.6989 124.112 15.4669 124.112 15.2022V14.721H123.941C123.802 14.721 123.769 14.7024 123.769 14.6231C123.769 14.5317 123.802 14.5253 124.262 14.5253C124.706 14.5253 124.754 14.5339 124.739 14.6109C124.727 14.6723 124.674 14.6972 124.551 14.6989L124.381 14.7014L124.357 15.2123C124.337 15.6218 124.317 15.7261 124.256 15.7377C124.215 15.7457 124.165 15.7365 124.146 15.7177ZM125.349 15.6875C125.324 15.6538 125.264 15.4779 125.216 15.2964C125.127 14.9604 125.026 14.8793 125.075 15.1841C125.113 15.4175 125.053 15.6997 124.966 15.6997C124.908 15.6997 124.895 15.5933 124.895 15.1092V14.5187L125.03 14.5342C125.152 14.5483 125.177 14.5885 125.307 14.9797C125.385 15.2162 125.465 15.3924 125.485 15.3712C125.504 15.35 125.557 15.2006 125.603 15.0391C125.706 14.6744 125.799 14.5252 125.924 14.5252C126.015 14.5252 126.02 14.5602 126.02 15.137C126.02 15.6481 126.008 15.7487 125.947 15.7487C125.888 15.7487 125.874 15.6695 125.874 15.3298C125.874 15.0994 125.855 14.9228 125.831 14.9372C125.808 14.9516 125.738 15.1236 125.676 15.3193C125.544 15.7334 125.458 15.8299 125.349 15.6875ZM89.6493 12.713C88.7678 12.5646 88.3777 12.1994 88.2199 11.375C88.1579 11.0507 88.1576 10.9496 88.2177 10.6081C88.3941 9.60502 88.9164 9.24809 90.2744 9.20254C90.8706 9.18254 91.0115 9.1933 91.3423 9.28406C91.5519 9.34156 91.8044 9.43035 91.9033 9.48136C92.4617 9.76918 92.7811 10.5553 92.6471 11.3116C92.4952 12.1683 92.0752 12.5705 91.1779 12.7186C90.8584 12.7713 89.9764 12.7681 89.6493 12.713ZM91.3372 12.0168C91.5524 11.9183 91.6365 11.8446 91.7451 11.6593C91.8639 11.4565 91.8819 11.3742 91.8827 11.0304C91.885 10.1058 91.3564 9.71271 90.2179 9.79196C89.7072 9.8275 89.4971 9.89657 89.2669 10.1046C89.0444 10.3056 88.9763 10.5045 88.9763 10.9529C88.9763 11.352 89.0422 11.5931 89.2037 11.7851C89.4597 12.0894 89.777 12.1788 90.5225 12.1569C90.9791 12.1435 91.1095 12.121 91.3372 12.0168ZM85.697 11.2955V9.87631H84.9851H84.2732L84.2877 9.57046L84.3023 9.2646L86.1007 9.25734L87.8991 9.25007V9.56318V9.87628H87.1895H86.48V11.2954V12.7146H86.0885H85.697L85.697 11.2955ZM95.2722 12.682C95.2542 12.664 95.2396 11.8926 95.2396 10.9676V9.28587L95.782 9.29971L96.3245 9.31355L96.5332 9.80292C97.4088 11.856 97.4811 12.0101 97.5403 11.9495C97.5791 11.9098 97.7694 11.4843 98.401 10.0245C98.5463 9.6888 98.6651 9.38601 98.6651 9.35162C98.6651 9.30449 98.8037 9.28909 99.2279 9.28909H99.7906V11.0019V12.7146H99.4236H99.0566V11.4423C99.0566 10.7425 99.04 10.1699 99.0196 10.1699C98.9766 10.1699 98.8883 10.3586 98.4473 11.3933C98.2694 11.8105 98.064 12.273 97.9908 12.421L97.8577 12.6902L97.462 12.7042L97.0663 12.7183L96.8902 12.3128C96.1178 10.5346 95.9418 10.151 95.8904 10.134C95.8489 10.1202 95.8344 10.1909 95.8408 10.3747C95.8458 10.5178 95.8447 11.1028 95.8383 11.6748L95.8267 12.7146H95.5658C95.4222 12.7146 95.2901 12.6999 95.2722 12.682ZM100.525 12.6912C100.525 12.6783 100.912 11.9076 101.386 10.9785L102.248 9.28907L102.72 9.29018L103.192 9.29129L104.038 10.9662C104.503 11.8874 104.883 12.6576 104.882 12.6778C104.881 12.698 104.705 12.7145 104.491 12.7145H104.101L103.891 12.3108L103.681 11.907H102.702H101.724L101.545 12.2496C101.446 12.438 101.341 12.6197 101.31 12.6533C101.258 12.7111 100.525 12.7465 100.525 12.6912ZM103.378 11.3135C103.409 11.2819 102.741 9.95812 102.685 9.9395C102.66 9.9314 102.066 11.1107 102.001 11.2977C101.983 11.3495 103.326 11.3649 103.378 11.3135ZM105.452 12.6828C105.432 12.6632 105.418 11.8933 105.42 10.9719L105.423 9.29663L105.792 9.28063C105.995 9.27181 106.17 9.27377 106.181 9.28501C106.192 9.29622 106.201 9.63205 106.201 10.0313C106.201 10.4305 106.212 10.7572 106.226 10.7572C106.239 10.7572 106.29 10.7186 106.339 10.6715C106.506 10.5094 107.647 9.49199 107.768 9.39688C107.864 9.32157 107.99 9.29726 108.367 9.28085C108.629 9.26945 108.844 9.27486 108.844 9.29292C108.844 9.31098 108.481 9.64224 108.038 10.0291L107.232 10.7324L107.418 10.9283C108.206 11.7592 108.991 12.6258 108.991 12.6661C108.991 12.6946 108.81 12.7146 108.554 12.7146H108.117L107.396 11.9321L106.675 11.1495L106.444 11.3571L106.213 11.5646L106.195 12.1274L106.177 12.6902L105.832 12.7043C105.643 12.7121 105.471 12.7024 105.452 12.6828ZM109.672 11.5768C109.67 10.9511 109.664 10.1824 109.66 9.8686L109.651 9.29812L109.798 9.27523C110.046 9.23661 111.369 9.23229 111.907 9.26835L112.416 9.30245V9.58938V9.87633H111.419H110.421L110.388 10.1386C110.37 10.2828 110.37 10.4585 110.388 10.529L110.42 10.6572L111.332 10.6705L112.245 10.6838L112.242 10.9524L112.238 11.2211L111.328 11.2049L110.418 11.1886L110.402 11.5479C110.393 11.7455 110.392 11.9567 110.401 12.0173L110.417 12.1274H111.465H112.514V12.421V12.7146H111.095H109.676L109.672 11.5768ZM89.8917 7.47395C89.4395 7.36748 89.1068 7.08825 88.9989 6.72461C88.9438 6.53938 88.9268 6.19447 88.9268 5.26742V4.05289H89.2938H89.6608V5.15553C89.6608 6.0371 89.6759 6.29429 89.7361 6.43832C89.9012 6.83343 90.1184 6.94013 90.7575 6.94013C91.2832 6.94013 91.5695 6.8289 91.7525 6.55364C91.8594 6.39267 91.863 6.35011 91.863 5.22012V4.05289H92.23H92.597V5.24295C92.597 6.62918 92.5608 6.82957 92.2546 7.13573C91.9592 7.43108 91.5785 7.52859 90.7445 7.52245C90.3773 7.51968 89.9935 7.49793 89.8917 7.47395ZM84.7183 5.76566V4.05289H85.8839C87.2053 4.05289 87.4419 4.09326 87.7442 4.37034C87.9228 4.53399 87.9236 4.53654 87.9236 4.93558V5.33642L87.7156 5.52099C87.6012 5.6225 87.5076 5.71805 87.5076 5.73332C87.5076 5.74858 87.6061 5.80465 87.7265 5.85791C88.0145 5.98528 88.1434 6.19648 88.1436 6.54124C88.1439 6.86543 88.0466 7.07735 87.83 7.22477C87.5143 7.43957 87.2315 7.47722 85.9294 7.47785L84.7183 7.4784V5.76566ZM87.2278 6.8294C87.4676 6.67211 87.4607 6.33181 87.214 6.15072C87.109 6.07361 86.9774 6.05905 86.2842 6.04785L85.4768 6.03481L85.4627 6.49163L85.4485 6.94844L86.2724 6.93205C86.9583 6.9184 87.1183 6.90121 87.2278 6.8294ZM87.0148 5.40045C87.2578 5.27479 87.2957 4.9297 87.0879 4.7343C86.9674 4.62099 86.9279 4.61495 86.207 4.59998L85.4523 4.58431V5.02817V5.47205H86.1643C86.6935 5.47205 86.9119 5.45365 87.0148 5.40045ZM93.5757 5.76566V4.05289H93.9428H94.3098V5.76566V7.47843H93.9428H93.5757V5.76566ZM95.3864 5.76566V4.05289H95.7534H96.1204V5.47204V6.89119H97.2512C98.2622 6.89119 98.3788 6.89941 98.3523 6.9686C98.3359 7.01117 98.3226 7.1433 98.3226 7.26222V7.47843H96.8545H95.3864V5.76566ZM99.2523 6.05928V4.64013H98.5404H97.8285L97.8431 4.33427C97.8511 4.16606 97.8742 4.03393 97.8944 4.04066C97.9146 4.0474 98.7238 4.05289 99.6928 4.05289H101.454V4.34651V4.64013H100.745H100.035V6.05928V7.47843H99.6438H99.2523V6.05928Z" fill="black"/>
</svg>
