<svg width="61" height="44" viewBox="0 0 61 44" fill="none" xmlns="http://www.w3.org/2000/svg">
<g clip-path="url(#clip0_251_870)">
<mask id="mask0_251_870" style="mask-type:luminance" maskUnits="userSpaceOnUse" x="0" y="0" width="60" height="44">
<path d="M59.7218 0.5H0.381836V43.5H59.7218V0.5Z" fill="white"/>
</mask>
<g mask="url(#mask0_251_870)">
<mask id="mask1_251_870" style="mask-type:luminance" maskUnits="userSpaceOnUse" x="0" y="0" width="60" height="44">
<path d="M0.381836 0.5H59.7218V43.5H0.381836V0.5Z" fill="white"/>
</mask>
<g mask="url(#mask1_251_870)">
<path fill-rule="evenodd" clip-rule="evenodd" d="M29.8323 40.1011L54.8843 43.5L54.2839 42.4592L29.8323 37.2175L5.37998 42.4592L4.78015 43.5L29.8323 40.1011ZM12.9086 0.5V10.3057C12.9086 11.1125 12.5124 11.2465 12.0278 10.6029C12.0278 10.6029 5.29715 1.66027 5.29232 1.65332C4.80086 1.01868 3.76133 0.5 2.96685 0.5H0.381836V19.7427H4.78015V9.55714C4.78015 8.7503 5.17636 8.61561 5.66092 9.25792C5.66092 9.25792 12.6746 18.5754 12.6767 18.5768C13.1619 19.2184 14.2125 19.7427 15.0139 19.7427H17.3007V0.5H12.9086ZM23.8485 19.7427L29.1193 7.83516C29.5127 6.95263 30.1519 6.95333 30.5433 7.83795L35.8134 19.7427H40.65L32.8446 2.10952L32.8432 2.10743C32.4505 1.22421 31.3433 0.5 30.3804 0.5H27.531L19.0126 19.7427H23.8485ZM54.8843 0.5L49.6137 12.4054C49.2203 13.2886 48.5811 13.2872 48.189 12.4033L42.921 0.5H38.085L45.8884 18.1318C45.8898 18.1324 45.8898 18.1331 45.8898 18.1331C46.2826 19.0184 47.3911 19.7427 48.3526 19.7427H51.2034L59.7218 0.5H54.8843ZM55.7701 29.6178L53.9085 25.41L52.0338 29.6178H55.7701ZM54.4581 24.0143L58.5022 33.0034H57.2558L56.2313 30.676H51.5713L50.5318 33.0034H49.339L49.3929 32.8868L53.4053 23.9685H54.4366L54.4581 24.0143ZM47.5754 28.5297C47.5754 26.5182 46.1162 25.1121 44.0302 25.1121H42.0582V31.9189H44.0302C46.1162 31.9189 47.5754 30.526 47.5754 28.5297ZM48.7654 28.5054C48.7654 31.1141 46.7733 33.0034 44.0302 33.0034H40.9054V24.0296H44.0302C46.7733 24.0296 48.7654 25.9127 48.7654 28.5054ZM36.4339 29.6178L34.5709 25.41L32.6962 29.6178H36.4339ZM35.1211 24.0143L39.1632 33.0034H37.9194L36.8937 30.676H32.2351L31.1942 33.0034H30.0001L30.0539 32.8868L34.0671 23.9685H35.0983L35.1211 24.0143ZM27.0589 30.8718L21.688 23.9984L21.6645 23.9685H20.614V33.0034H21.7418V25.9363L27.2508 32.9715L27.2742 33.0034H28.1854V23.9685H27.0589V30.8718ZM16.0672 29.6178L14.2042 25.41L12.3322 29.6178H16.0672ZM14.7558 24.0143L18.7972 33.0034H17.552L16.5276 30.676H11.8677L10.8309 33.0034H9.63474L9.6872 32.8868L13.7024 23.9685H14.7316L14.7558 24.0143ZM7.65163 30.8225C6.87231 31.5731 6.10266 32.0723 4.88162 32.0723C2.99515 32.0723 1.57115 30.5392 1.57115 28.5054C1.57115 26.4855 2.99515 24.9607 4.88162 24.9607C5.89836 24.9607 6.70595 25.3156 7.57568 26.1474L7.63572 26.205L8.42472 25.3544L8.36468 25.2954C7.5881 24.5622 6.62866 23.8789 4.89405 23.8789C2.32353 23.8789 0.383216 25.8801 0.383216 28.5297C0.383216 31.1648 2.30489 33.1534 4.85608 33.1534C6.6335 33.1534 7.65577 32.3598 8.41848 31.5835L8.47718 31.5231L7.70893 30.7683L7.65163 30.8225Z" fill="#111111"/>
</g>
</g>
</g>
<defs>
<clipPath id="clip0_251_870">
<rect width="59.6625" height="43" fill="white" transform="translate(0.381836 0.5)"/>
</clipPath>
</defs>
</svg>
