<svg width="123" height="33" viewBox="0 0 123 33" fill="none" xmlns="http://www.w3.org/2000/svg">
<path d="M57.411 10.5315C52.6852 12.8749 49.4044 17.757 49.4044 17.757C49.7559 18.6943 49.9512 19.4755 49.9512 19.4755C50.1856 19.3583 54.0131 18.3038 54.0131 18.3038C56.3956 14.32 60.4184 12.9921 60.4184 12.9921C58.3484 11.586 58.075 6.9383 57.1767 6.54776C48.8576 1.47038 42.9991 2.01717 42.9991 2.01717C43.7022 3.50137 44.4052 5.29793 44.4052 5.29793C53.6226 6.9774 57.411 10.5315 57.411 10.5315ZM20.5807 18.8506C20.5807 18.5382 20.3854 18.3428 19.9557 18.3428H18.4716L16.9875 18.3038C16.7531 18.3038 16.2063 18.3038 16.2063 18.8116C16.2063 19.2411 16.5578 19.2411 16.7921 19.2802H16.9875C17.3389 19.3193 17.6123 19.4364 17.7686 19.7879C17.8857 20.0613 17.8857 20.6472 17.8857 20.9596V24.7872C17.4171 24.2014 13.3161 18.9287 13.3161 18.9287L13.199 18.7725C12.8865 18.3428 12.8084 18.3038 12.1444 18.3038H9.17614C8.9418 18.3038 8.47312 18.3038 8.47312 18.7725C8.47312 19.2411 8.9418 19.2802 9.17614 19.2802H9.25427C9.87918 19.3193 9.91821 19.7879 9.87918 20.491V26.3494C9.87918 26.8962 9.87918 27.6774 9.72294 28.107C9.60579 28.4194 9.48857 28.5366 9.13708 28.5366H9.01991C8.74652 28.5366 8.27783 28.5757 8.27783 29.0444C8.27783 29.3568 8.51217 29.5521 8.86368 29.5521L10.465 29.474L12.0664 29.5521C12.4569 29.5521 12.7303 29.3568 12.7303 29.0444C12.7303 28.5757 12.2225 28.5366 11.9882 28.5366H11.9101C11.4805 28.4976 11.2071 28.4195 11.0508 27.9898C10.9337 27.6383 10.9337 26.74 10.9337 26.3494V20.9987C11.4414 21.6236 17.4171 29.2787 17.4171 29.2787L17.4952 29.3959C17.7295 29.7083 17.9638 30.0208 18.3935 30.0208C18.6279 30.0208 18.784 29.9817 18.9013 29.8646C19.0184 29.7474 19.0184 29.5521 19.0184 29.3959V20.6081V20.4128C19.0184 19.7879 19.0965 19.3974 19.6042 19.3193H19.7995C20.0339 19.3193 20.3073 19.3193 20.4635 19.163C20.5416 19.085 20.5807 18.9677 20.5807 18.8506ZM26.7516 28.8491C25.4237 28.8491 24.5645 27.5993 24.2129 26.8572C23.7443 25.8808 23.4709 24.7091 23.4709 23.4593C23.4709 21.897 24.0177 19.0068 26.1657 19.0068C28.6654 19.0068 29.4465 22.6391 29.4465 24.3966C29.4465 25.9199 28.8607 28.8491 26.7516 28.8491ZM26.2439 18.0694C24.5644 18.0694 23.1193 18.6553 21.9867 19.827C20.8931 20.9206 20.2291 22.4438 20.2291 23.967C20.2291 25.6855 20.9712 27.3259 22.221 28.3023C23.2756 29.1615 25.0331 29.7474 26.5563 29.7474C29.9542 29.7474 32.6101 27.1696 32.6101 23.8889C32.6101 20.1394 29.3293 18.0694 26.2439 18.0694ZM41.7493 20.3738C41.9446 19.866 42.1399 19.3974 42.6867 19.3193H42.8429C43.0773 19.3193 43.5069 19.2802 43.5069 18.8896C43.5069 18.7334 43.4288 18.3819 42.882 18.3819L41.4369 18.4209L39.9918 18.3819C39.7965 18.3819 39.3278 18.3819 39.3278 18.8506C39.3278 19.3193 39.7574 19.3193 39.9918 19.3193H40.1871C40.3823 19.3584 40.6948 19.4364 40.6948 19.7879C40.6948 20.0223 40.5386 20.491 40.3823 20.8425L38.5077 25.5292C38.2733 24.9434 36.3595 20.2176 36.3595 20.2176C36.2814 20.0223 36.1642 19.7489 36.1642 19.5926C36.1642 19.4364 36.3205 19.3193 36.4376 19.3193H36.6329C36.9454 19.3193 37.4141 19.3193 37.4141 18.8116C37.4141 18.6943 37.375 18.5772 37.2969 18.4991C37.1407 18.3428 36.8673 18.3428 36.672 18.3428H36.6329L34.6801 18.4209L32.2977 18.3428H32.2195C32.0243 18.3428 31.7899 18.3428 31.6337 18.4991C31.5555 18.5772 31.5165 18.6943 31.5165 18.8116C31.5165 19.3193 31.9071 19.3193 32.0633 19.3583H32.1023C32.3757 19.3974 32.532 19.3974 32.6491 19.5926C32.8445 19.827 33.0788 20.4128 33.1569 20.6081L36.711 29.0444L36.7501 29.2006C36.8673 29.5521 36.9844 29.7864 37.4922 29.7864C37.9218 29.7864 38.039 29.5521 38.1561 29.2006L41.6322 20.6862C41.5931 20.6862 41.7493 20.3738 41.7493 20.3738ZM43.5459 25.1777L43.7412 24.7091C43.7803 24.6309 43.8193 24.5138 43.8584 24.3966L43.9365 24.2014C43.9365 24.2014 44.6395 22.4438 44.9129 21.6627C45.1082 22.2095 45.8894 24.2014 45.8894 24.2014L45.9675 24.3966C45.9675 24.3966 46.2409 25.0997 46.2409 25.1387H46.2799L43.5459 25.1777ZM51.3963 28.5757H51.2792C51.0058 28.5757 50.8886 28.4976 50.6933 28.2242C50.5371 27.9898 50.3418 27.5602 50.3027 27.3649L46.8267 18.8896L46.7486 18.6943C46.5923 18.3038 46.5143 18.1085 45.9675 18.1085C45.3035 18.1085 45.1473 18.4209 44.991 18.8896L44.9129 19.085L42.9601 23.8498L42.0227 26.2713L41.8665 26.74C41.7103 27.2087 41.4759 27.7555 41.3197 28.0679C41.0854 28.4976 40.9682 28.4976 40.4996 28.5757C40.2652 28.6147 39.9137 28.6538 39.9137 29.0834C39.9137 29.3178 40.0308 29.5912 40.5776 29.5912L42.179 29.5521L43.7803 29.5912C44.4052 29.5912 44.4833 29.2787 44.4833 29.0834C44.4833 28.6147 44.0146 28.5366 43.6631 28.4976C43.1163 28.4195 42.7257 28.3804 42.7648 27.8336C42.8039 27.5993 42.882 27.2868 42.9601 27.1306L42.9991 26.9743L43.0382 26.8962C43.1554 26.5447 43.2335 26.3104 43.7022 26.3104H46.0846C46.7486 26.2713 46.7486 26.6228 46.9048 26.9743L46.9438 27.0915L47.2172 27.7555C47.2954 27.9117 47.3735 28.1851 47.3735 28.3804C47.3735 28.5366 47.2563 28.5757 46.9048 28.6147C46.5923 28.6538 46.2018 28.6928 46.2018 29.1225C46.2018 29.474 46.4361 29.6302 46.8657 29.6302L49.3263 29.5521L51.3963 29.6302C51.5916 29.6302 52.0993 29.6302 52.0993 29.1225C52.0602 28.5757 51.6307 28.5757 51.3963 28.5757ZM106.622 25.1777L106.818 24.7091C106.857 24.6309 106.896 24.5138 106.934 24.3966L107.013 24.2014C107.013 24.2014 107.716 22.4438 107.989 21.6627C108.185 22.2095 108.966 24.2014 108.966 24.2014L109.044 24.3966C109.044 24.3966 109.317 25.0997 109.317 25.1387H109.356L106.622 25.1777ZM114.473 28.5757H114.356C114.082 28.5757 113.965 28.4976 113.769 28.2242C113.614 27.9898 113.418 27.5602 113.379 27.3649L109.903 18.8896L109.825 18.6943C109.668 18.3038 109.591 18.1085 109.044 18.1085C108.38 18.1085 108.224 18.4209 108.068 18.8896L107.989 19.085L106.036 23.8498L105.099 26.2713L104.943 26.74C104.787 27.2087 104.553 27.7555 104.396 28.0679C104.162 28.4976 104.084 28.5366 103.615 28.6147H103.459C103.42 28.6147 103.38 28.6147 103.302 28.5757C102.443 28.4195 102.443 28.1461 102.443 27.2868V20.6862C102.443 19.7098 102.443 19.5145 103.38 19.3583C103.615 19.3193 103.967 19.2411 103.967 18.8506C103.967 18.5382 103.771 18.3819 103.42 18.3819L102.209 18.4209L100.998 18.46L98.4202 18.3819C98.3034 18.3819 97.8734 18.3819 97.8734 18.8506C97.8734 19.2411 98.2644 19.3193 98.4592 19.3193H98.5378C99.3969 19.4755 99.3969 19.7489 99.3969 20.6472V27.2087C99.3969 28.2242 99.3969 28.3804 98.4592 28.5366C97.991 28.6147 97.8734 28.8881 97.8734 29.0834C97.8734 29.3178 97.952 29.5521 98.4202 29.5521L100.842 29.474L103.42 29.5521H103.654L105.255 29.513L106.857 29.5521C107.481 29.5521 107.56 29.2396 107.56 29.0444C107.56 28.5757 107.091 28.4976 106.74 28.4585C106.193 28.3804 105.802 28.3413 105.841 27.7945C105.881 27.5602 105.958 27.2477 106.036 27.0915L106.075 26.9353L106.114 26.8572C106.232 26.5057 106.31 26.2713 106.779 26.2713H109.161C109.825 26.2323 109.825 26.5838 109.942 26.9353L109.981 27.0525L110.215 27.7164C110.294 27.8727 110.372 28.1461 110.372 28.3413C110.372 28.4976 110.255 28.5366 109.903 28.5757C109.591 28.6147 109.2 28.6538 109.2 29.0834C109.2 29.4349 109.435 29.5912 109.864 29.5912L112.324 29.513L114.395 29.5912C114.59 29.5912 115.097 29.5912 115.097 29.0834C115.136 28.5757 114.707 28.5757 114.473 28.5757ZM59.8716 22.1704L59.0124 21.8579C58.3093 21.6236 57.5673 21.3111 57.5673 20.491C57.5673 19.6317 58.4656 19.085 59.3248 19.085C60.145 19.085 60.7308 19.6317 61.1214 20.8815C61.1604 21.0378 61.2776 21.4674 61.7072 21.4674C61.8635 21.4674 61.9416 21.4283 62.0197 21.3502C62.1759 21.194 62.1759 20.9206 62.1759 20.7253V19.3583C62.1759 19.085 62.1759 18.7725 61.8244 18.5772C61.2776 18.2648 60.145 18.1085 59.5592 18.1085C57.372 18.1085 55.0286 19.5145 55.0286 21.7798C55.0286 23.6936 56.9423 24.5138 58.075 25.0215L58.4265 25.1777C59.4029 25.5683 60.4965 25.9979 60.4965 27.1696C60.4965 28.4195 59.2076 28.8881 58.3484 28.8881C57.8797 28.8881 57.1767 28.771 56.708 28.3023C56.3565 27.9117 56.2393 27.5211 56.0831 26.9743L56.044 26.8181C55.9659 26.5057 55.8488 25.9979 55.3801 25.9979C55.2629 25.9979 55.1457 26.037 55.0676 26.1151C54.8723 26.3104 54.8723 26.7009 54.8723 26.9743V28.1851C54.8723 28.6538 54.8723 28.9662 55.4191 29.2787C56.1612 29.6302 57.4891 29.8646 58.3093 29.8646C59.5982 29.8646 60.6527 29.513 61.512 28.771C62.4103 27.9898 62.918 26.9353 62.918 25.8808C62.9571 23.4983 61.3167 22.6781 59.8716 22.1704ZM73.7367 26.1542C73.4243 26.1542 73.2678 26.4276 73.1899 26.6228C72.9165 27.1306 72.6041 27.7555 72.1352 28.1851C71.6274 28.6147 71.0417 28.81 70.4559 28.81C69.3623 28.81 68.386 28.1851 67.7219 27.1306C67.2143 26.2713 66.9018 25.0997 66.9018 23.8498C66.9018 22.6 67.2143 21.3893 67.8001 20.5691C68.464 19.6317 69.4404 19.0459 70.4559 19.0459C71.8229 19.0459 72.3307 19.7879 72.721 20.4128C72.9554 20.8034 73.1899 21.1159 73.5412 21.1159C73.8146 21.1159 74.0101 20.9206 74.0101 20.6862L73.9321 20.1785V20.1394L73.8146 19.2411V19.2021C73.7367 18.6943 73.6977 18.5772 73.1899 18.4209C72.4086 18.1866 71.4326 18.0304 70.6122 18.0304C68.8155 18.0304 67.0189 18.5772 65.8082 19.5145C64.4022 20.6081 63.582 22.2095 63.582 23.967C63.582 25.6465 64.4412 27.3649 65.7691 28.4194C66.8627 29.2396 68.5031 29.7474 70.2997 29.7474C71.1982 29.7474 72.5262 29.5912 73.6198 28.9272C74.1666 28.5757 74.2055 28.3023 74.2055 27.7945V27.7164L74.2445 26.9743V26.7791C74.2445 26.6228 74.2055 26.4276 74.088 26.2713C74.0101 26.2323 73.8932 26.1542 73.7367 26.1542ZM97.1708 18.8506L96.9753 20.7253C96.9364 20.9987 96.8974 21.4674 96.4675 21.4674C96.272 21.4674 95.9986 21.3502 95.8038 20.8425C95.335 19.6317 95.1784 19.3583 93.8115 19.3583C93.4991 19.3583 93.4991 19.3583 93.4991 19.7098V27.2477C93.4991 28.1461 93.4991 28.4195 94.3583 28.5366C94.5537 28.5757 95.0226 28.6538 95.0226 29.0834C95.0226 29.2396 94.9836 29.5521 94.4758 29.5521L91.8977 29.474L89.4768 29.5521C89.0079 29.5521 88.93 29.2787 88.93 29.0834C88.93 28.8881 89.0468 28.6147 89.5157 28.5366C90.4138 28.3804 90.4528 28.2242 90.4528 27.3259V19.7098C90.4528 19.5927 90.4528 19.4364 90.4138 19.4364C90.3749 19.3974 90.2184 19.3974 90.1015 19.3974C89.0468 19.3974 88.6169 19.7879 87.9922 20.7253C87.7188 21.194 87.4454 21.3893 87.172 21.3893C86.8986 21.3893 86.7428 21.194 86.7428 20.8425L86.8207 20.491L86.8597 20.4128L87.2896 18.6553C87.2896 18.6553 87.4065 18.2648 87.8753 18.2648C88.93 18.2257 90.2573 18.46 96.7019 18.3038C96.7019 18.3428 97.2098 18.3428 97.1708 18.8506ZM80.806 17.9914C80.1813 17.3665 78.5799 15.9604 74.7913 13.9685C72.721 12.8749 70.0654 11.6251 66.6675 10.2972C66.6675 10.2972 68.7374 7.56322 76.8609 6.66491C76.8609 6.66491 76.8609 4.32156 76.6661 3.57943C76.6661 3.57943 71.5495 2.99361 65.1442 7.2508C65.1442 7.2508 64.949 9.08645 65.4567 10.3363C65.4567 10.3363 66.1207 11.9767 65.3395 13.4608C65.3395 13.4608 69.9872 14.6325 74.3224 17.5617C74.3224 17.5617 77.1343 17.8741 79.1656 18.1475C78.9312 18.1866 78.8143 18.2257 78.8143 18.2257C77.7597 18.46 76.8609 19.0068 76.0804 19.7879C74.9868 20.8815 74.3224 22.4047 74.3224 23.928C74.3224 25.6465 75.0647 27.2868 76.3141 28.2632C77.3687 29.1225 79.1267 29.7083 80.6495 29.7083C84.0478 29.7083 86.7032 27.1306 86.7032 23.8498C86.7032 20.1785 83.7354 18.1866 80.806 17.9914ZM80.845 28.7319C79.5169 28.7319 78.6578 27.4821 78.3065 26.74C77.8376 25.7636 77.5642 24.5919 77.5642 23.3421C77.5642 21.7798 78.111 18.8506 80.2592 18.8506C82.7587 18.8506 83.54 22.4829 83.54 24.2404C83.54 25.8026 82.9542 28.7319 80.845 28.7319Z" fill="#111111"/>
<path d="M57.1372 6.31343C57.5278 8.57873 58.2698 10.4144 58.2698 10.4144C59.3634 13.0702 61.863 13.8904 61.863 13.8904C63.23 14.4762 63.4643 14.7496 63.4643 14.7496C67.2919 13.3436 65.6905 10.0238 65.6905 10.0238C65.1828 8.5006 65.2219 7.3289 65.2219 6.97738C65.2219 6.97738 65.2219 6.74308 65.1047 6.7821L64.7142 6.86023C64.5189 6.89925 64.3627 6.89925 64.3236 6.89925C63.5425 6.93835 62.7613 6.70398 62.7613 6.70398C61.1209 6.23531 60.1446 6.07907 60.1446 6.07907C59.8321 6.04004 59.5196 6.04004 59.2072 6.04004C57.9574 6.04004 57.1372 6.31343 57.1372 6.31343Z" fill="#D1D1D1"/>
<path d="M62.0582 12.4838C62.0582 12.4838 61.4723 11.8199 62.3706 12.0152H62.4487C62.5268 12.0152 62.6049 12.0152 62.6049 12.0933C62.683 12.2886 62.7611 12.4057 62.9174 12.4838C62.9174 12.4838 63.0736 12.562 63.4642 12.562C63.4642 12.562 63.4251 12.7963 63.1908 12.9525C63.1908 12.9525 62.9955 13.0306 63.0345 13.343C63.0345 13.343 62.8783 13.3821 62.683 13.2649C62.683 13.2649 62.4096 13.1869 62.4096 13.4212C62.4096 13.4212 62.644 13.343 62.7221 13.4603C62.7221 13.4603 62.4096 13.5383 62.5659 13.8117C62.5659 13.8117 62.8002 13.8898 63.0345 13.5383C63.0345 13.5383 63.0736 13.5774 63.0736 13.6164C63.0736 13.6164 62.7611 13.6946 63.2689 14.0851C63.2689 14.0851 63.1517 13.6946 63.347 13.6946C63.347 13.6946 63.5423 13.7337 63.6204 13.968C63.6204 13.968 63.6594 13.6946 63.7766 13.6555C63.7766 13.6555 63.4251 13.304 63.8157 13.3821C63.8157 13.3821 63.8938 13.343 63.7376 13.2259C63.7376 13.2259 63.8938 13.1478 64.011 13.2259C64.011 13.2259 63.9719 13.1478 63.9719 13.1087H64.2062C64.2062 13.1087 63.8547 12.9525 64.3234 12.7572C64.3234 12.7572 64.0891 12.6401 64.3234 12.601C64.3234 12.601 64.4406 12.601 64.4015 12.3276C64.4015 12.3276 63.6985 12.7572 63.5423 11.8979C63.5423 11.8979 63.9719 11.7418 64.1281 12.1713C64.1281 12.1713 64.2062 12.0933 64.0891 11.8589C64.0891 11.8589 64.4015 11.7027 64.2062 10.8825C64.2062 10.8825 64.1672 10.8044 64.4015 10.7263C64.4015 10.7263 64.753 10.4919 64.1281 10.2967C64.1281 10.2967 64.4015 10.6091 64.0891 10.6872C64.0891 10.6872 63.347 9.78889 63.6985 8.92968C63.6985 8.92968 63.8547 8.46101 63.7766 8.03136C63.6985 7.67985 63.1908 7.21118 62.644 7.5236C62.644 7.5236 63.1127 7.64082 63.0736 8.03136C63.0345 8.26573 62.7611 8.57816 62.9955 9.2421C63.1127 9.59362 63.3079 9.98417 63.6204 10.2967C63.6204 10.2967 63.8157 10.531 63.8938 10.7263C63.8938 10.7263 63.7376 10.6482 63.5813 10.6091C63.5813 10.6091 63.1518 10.5701 63.6204 11.0387C63.5813 10.9997 63.347 10.7263 63.9719 10.8825C63.9719 10.8825 64.3625 11.6245 63.9328 11.7027C63.9328 11.7027 63.6594 11.7418 63.4251 11.4684C63.4251 11.4684 63.0345 10.9606 62.8783 10.8044C62.8783 10.8044 62.3315 10.3357 62.2925 9.59362C62.2925 9.59362 62.2534 9.32022 62.4877 9.2812V9.2421C62.0191 8.7344 62.3316 8.46101 62.3316 8.46101C62.4096 8.46101 62.4487 8.42191 62.4487 8.42191C62.4487 8.42191 62.1753 8.10949 62.1753 8.07039C62.1753 8.03136 62.2925 7.95324 62.2925 7.95324L62.1362 7.797C62.0191 7.75797 61.98 7.32833 61.98 7.32833L61.8628 7.36742C61.7457 7.17215 61.5504 7.0159 61.5504 7.0159C61.5504 7.21118 61.1599 7.2502 61.1599 7.2502C60.9646 7.13305 60.7302 7.2502 60.7302 7.2502C60.4958 7.21118 60.7302 7.48457 60.7302 7.48457C60.7692 7.64082 61.0817 7.75797 61.0817 7.75797L61.3551 7.91421C61.316 7.95324 61.1989 7.95324 61.1989 7.95324C60.9646 7.797 60.7302 7.83609 60.7302 7.83609C60.5349 7.95324 60.4958 7.71894 60.4958 7.71894C60.3397 7.99234 60.8474 7.99234 60.8474 7.99234C61.1989 7.99234 61.316 8.14851 61.316 8.14851C61.0036 8.10949 61.0036 8.26573 61.0036 8.26573C60.7692 8.22664 60.7302 8.42191 60.7302 8.42191C60.574 8.46101 60.6521 8.69531 60.6521 8.69531C60.9645 9.04683 60.6912 8.9687 60.4178 8.89058L60.2615 8.85155C60.3006 8.57816 60.0272 8.07039 60.0272 8.07039C59.6366 7.44554 59.7929 7.32833 59.7929 7.32833C60.0663 7.0159 59.7147 6.93778 59.7147 6.93778C59.7929 7.09403 59.6757 7.13305 59.6757 7.13305C59.4414 6.78153 59.2461 6.82063 59.2461 6.82063C59.5195 7.09403 59.4023 7.17215 59.4023 7.17215C59.0117 6.82063 58.8555 6.97681 58.8555 6.97681C59.0508 7.0159 59.0508 7.21118 59.0508 7.21118C59.1289 7.36742 59.2461 7.32833 59.2461 7.32833C59.4414 7.48457 59.2461 7.48457 59.2461 7.48457C59.207 7.40645 59.1289 7.48457 59.1289 7.48457H58.9336C58.9727 7.75797 59.4023 7.75797 59.4023 7.71894C59.7538 8.22664 59.4804 8.42191 59.4804 8.42191C59.7538 8.92968 59.4804 8.92968 59.4804 8.92968C59.6366 8.92968 59.7147 9.08592 59.7147 9.08592C59.7538 9.2421 59.5195 9.2421 59.5195 9.2421C59.6757 9.39835 59.9881 9.39835 59.9881 9.39835C60.1444 9.55459 60.2615 9.59362 60.2615 9.59362C60.3787 9.67174 60.5349 9.71077 60.7302 9.71077C60.7302 9.74986 60.7302 9.74987 60.7692 9.78889C60.7692 9.78889 60.2615 10.1795 59.7147 10.1404C59.7147 10.1404 59.6366 10.0623 59.5585 9.94514C59.5585 9.94514 59.3632 9.78889 59.3242 9.94514C59.3242 9.94514 59.5585 10.0233 59.5195 10.1795L59.207 10.1014C59.207 10.1014 59.2461 10.1795 59.2851 10.2185C59.2851 10.2185 59.3242 10.3748 59.6366 10.2967C59.6366 10.2967 59.6757 10.3748 59.6366 10.3748C59.6366 10.3748 59.4804 10.4138 59.5195 10.6091C59.5195 10.6091 59.6757 10.6091 59.7147 10.5701C59.7147 10.5701 59.7929 10.531 59.7538 10.4529H59.91C59.91 10.4529 60.1444 10.4138 60.0272 10.6482C60.0272 10.6482 60.1053 10.6872 60.2224 10.4529C60.2224 10.4529 60.3787 10.3748 60.4178 10.5701C60.4178 10.5701 60.4958 10.3748 60.6912 10.4138C60.6912 10.4138 60.6911 10.4529 60.6521 10.531C60.6521 10.531 60.7692 10.6091 60.8083 10.4529C60.8083 10.4529 61.0036 10.3748 61.0036 10.531C61.0036 10.531 61.0817 10.2967 61.0817 10.2576C61.0817 10.2576 61.3942 10.3748 61.3551 10.4919C61.3551 10.4919 61.3942 10.531 61.5113 10.4919C61.5113 10.4919 61.8628 10.8435 62.2925 11.195C62.0581 11.195 61.941 11.195 61.8628 11.234L61.7457 11.195C61.7457 11.195 61.4723 11.1168 61.3942 11.234C61.3942 11.234 61.1599 11.3511 61.277 11.7418C61.277 11.7418 61.1989 12.0152 61.0426 11.8589C61.0426 11.8589 60.8083 11.7027 60.574 11.6636C60.574 11.6636 60.2615 11.5465 60.1443 11.3511C60.1443 11.3511 59.9881 11.1168 59.7538 11.3511C59.7538 11.3511 59.91 11.3902 59.9881 11.5074C59.9881 11.5074 60.1053 11.5855 60.1834 11.6245C60.1834 11.6245 60.2224 11.6636 60.2224 11.7027C60.2224 11.7027 59.7147 11.6245 59.8709 11.9761C59.8709 11.9761 59.9491 11.8589 60.1053 12.0152C60.1053 12.0152 60.2615 12.0542 60.3006 11.937C60.3006 11.937 60.4958 12.0542 60.2615 12.2495C60.2615 12.2495 60.4178 12.3667 60.574 12.0933C60.574 12.0933 60.7692 12.1323 60.8865 12.4447C60.8865 12.4447 61.1208 12.1323 61.2379 12.4838C61.2379 12.4838 61.316 12.2886 61.3942 12.601C61.3942 12.601 61.5504 12.7181 61.6676 12.601C61.7457 12.4447 61.7848 12.562 62.0582 12.4838Z" fill="#777777"/>
</svg>
