<svg width="1000" height="359" viewBox="0 0 1000 359" fill="none" xmlns="http://www.w3.org/2000/svg">
<path fill-rule="evenodd" clip-rule="evenodd" d="M554.533 59.173C548.551 59.9529 543.934 61.3463 538.199 64.1024C533.267 66.4731 531.963 67.4085 527.947 71.4574C520.961 78.5008 517.91 85.2418 516.598 96.5364C515.811 103.305 516.539 112.291 518.35 118.163C522.566 131.827 532.125 140.181 547.938 144.019C551.101 144.787 554.088 144.981 562.418 144.96C574.296 144.931 581.127 143.842 586.589 141.11L589.597 139.604L589.752 134.629L589.907 129.652L587.998 130.948C583.226 134.187 571.569 136.427 563.989 135.563C558.537 134.941 555.907 134.214 552.026 132.255C545.681 129.052 540.909 123.166 538.383 115.427C537.158 111.677 536.93 109.893 536.713 102.437C536.525 95.9245 536.668 92.8029 537.295 89.7712C539.612 78.5676 544.01 72.705 552.674 69.268C555.284 68.2325 556.67 68.0748 562.956 68.099C569.035 68.1216 570.75 68.3186 573.451 69.3014C577.858 70.9047 582.026 73.7744 583.764 76.4008C585.481 78.9949 585.391 79.1111 587.676 71.3492C588.62 68.1459 589.519 65.1933 589.674 64.788C590.048 63.8128 585.808 61.6934 581.255 60.5799C573.661 58.7225 562.498 58.1348 554.533 59.173ZM328.302 59.708C328.302 59.9496 328.802 60.3059 329.413 60.5002C331.171 61.0583 334.189 63.9657 335.329 66.1997C337.191 69.8498 337.429 74.7539 337.44 109.6L337.451 143.641H347.004H356.557V125.207V106.774L360.324 106.645L364.092 106.517L369.87 114.449C373.049 118.812 379.183 127.165 383.501 133.011L391.353 143.641H403.4H415.446L400.129 124.038C391.705 113.258 384.812 104.335 384.812 104.211C384.812 104.086 385.842 103.678 387.1 103.305C394.99 100.961 401.943 95.6715 404.606 89.9871C405.922 87.1782 406.067 86.2864 406.028 81.2096C405.974 74.1947 404.777 70.6905 401.191 67.0533C396.577 62.3737 390.787 60.4502 378.892 59.6466C369.657 59.0229 328.302 59.0729 328.302 59.708ZM421.948 59.6784C421.948 59.9044 422.64 60.3759 423.486 60.7263C425.745 61.6616 428.76 64.985 429.863 67.7546C430.752 69.986 430.84 73.0725 430.98 106.948L431.133 143.719L454.931 143.512C477.338 143.317 478.975 143.236 482.949 142.136C494.753 138.87 501.31 132.607 503.24 122.759C505.717 110.121 498.265 99.5939 485.126 97.1693C481.356 96.4734 481.186 96.1484 484.249 95.4912C486.923 94.9181 492.013 91.2556 494.02 88.4607C498.519 82.1956 498.405 72.7448 493.765 67.3235C489.678 62.5491 483.596 60.4835 471.193 59.6579C461.949 59.0428 421.948 59.0595 421.948 59.6784ZM377.879 68.2444C380.929 69.1808 383.349 71.0834 384.812 73.6958C386.01 75.8324 386.158 76.7188 386.158 81.7478C386.158 87.0194 386.05 87.5948 384.543 90.3164C382.641 93.7534 379.341 96.3454 375.125 97.7129C372.851 98.4508 370.356 98.6763 364.361 98.6871L356.557 98.7011L356.433 83.6315C356.364 75.3432 356.428 68.2293 356.576 67.8224C356.794 67.2191 358.594 67.1351 366.388 67.3649C371.637 67.5194 376.808 67.9155 377.879 68.2444ZM467.157 67.7896C474.444 68.9666 477.383 72.3363 477.383 79.5132C477.383 89.6265 471.447 93.5882 456.294 93.5882H450.473V80.4023V67.2164L457.066 67.2207C460.692 67.2229 465.233 67.479 467.157 67.7896ZM468.233 101.679C474.262 102.461 477.228 103.631 479.864 106.267C482.929 109.332 484.06 113.091 483.724 119.104C483.027 131.616 475.942 136.106 456.892 136.106H450.473V118.614V101.123L457.335 101.14C461.109 101.149 466.013 101.392 468.233 101.679ZM626.195 172.519C628.782 173.878 631.354 176.552 632.586 179.162C633.718 181.558 633.731 182.029 633.88 224.236L634.03 266.888H643.164H652.297V219.258V171.627L638.439 171.649C625.49 171.668 624.686 171.726 626.195 172.519ZM927.586 172.519C930.156 173.869 932.725 176.542 933.97 179.162C935.112 181.564 935.122 181.928 935.271 224.236L935.421 266.888L944.421 266.889H953.42L953.269 252.088C953.186 243.948 953.321 237.287 953.571 237.287C953.821 237.287 954.604 238.074 955.312 239.037C956.021 239.999 961.282 246.659 967.005 253.837L977.409 266.888H988.704H1000L988.836 253.03C982.695 245.407 976.385 237.602 974.814 235.684C973.242 233.765 972.024 231.93 972.107 231.606C972.249 231.047 983.169 220.754 992.856 212.05C995.291 209.862 997.283 207.863 997.283 207.61C997.283 207.003 975.367 207.008 974.993 207.614C974.834 207.871 975.2 208.529 975.806 209.078C977.164 210.307 976.846 212.918 974.992 215.759C973.799 217.588 954.17 236.749 953.489 236.749C953.303 236.749 953.151 222.097 953.151 204.188V171.627L939.561 171.649C926.857 171.668 926.077 171.726 927.586 172.519ZM328.302 182.913C328.302 183.178 328.802 183.554 329.413 183.748C331.171 184.306 334.189 187.213 335.329 189.447C337.191 193.097 337.429 198.001 337.44 232.86L337.451 266.913L346.897 266.766L356.344 266.619L356.302 248.186L356.261 229.753L360.177 229.786L364.092 229.82L377.732 248.354L391.373 266.888H403.481H415.59L413.473 264.332C410.065 260.217 384.812 227.642 384.812 227.36C384.812 227.219 385.842 226.827 387.1 226.491C391.336 225.357 397.312 222.053 400.145 219.279C401.669 217.787 403.622 215.114 404.486 213.338C405.929 210.373 406.055 209.645 406.021 204.457C405.993 199.986 405.739 198.177 404.808 195.791C402.677 190.329 396.774 185.815 389.459 184.051C388.018 183.704 383.659 183.189 379.771 182.906C370.826 182.256 328.302 182.261 328.302 182.913ZM688.234 182.693C688.022 182.906 689.106 183.832 690.644 184.753C692.865 186.084 693.773 187.082 695.069 189.618L696.699 192.808L696.851 229.848L697.004 266.888H718.205C730.476 266.888 741.172 266.643 743.595 266.306C756.214 264.551 764.668 259.035 768.065 250.34C769.486 246.705 769.815 237.993 768.675 234.24C766.565 227.297 758.998 221.563 750.063 220.137C748.538 219.893 747.653 219.562 748.097 219.401C748.541 219.239 749.994 218.712 751.326 218.23C756.649 216.302 761.333 211.409 762.7 206.349C763.593 203.043 763.034 196.002 761.667 193.355C760.097 190.313 756.133 186.963 752.482 185.59C745.686 183.036 743.407 182.851 715.264 182.572C700.61 182.426 688.447 182.481 688.234 182.693ZM377.879 191.492C383.353 193.173 385.971 196.936 386.319 203.628C386.588 208.801 385.928 211.558 383.594 214.999C380.083 220.176 373.48 222.398 362.477 222.106L356.557 221.949L356.414 206.886C356.335 198.602 356.399 191.488 356.557 191.078C356.792 190.465 358.555 190.381 366.388 190.613C371.637 190.767 376.808 191.163 377.879 191.492ZM736.257 191.57C741.354 193.392 743.434 196.659 743.434 202.843C743.434 207.627 742.24 210.433 739.098 213.032C736.025 215.573 732.693 216.382 724.013 216.695L716.343 216.971V203.643V190.315L725.358 190.606C730.431 190.769 735.196 191.191 736.257 191.57ZM441.592 207.371C433.923 209.112 428.007 212.402 423.085 217.665C417.952 223.152 415.481 229.507 415.498 237.179C415.53 251.95 425.874 263.61 441.862 266.899C465.821 271.827 487.109 257.892 487.062 237.309C487.031 223.541 477.593 211.951 463.12 207.91C458.759 206.692 445.992 206.373 441.592 207.371ZM577.668 207.407C569.013 208.977 562.238 212.419 560.184 216.289C559.186 218.169 558.86 221.971 559.601 223.077C559.818 223.402 562.418 223.941 565.378 224.275C568.338 224.61 571.854 225.035 573.191 225.221L575.622 225.559L575.641 222.408C575.652 220.492 576.023 218.572 576.588 217.506C578.672 213.58 585.328 211.256 591.146 212.425C596.962 213.593 598.483 215.64 598.894 222.851C599.216 228.493 599.95 227.937 589.059 230.305C567.152 235.067 559.219 239.054 556.728 246.556C555.334 250.752 555.821 256.355 557.869 259.675C560.721 264.297 566.883 267.19 575.174 267.797C582.936 268.366 590.9 266.503 596.332 262.846L599.016 261.041V263.965V266.888H607.896H616.776V243.135C616.776 226.895 616.582 218.734 616.162 217.332C614.765 212.67 609.537 209.018 601.976 207.423C597.273 206.431 583.097 206.422 577.668 207.407ZM802.993 206.94C793.979 208.548 788.514 210.561 785.148 213.517C782.691 215.674 781.895 217.613 782.105 220.928L782.273 223.562L789.269 224.459C799.393 225.757 798.415 226.019 798.442 222.008C798.461 219.084 798.691 218.278 799.998 216.566C802.254 213.607 805.554 212.306 810.797 212.308C814.16 212.31 815.587 212.564 817.316 213.469C820.438 215.105 821.292 217.196 821.292 223.205C821.292 227.364 821.156 228.107 820.35 228.357C819.832 228.517 815.412 229.513 810.528 230.569C785.865 235.904 778.765 240.682 778.598 252.058C778.479 260.162 783.208 265.065 793.183 267.179C802.263 269.103 812.563 267.293 819.434 262.565L821.83 260.916V263.902V266.888H830.731H839.632L839.477 242.266L839.322 217.643L837.853 215.145C836.081 212.13 832.581 209.694 827.773 208.129C824.787 207.157 822.739 206.961 814.295 206.841C808.819 206.764 803.733 206.809 802.993 206.94ZM889.643 207.835C885.424 209.278 882.189 211.13 878.185 214.392C876.535 215.736 875.108 216.836 875.013 216.837C874.92 216.837 874.843 214.718 874.843 212.128V207.417L861.937 207.273C854.839 207.193 848.671 207.266 848.233 207.435C847.692 207.642 848.195 208.123 849.789 208.924C851.084 209.575 852.833 211.056 853.676 212.215C856.696 216.365 856.813 217.52 856.813 243.306V266.888H865.963H875.112L875.136 245.226L875.159 223.563L878.768 220.729C883.821 216.76 887.531 215.035 891.565 214.778C895.812 214.508 898.329 215.616 899.693 218.357C900.591 220.163 900.69 222.342 900.837 243.611L900.998 266.888H909.852H918.706V243.306C918.706 215.8 918.666 215.505 914.383 211.352C910.79 207.867 906.648 206.605 898.871 206.624C894.383 206.635 892.384 206.897 889.643 207.835ZM487.834 208.036C488.176 208.927 514.796 259.025 516.833 262.611L517.919 264.524L515.601 268.531C514.326 270.736 512.182 273.871 510.834 275.5C506.956 280.188 499.504 287.075 495.579 289.599C493.598 290.873 491.963 292.085 491.946 292.294C491.906 292.77 500.286 299.18 500.948 299.18C501.216 299.18 503.848 296.698 506.798 293.664C515.748 284.458 518.925 279.076 537.726 241.288C546.866 222.916 554.345 207.719 554.345 207.516C554.345 207.314 550.712 207.148 546.272 207.148C541.832 207.148 538.199 207.285 538.199 207.453C538.199 207.621 539.047 208.558 540.083 209.535C541.363 210.743 541.967 211.794 541.967 212.817C541.967 213.645 539.628 219.308 536.769 225.401C533.91 231.495 530.613 238.539 529.442 241.055L527.312 245.629L517.685 226.389L508.057 207.148H497.775C488.442 207.148 487.525 207.23 487.834 208.036ZM457.848 214.471C462.202 216.559 465.115 220.759 466.848 227.447C467.854 231.327 467.988 241.781 467.087 246.007C465.727 252.383 462.197 257.708 457.775 260.056C454.667 261.706 447.889 261.71 444.822 260.062C442.089 258.595 439.074 255.433 437.602 252.491C434.052 245.395 433.514 232.948 436.403 224.73C440.005 214.48 448.945 210.204 457.848 214.471ZM734.373 224.929C741.911 226.003 745.934 228.242 748.212 232.63C749.876 235.836 750.203 243.57 748.856 247.878C747.565 252.009 743.617 256.097 739.647 257.416C736.205 258.559 729.081 259.331 721.86 259.344L716.343 259.354V241.862V224.371L723.474 224.381C727.396 224.387 732.301 224.634 734.373 224.929ZM598.894 244.549C599.065 255.665 599.204 255.314 593.464 258.226C585.758 262.136 578.129 261.101 575.615 255.804C574.463 253.375 574.46 248.823 575.609 246.073C577.474 241.609 580.912 239.458 590.633 236.674C594.503 235.566 597.912 234.726 598.208 234.806C598.535 234.896 598.805 238.737 598.894 244.549ZM821.292 244.829V255.061L818.466 256.846C814.154 259.568 811.234 260.525 807.234 260.525C801.755 260.525 798.827 258.485 797.562 253.789C796.085 248.305 799.14 242.431 804.993 239.498C806.807 238.589 819.236 234.785 820.888 234.633C821.11 234.613 821.292 239.201 821.292 244.829Z" fill="#7B7B7B"/>
<path fill-rule="evenodd" clip-rule="evenodd" d="M0.00645895 160.518C0.0134555 334.685 -0.174377 323.809 2.91273 329.077C5.76627 333.946 9.25972 335.879 24.2879 340.909C49.1204 349.221 74.3689 354.385 103.603 357.133C115.905 358.29 143.385 358.719 155.809 357.949C188.989 355.893 220.432 349.99 247.841 340.674C263.021 335.514 267.08 332.833 269.768 326.191L270.983 323.189L271.122 161.594L271.261 0H135.631H0L0.00645895 160.518ZM75.3479 17.7606V24.7572H116.016H156.685L156.516 41.5759C156.351 57.9592 156.314 58.4678 155.065 61.2309C153.71 64.2281 151.194 66.5892 148.005 67.8545C146.567 68.4245 142.746 68.6037 131.859 68.6112C119.317 68.6193 117.367 68.735 115.689 69.5709C113.512 70.6559 111.945 72.9604 111.945 75.0782V76.5265L114.233 75.2026C119.741 72.0137 124.394 71.7769 132.934 74.25C141.196 76.6423 146.977 76.3419 150.285 73.3485C151.031 72.6736 151.407 72.6149 151.892 73.0993C152.376 73.5831 152.12 74.1472 150.802 75.5072C149.856 76.4835 149.081 77.4528 149.081 77.6611C149.081 77.8688 150.292 78.0389 151.772 78.0389H154.463V93.9158C154.463 102.648 154.567 109.793 154.694 109.793C154.821 109.793 158.932 107.371 163.829 104.411L172.732 99.0287H198.936H225.14L232.992 103.127C250.422 112.222 252.956 113.705 253.973 115.402C256.659 119.885 255.877 123.298 249.923 133.082C243.473 143.68 243.747 142.42 247.016 146.455C253.157 154.036 257.921 166.624 258.666 177.238C259.79 193.278 252.873 210.706 241.188 221.275L237.832 224.31L241.907 226.324C245.735 228.215 251.092 232.698 252.327 235.043C252.689 235.73 252.127 238.392 250.336 244.476C248.123 251.993 247.711 252.952 246.691 252.953C245.73 252.954 245.479 252.533 245.166 250.397C244.098 243.11 239.534 238.588 230.589 235.954C227.786 235.129 224.159 234.985 201.373 234.796C176.414 234.59 175.369 234.62 175.66 235.56C176.171 237.21 177.058 246.036 177.063 249.515C177.07 254.922 176.519 257.797 175.473 257.797C174.745 257.797 174.328 256.605 173.379 251.795C169.031 229.756 157.337 213.899 132.834 196.815C129.993 194.834 127.521 193.214 127.342 193.214C127.162 193.214 127.015 196.362 127.015 200.21C127.015 206.735 126.946 207.207 125.988 207.207C125.259 207.207 124.207 205.862 122.355 202.564C115.571 190.476 103.025 177.914 84.5845 164.742C78.4695 160.374 77.378 159.803 77.5411 161.056C77.589 161.426 77.5997 164.817 77.5642 168.591C77.5071 174.745 77.4033 175.452 76.5588 175.448C75.9033 175.444 74.9943 174.081 73.5665 170.957C71.186 165.752 66.9923 159.171 62.7508 153.987C59.8117 150.394 47.9482 138.499 39.5576 130.732C28.3297 120.338 20.6055 110.571 17.2627 102.54C14.4754 95.8457 13.8667 92.8415 13.5955 84.4499C13.3732 77.5696 13.4857 76.0745 14.505 72.3593C15.1444 70.0278 16.4414 66.6581 17.3871 64.8718C19.0302 61.7675 25.2119 54.8963 26.3615 54.8963C26.6635 54.8963 26.91 56.0464 26.91 57.4517C26.91 59.3644 26.3648 61.0915 24.7432 64.3137C21.205 71.3469 20.3246 77.5997 21.7497 85.5855C23.2588 94.0439 26.9719 100.873 34.4232 108.897C47.0935 122.539 58.5249 131.338 98.6928 158.364C139.481 185.807 146.707 191.057 156.173 200.128C164.604 208.208 170.99 218.168 173.616 227.34C174.296 229.714 174.901 230.884 175.446 230.876C175.894 230.87 187.807 229.087 201.919 226.914L227.579 222.965L230.182 221.053C234.371 217.978 241.232 210.375 240.488 209.631C240.251 209.394 221.006 207.745 218.479 207.745C217.316 207.745 216.845 208.261 215.56 210.95C214.159 213.881 212.877 215.21 212.151 214.483C211.995 214.327 212.15 212.97 212.497 211.469C213.433 207.412 213.424 207.392 210.363 207.029C205.82 206.491 205.969 205.775 210.747 205.178L213.91 204.783L214.552 201.017C214.904 198.945 215.366 194.67 215.578 191.517L215.964 185.784L211.989 185.451C206.224 184.968 190.638 184.07 187.966 184.067L185.679 184.064V188.409C185.679 192.257 185.571 192.734 184.737 192.575C184.009 192.436 183.623 191.389 183.039 187.961L182.284 183.526H179.137C176.35 183.526 175.991 183.403 175.991 182.45C175.991 181.675 176.35 181.373 177.269 181.373C177.972 181.373 179.26 181.23 180.13 181.057L181.713 180.74L181.48 170.158C181.351 164.338 181.168 159.489 181.071 159.382C180.878 159.169 164.509 158.306 164.272 158.497C164.191 158.563 164.632 159.801 165.254 161.249C167.624 166.769 168.6 172.521 168.577 180.835C168.555 189.056 168.11 191.764 166.738 192.028C165.851 192.2 165.247 190.707 165.235 188.315C165.22 185.51 162.379 175.609 160.317 171.178C156.852 163.731 151.657 157.548 142.942 150.5C138.148 146.623 127.995 139.394 127.344 139.394C127.163 139.394 127.015 142.559 127.015 146.428C127.015 153.32 126.992 153.458 125.858 153.29C124.984 153.16 124.284 152.127 123.003 149.081C117.278 135.465 107.307 126.339 84.7664 114.082C74.3802 108.434 69.4035 104.98 65.9235 101.002C63.1162 97.7924 60.2143 92.4777 58.9689 88.2647C57.8521 84.487 57.1611 73.7333 58.0351 73.7333C58.372 73.7333 59.8117 74.4496 61.2342 75.3247C63.6835 76.8317 63.8573 77.0965 64.5102 80.3031C67.4714 94.8463 80.0964 104.192 95.2613 103.067C102.241 102.55 107.767 101.799 115.38 100.335C125.389 98.4108 132.015 97.8258 136.535 98.4668C138.614 98.7617 140.713 99.1557 141.199 99.3424C141.981 99.6422 142.085 99.1078 142.085 94.7806V89.8793H139.056C136.791 89.8793 135.196 90.284 132.732 91.4831C121.572 96.9151 107.556 92.8819 102.845 82.8827C101.635 80.3139 101.451 79.2116 101.451 74.5406C101.451 68.3249 102.383 65.8944 105.875 63.0054C109.696 59.8445 113.373 59.1217 127.577 58.7374C141.869 58.351 142.657 58.1433 143.67 54.4975C143.979 53.3851 144.233 49.1446 144.234 45.0742L144.237 37.6739H122.709H101.181V46.0736C101.181 53.8544 101.112 54.4464 100.24 54.1062C99.7213 53.905 96.0885 52.518 92.1666 51.0245L85.0355 48.3093V46.2211V44.1323H88.9374L92.8394 44.1329V40.9047V37.6772L78.4582 37.6756L64.0769 37.6739L63.9268 30.5428L63.7766 23.4117L57.3182 23.4397C51.7995 23.4633 50.5391 23.635 48.6559 24.6189C43.9041 27.1016 41.563 31.6063 42.2002 37.041C42.8789 42.824 45.8756 46.2485 50.6596 46.7082L53.2817 46.96V50.9282V54.8963H50.6887C42.5479 54.8963 34.6541 49.3394 31.7435 41.5592C26.9315 28.6979 34.1757 15.322 47.96 11.6149C50.0687 11.0476 54.201 10.8253 63.1039 10.7995L75.3479 10.764V17.7606ZM122.677 79.3236C119.466 80.1739 116.485 82.2551 117.303 83.0737C117.632 83.402 119.67 83.7599 121.834 83.8692C124.977 84.028 126.191 83.8525 127.871 82.9946C129.911 81.9537 132.26 79.8435 131.811 79.4565C131.117 78.858 124.781 78.766 122.677 79.3236ZM128.091 110.676C119.259 112.435 110.719 114.098 110.518 114.098C109.649 114.098 111.844 115.677 119.407 120.493L127.961 125.941L137.983 119.885C143.495 116.555 148.005 113.696 148.005 113.533C148.005 113.37 146.491 112.68 144.641 111.999C142.075 111.056 139.873 110.72 135.357 110.585C132.101 110.487 128.831 110.528 128.091 110.676ZM157.592 121.787C147.621 127.771 139.446 132.813 139.428 132.993C139.409 133.172 141.634 135.031 144.372 137.125C147.11 139.217 151.108 142.613 153.255 144.67L157.16 148.41L159.043 145.846C166.143 136.173 179.105 128.387 192.69 125.634C198.148 124.528 211.011 124.828 215.818 126.174C217.446 126.629 219.02 127.004 219.316 127.005C219.808 127.007 222.276 123.815 222.276 123.177C222.276 123.027 221.305 121.603 220.119 120.013C218.817 118.267 218.157 116.926 218.453 116.629C218.75 116.333 221.259 117.368 224.782 119.241C227.992 120.948 230.721 122.429 230.847 122.531C230.972 122.634 230.506 124.53 229.811 126.746C229.116 128.962 228.65 130.852 228.776 130.945C230.186 132.003 234.741 134.64 234.886 134.485C235.505 133.822 242.801 121.534 242.647 121.414C242.543 121.334 237.937 118.929 232.41 116.069L222.36 110.869L199.041 110.888L175.722 110.908L157.592 121.787ZM20.9898 129.566C20.9898 129.745 20.599 131.969 20.1211 134.508C18.0189 145.678 21.4381 154.089 32.194 164.209C38.4893 170.132 47.9778 176.913 66.7367 188.895C91.2646 204.561 101.705 212.409 110.761 221.986C118.56 230.234 123.087 238.035 125.671 247.676C126.408 250.431 127.013 252.745 127.013 252.819C127.014 252.893 126.534 252.954 125.946 252.954C125.185 252.954 124.426 252.059 123.305 249.837C119.567 242.433 111.218 233.228 101.866 226.201C96.9426 222.503 79.1304 211.512 78.0583 211.512C77.7004 211.512 77.5007 214.209 77.5007 219.047C77.5007 225.865 77.4114 226.582 76.5588 226.579C75.9076 226.578 74.7457 224.875 72.7941 221.063C67.1694 210.074 58.7321 200.027 47.784 191.28C44.1474 188.375 38.886 184.17 36.0911 181.936C26.0327 173.896 20.3278 167.132 16.4619 158.665C13.9754 153.22 13.2311 149.693 13.2456 143.43C13.2558 139.006 13.5158 137.301 14.7074 133.85C15.5044 131.541 16.5437 129.061 17.0173 128.338L17.8779 127.025L19.4338 128.133C20.2896 128.743 20.9898 129.387 20.9898 129.566ZM197.1 136.079C196.35 136.555 193.457 144.326 191.684 150.629L190.567 154.598L195.254 154.269C197.832 154.088 202.544 153.782 205.727 153.59C209.945 153.335 211.512 153.05 211.512 152.538C211.512 151.469 208.925 144.474 206.8 139.797L204.904 135.626L201.346 135.634C199.389 135.639 197.479 135.839 197.1 136.079ZM218.804 139.797C219.03 140.315 220.002 143.403 220.964 146.659L222.711 152.579L227.741 152.423C233.74 152.237 236.808 151.837 236.808 151.24C236.808 150.783 231.98 146.521 228.735 144.113C226.755 142.644 219.645 138.862 218.855 138.858C218.601 138.856 218.579 139.279 218.804 139.797ZM178.951 142.181C175.257 144.346 164.374 154.593 164.887 155.425C165.017 155.636 167.871 155.647 171.23 155.45C174.589 155.253 178.317 155.071 179.515 155.047L181.693 155.001L182.372 149.485C182.744 146.451 183.183 143.06 183.347 141.95C183.51 140.84 183.436 139.941 183.181 139.953C182.927 139.965 181.023 140.968 178.951 142.181ZM189.18 160.383C188.272 163.302 185.782 180.844 186.277 180.828C186.392 180.825 192.783 180.466 200.479 180.03C208.175 179.594 214.81 179.234 215.222 179.229C215.834 179.222 215.906 178.338 215.611 174.435C215.286 170.124 213.908 160.943 213.542 160.647C213.462 160.581 208.004 160.314 201.413 160.052C190.953 159.636 189.399 159.679 189.18 160.383ZM224.233 161.297C224.174 161.356 224.326 163.899 224.569 166.948C224.813 169.998 224.865 173.921 224.685 175.667L224.358 178.84L230.179 178.496C233.381 178.308 238.843 177.995 242.318 177.801L248.636 177.449L248.311 175.24C247.983 173.016 245.157 163.854 244.44 162.694C244.189 162.287 240.646 161.919 234.197 161.631C228.774 161.389 224.291 161.239 224.233 161.297ZM222.892 189.728C222.522 191.737 221.487 195.665 220.592 198.458C219.697 201.252 219.082 203.654 219.225 203.796C219.557 204.129 243.147 201.249 244.717 200.684C246.062 200.2 247.749 195.486 248.377 190.451L248.751 187.457L242.645 187.119C239.287 186.934 233.619 186.623 230.052 186.429L223.565 186.077L222.892 189.728ZM236.179 259.681C241.303 260.907 245.009 262.635 244.73 263.667C244.602 264.139 243.817 266.87 242.985 269.737L241.471 274.95L239.005 272.324C237.548 270.774 235.217 269.081 233.309 268.188C230.29 266.776 229.626 266.678 223.074 266.678C216.227 266.678 215.987 266.718 212.433 268.467C209.69 269.816 208.28 270.941 206.701 273.041C202.903 278.092 200.895 286.863 201.5 295.763C202.321 307.845 206.471 314.914 215.165 319.042C218.986 320.857 219.662 320.998 225.474 321.197C232.613 321.441 237.288 320.588 241.791 318.22C243.342 317.404 244.793 316.654 245.015 316.554C245.237 316.454 245.419 318.07 245.419 320.147C245.419 323.655 245.313 323.998 243.933 324.98C239.704 327.991 230.56 329.618 220.021 329.235C211.188 328.913 207.756 328.142 201.463 325.062C193.526 321.177 188.344 314.578 185.834 305.159C184.544 300.318 184.575 288.498 185.892 283.631C188.809 272.849 196.123 264.934 206.51 261.32C208.521 260.62 211.62 259.787 213.396 259.467C215.172 259.148 217.231 258.778 217.971 258.646C220.578 258.18 232.812 258.875 236.179 259.681ZM75.4916 260.656C82.2519 262.616 85.6453 265.161 87.832 269.907C88.8432 272.102 89.0677 273.491 89.0494 277.442C89.03 281.599 88.8266 282.667 87.6156 284.976C85.1867 289.609 80.5227 293.212 74.3964 295.188L71.5617 296.102L74.1735 299.42C75.6105 301.244 81.3031 308.489 86.8234 315.519L96.8613 328.302L86.7776 328.284L76.6934 328.267L73.4642 323.811C71.6881 321.36 66.7351 314.587 62.4569 308.758L54.6789 298.162H51.8275H48.9761V313.232V328.302H40.9031H32.8302V300.414C32.8302 282.955 32.6149 271.332 32.2543 269.333C31.5487 265.421 29.6359 262.359 27.1597 261.178C26.1344 260.689 25.2954 260.074 25.2954 259.811C25.2954 259.536 35.3069 259.422 48.8416 259.544C68.8174 259.724 72.8587 259.892 75.4916 260.656ZM148.812 259.97C155.228 260.884 159.205 262.486 161.982 265.276C164.759 268.065 165.768 270.685 165.76 275.082C165.75 280.741 162.225 285.779 156.391 288.47L153.206 289.94L155.621 290.302C159.066 290.819 164.088 293.383 166.412 295.811C169.523 299.063 170.768 302.449 170.737 307.564C170.672 318.123 164.367 324.974 152.41 327.478C149.315 328.126 144.51 328.302 129.94 328.302H111.407V299.068C111.407 266.013 111.384 265.779 107.729 262.566C106.597 261.572 105.206 260.469 104.637 260.117C103.309 259.293 143.132 259.161 148.812 259.97ZM48.9761 279.084V291.834L55.5691 291.555C63.1485 291.235 65.3778 290.626 68.3831 288.053C71.6322 285.272 72.7166 282.721 72.7166 277.859C72.7166 272.643 71.2522 269.469 68.0757 267.804C66.2147 266.827 64.8035 266.655 57.4528 266.506L48.9761 266.334V279.084ZM127.553 276.928V287.546L133.877 287.243C141.11 286.896 143.525 286.313 145.855 284.353C148.377 282.231 149.277 280.061 149.291 276.067C149.305 271.884 148.125 269.436 145.295 267.773C143.696 266.834 142.297 266.651 135.492 266.494L127.553 266.31V276.928ZM127.553 307.843V321.958L135.761 321.745C142.848 321.561 144.335 321.366 146.653 320.316C151.776 317.994 153.948 314.7 154.339 308.657C154.65 303.84 153.808 300.785 151.45 298.174C148.602 295.021 145.954 294.303 136.03 293.993L127.553 293.728V307.843ZM279.464 327.898C279.59 328.268 280.276 328.597 280.99 328.629C281.702 328.661 282.589 328.722 282.958 328.763C283.446 328.819 283.631 330.315 283.631 334.222C283.631 338.647 283.775 339.604 284.438 339.604C285.105 339.604 285.246 338.619 285.246 333.975V328.347L287.129 328.495C288.404 328.596 289.013 328.415 289.013 327.934C289.013 327.399 287.811 327.225 284.125 327.225C280.45 327.225 279.293 327.392 279.464 327.898ZM291.397 327.936C290.834 329.404 291.422 339.243 292.087 339.463C292.559 339.62 292.782 338.297 292.894 334.664C292.98 331.904 293.205 330.01 293.395 330.454C293.585 330.898 294.397 333.138 295.199 335.433C296.001 337.727 296.939 339.604 297.282 339.604C297.626 339.604 298.61 337.535 299.469 335.006C300.327 332.478 301.171 330.321 301.345 330.214C301.519 330.107 301.661 332.095 301.661 334.631C301.661 337.843 301.865 339.313 302.333 339.469C302.846 339.64 303.006 338.208 303.006 333.459C303.006 327.673 302.932 327.225 301.974 327.225C301.149 327.225 300.601 328.249 299.239 332.338C298.302 335.15 297.454 337.451 297.355 337.451C297.256 337.451 296.408 335.15 295.471 332.338C294.096 328.211 293.566 327.225 292.719 327.225C292.142 327.225 291.547 327.545 291.397 327.936Z" fill="#7B7B7B"/>
</svg>
