<svg width="127" height="38" viewBox="0 0 127 38" fill="none" xmlns="http://www.w3.org/2000/svg">
<path d="M49.5277 20.9722V29.1952H44.9014V7.14626H54.1175C58.8167 7.14626 61.9494 9.62455 61.9494 14.1491C61.9494 17.6686 59.9822 19.895 56.8494 20.6492L62.7507 29.1952H57.5052L51.9682 20.9722H49.5277ZM49.5277 17.2014H53.8264C56.1575 17.2014 57.3597 15.9809 57.3597 14.1491C57.3597 12.2817 56.1575 11.0608 53.8264 11.0608H49.5277V17.2014ZM70.3982 21.5471V29.1952H65.7726V7.14626H74.8791C79.6146 7.14626 82.7471 9.66014 82.7471 14.3649C82.7471 19.0332 79.6146 21.5471 74.8791 21.5471H70.3982ZM74.5878 11.0608H70.3982V17.6325H74.5878C76.992 17.6325 78.158 16.2675 78.158 14.3649C78.158 12.3898 76.992 11.0608 74.5878 11.0608ZM90.6866 20.9722V29.1952H86.0607V7.14626H95.2771C99.9758 7.14626 103.108 9.62455 103.108 14.1491C103.108 17.6686 101.141 19.895 98.0087 20.6492L103.909 29.1952H98.6662L93.1275 20.9722H90.6866ZM90.6866 17.2014H94.9858C97.3171 17.2014 98.5192 15.9809 98.5192 14.1491C98.5192 12.2817 97.3171 11.0608 94.9858 11.0608H90.6866V17.2014ZM118.333 7.14626L126.893 29.1952H122.158L120.155 23.8804H111.776L109.81 29.1952H105.146L113.707 7.14551L118.333 7.14626ZM113.233 20.0027H118.697L115.966 12.6768L113.233 20.0027Z" fill="#111111"/>
<path d="M32.6289 30.86C32.5206 30.9104 32.4115 30.9591 32.3016 31.006L30.9807 32.9045C31.1881 32.7252 31.3918 32.5407 31.5919 32.3509L32.6289 30.86ZM13.8516 18.2561L13.1024 16.9514L3.99443 30.0304C4.27749 30.4062 4.57576 30.7716 4.88924 31.1265L13.8516 18.2561ZM1.54833 24.0543L7.17472 15.9742C5.6816 16.7947 4.39706 17.9507 3.42114 19.3522C2.44524 20.7537 1.80432 22.3628 1.54833 24.0543ZM16.3422 22.5937L15.7223 21.5142L7.38627 33.4853C7.68032 33.7151 7.98316 33.9368 8.29464 34.1504L16.3422 22.5937ZM17.0323 23.7957L9.35044 34.8272C9.4081 34.8613 9.46357 34.8977 9.52122 34.9311C9.75694 35.0679 9.9945 35.1965 10.2336 35.3231L17.5865 24.7622L17.0323 23.7957ZM10.7867 14.7443C9.9638 14.8708 9.15795 15.0913 8.38476 15.4013L1.43408 25.3825C1.656 25.966 1.90669 26.538 2.18522 27.0964L10.7867 14.7443ZM14.4123 19.2328L5.59776 31.8913C5.89254 32.1893 6.19739 32.477 6.5118 32.7539L15.0971 20.4249L14.4123 19.2328ZM12.6065 16.0876L11.7928 14.6699L2.59585 27.8767C2.85679 28.3458 3.13822 28.804 3.44013 29.2512L12.6065 16.0876ZM26.4961 31.7533C26.3422 31.7318 26.1888 31.7065 26.0361 31.6775L22.2472 37.1208C22.4482 37.0828 22.6477 37.0388 22.8472 36.9945L26.4961 31.7533ZM29.2175 31.8018C29.087 31.8159 28.9561 31.8257 28.8257 31.8352L25.9049 36.0295C26.0821 35.9567 26.2575 35.8801 26.4328 35.8021L29.2175 31.8018ZM24.1594 31.1523C23.9875 31.0873 23.817 31.0183 23.6481 30.9453L19.1269 37.4377C19.3511 37.434 19.5752 37.426 19.7992 37.4138L24.1594 31.1523ZM18.8482 26.9087C18.7178 26.7129 18.5935 26.5129 18.4757 26.3092L18.3422 26.0772L11.4889 35.9192C11.7694 36.0405 12.0516 36.1543 12.3354 36.2604L18.8482 26.9087ZM20.3422 28.7199C20.1537 28.5368 19.9727 28.3476 19.7977 28.1512L13.8116 36.7462C14.0766 36.822 14.3427 36.8906 14.6099 36.9521L20.3422 28.7199ZM22.1156 30.1304C21.9319 30.0129 21.7515 29.8894 21.5745 29.76L16.3437 37.2725C16.5903 37.3058 16.8369 37.3339 17.0835 37.3566L22.1156 30.1304Z" fill="#777777"/>
<path d="M1.58226 23.8261C1.59809 23.7321 1.61619 23.6388 1.63467 23.5459L0.399744 21.3971C0.424631 21.5704 0.454797 21.7433 0.484586 21.9162L1.58226 23.8261ZM1.07471 13.0945C1.01702 13.2799 0.961588 13.4658 0.910683 13.6527L3.85188 18.774C3.94502 18.6573 4.04042 18.542 4.13808 18.429L1.07471 13.0945ZM2.19463 10.3069C2.09697 10.5021 2.00609 10.6997 1.91409 10.8984L5.48462 17.1167C5.62439 17.002 5.76693 16.8903 5.91223 16.7819L2.19463 10.3069ZM18.0469 0.0140222C17.5065 0.0365528 16.966 0.0824306 16.4255 0.151656L24.7276 14.6142H25.8716C25.9602 14.4353 26.0421 14.2544 26.1201 14.0724L18.0469 0.0140222ZM3.57813 7.97846C3.43861 8.17912 3.30348 8.38224 3.17277 8.58774L7.35603 15.8738C7.55016 15.7724 7.74722 15.6768 7.94693 15.5872L3.57813 7.97846ZM0.338281 16.5499C0.318296 16.722 0.300573 16.8949 0.286621 17.0678L2.50308 20.9277C2.55549 20.8181 2.60829 20.7086 2.66409 20.6009L0.338281 16.5499ZM6.92317 4.32668C6.68989 4.52108 6.46213 4.72038 6.23991 4.92459L11.815 14.6359C12.0322 14.6222 12.2497 14.6152 12.4673 14.6146H12.8293L6.92317 4.32668ZM21.806 0.240416C21.7476 0.230887 21.6888 0.224488 21.6291 0.215367L27.0214 9.60882C27.0105 7.7313 26.5264 5.8872 25.6143 4.24881C24.7022 2.61048 23.392 1.23135 21.806 0.240416ZM13.1159 0.899383C12.718 1.02878 12.3229 1.17261 11.9307 1.33087L19.5579 14.6142H20.9908L13.1159 0.899383ZM15.4911 0.29841C15.0258 0.383359 14.5624 0.486619 14.1008 0.608188L22.1427 14.6142H23.711L15.4911 0.29841ZM20.8237 0.10959C20.192 0.0403645 19.5572 0.00381181 18.9217 0L26.4712 13.1488C26.7199 12.3882 26.8856 11.6028 26.9655 10.8063L20.8237 0.10959ZM5.16373 6.00183C4.97897 6.20256 4.79923 6.40663 4.62452 6.61417L9.45899 15.0343C9.71663 14.9605 9.97685 14.8961 10.2392 14.8413L5.16373 6.00183ZM8.83685 2.92298C8.55124 3.10499 8.2725 3.29381 8.0005 3.48944L14.3893 14.6142H15.5511L8.83685 2.92298ZM10.9009 1.78209C10.5623 1.94396 10.2284 2.11576 9.8998 2.29736L16.9726 14.6142H18.2702L10.9009 1.78209ZM35.3759 10.1317H27.0176C27.0084 10.3513 26.9924 10.5706 26.9697 10.7892H35.6987C35.5951 10.5675 35.4875 10.3483 35.3759 10.1317Z" fill="#777777"/>
<path d="M36.3506 12.3794H26.6925C26.6279 12.6407 26.5535 12.8994 26.4697 13.1551H36.6089C36.5282 12.894 36.4421 12.6354 36.3506 12.3794ZM34.0146 7.88476H26.8796C26.909 8.06371 26.9341 8.24355 26.955 8.42427H34.3834C34.264 8.24307 34.1411 8.06317 34.0146 7.88476ZM32.1446 5.63743H26.2668C26.3207 5.77697 26.3727 5.91725 26.421 6.05904H32.5436C32.4132 5.91535 32.2797 5.77615 32.1446 5.63743ZM29.5176 3.39009H25.0877C25.156 3.49056 25.2238 3.59144 25.2887 3.6934H29.9377C29.7993 3.59028 29.6605 3.48866 29.5176 3.39009ZM23.2694 1.32743H25.7366C25.5742 1.26297 25.4108 1.20102 25.2464 1.1416H23.0545C23.1273 1.20382 23.1985 1.26596 23.2694 1.32743ZM37.0003 14.6267H25.8645C25.7641 14.8302 25.6578 15.0306 25.5454 15.2277L25.3772 15.5204H37.1745C37.1232 15.2201 37.0651 14.9222 37.0003 14.6267ZM34.9316 28.1106H19.7675C20.2911 28.7062 20.8773 29.2432 21.5156 29.7122H33.8913C34.2649 29.1965 34.6121 28.6619 34.9316 28.1106ZM36.041 25.8633H19.4391L18.8433 26.9003C18.9436 27.052 19.0477 27.2014 19.154 27.347H35.3513C35.6017 26.8639 35.8316 26.3694 36.041 25.8633ZM22.4961 30.358C24.1246 31.3095 25.9681 31.8264 27.8512 31.8596C29.7345 31.8928 31.5949 31.4411 33.2555 30.5475C33.3061 30.4853 33.3532 30.4209 33.4029 30.358H22.4961ZM36.8023 23.616H20.7294L19.9451 24.981H36.3759C36.5342 24.5324 36.6775 24.0774 36.8023 23.616ZM37.4392 19.1214H23.3097L22.6612 20.2509H37.3838C37.4137 19.875 37.4322 19.4983 37.4392 19.1214ZM37.2593 21.3686H22.0194L21.303 22.6161H37.0399C37.1266 22.2051 37.1998 21.7893 37.2593 21.3686ZM37.357 16.8733H24.6001L24.0194 17.8857H37.4283C37.4146 17.5476 37.3908 17.2099 37.357 16.8733Z" fill="#777777"/>
</svg>
