<svg width="125" height="18" viewBox="0 0 125 18" fill="none" xmlns="http://www.w3.org/2000/svg">
<path d="M34.0617 12.0441C34.2205 11.6578 34.2972 11.2419 34.2865 10.8247C34.3013 10.2109 34.09 9.61195 33.6929 9.14221C33.2501 8.65497 32.4923 8.24983 31.4424 7.9416C31.2392 7.88911 31.0413 7.81777 30.8502 7.73029C30.6847 7.64953 30.5366 7.53916 30.4114 7.40456C30.2809 7.2565 30.2122 7.06403 30.2216 6.86617C30.2257 6.57813 30.3872 6.31432 30.6429 6.18107C31.1665 5.95091 31.7628 5.95091 32.285 6.18107C32.5179 6.26587 32.7413 6.37085 32.9553 6.49468L33.8369 4.73819C33.4426 4.49457 33.0186 4.30748 32.5731 4.17961C32.1141 4.06116 31.643 4.0006 31.1692 4.0006C30.7183 3.99252 30.2701 4.06655 29.8461 4.21864C29.4692 4.36535 29.126 4.59013 28.8393 4.87548C28.5513 5.16352 28.3225 5.50674 28.169 5.88361C28.0169 6.27125 27.9416 6.68581 27.9443 7.10172C27.9685 7.76663 28.2498 8.3952 28.7263 8.85821C29.1812 9.25662 29.7142 9.55542 30.2916 9.73309C30.5662 9.83808 30.8704 9.9323 31.0642 10.0063C31.2634 10.0817 31.4546 10.1773 31.6322 10.2944C31.7601 10.3859 31.8637 10.5057 31.9351 10.6457C31.997 10.7789 32.0199 10.9256 32.001 11.071C31.9808 11.2917 31.8745 11.4963 31.7063 11.6403C31.4303 11.8409 31.0911 11.9338 30.752 11.9028C30.3509 11.892 29.9565 11.7978 29.5931 11.6255C29.2754 11.4734 28.9672 11.3025 28.6697 11.1127L27.6172 12.9217C28.4477 13.6041 29.4854 13.9823 30.5581 13.9931C31.0898 13.9931 31.6188 13.9096 32.1235 13.7441C32.5583 13.5987 32.9607 13.3739 33.3107 13.0805C33.631 12.7911 33.8867 12.4385 34.0617 12.0441Z" fill="#EB0F19"/>
<path d="M34.0617 12.0441C34.2205 11.6578 34.2972 11.2419 34.2865 10.8247C34.3013 10.2109 34.09 9.61195 33.6929 9.14221C33.2501 8.65497 32.4923 8.24983 31.4424 7.9416C31.2392 7.88911 31.0413 7.81777 30.8502 7.73029C30.6847 7.64953 30.5366 7.53916 30.4114 7.40456C30.2809 7.2565 30.2122 7.06403 30.2216 6.86617C30.2257 6.57813 30.3872 6.31432 30.6429 6.18107C31.1665 5.95091 31.7628 5.95091 32.285 6.18107C32.5179 6.26587 32.7413 6.37085 32.9553 6.49468L33.8369 4.73819C33.4426 4.49457 33.0186 4.30748 32.5731 4.17961C32.1141 4.06116 31.643 4.0006 31.1692 4.0006C30.7183 3.99252 30.2701 4.06655 29.8461 4.21864C29.4692 4.36535 29.126 4.59013 28.8393 4.87548C28.5513 5.16352 28.3225 5.50674 28.169 5.88361C28.0169 6.27125 27.9416 6.68581 27.9443 7.10172C27.9685 7.76663 28.2498 8.3952 28.7263 8.85821C29.1812 9.25662 29.7142 9.55542 30.2916 9.73309C30.5662 9.83808 30.8704 9.9323 31.0642 10.0063C31.2634 10.0817 31.4546 10.1773 31.6322 10.2944C31.7601 10.3859 31.8637 10.5057 31.9351 10.6457C31.997 10.7789 32.0199 10.9256 32.001 11.071C31.9808 11.2917 31.8745 11.4963 31.7063 11.6403C31.4303 11.8409 31.0911 11.9338 30.752 11.9028C30.3509 11.892 29.9565 11.7978 29.5931 11.6255C29.2754 11.4734 28.9672 11.3025 28.6697 11.1127L27.6172 12.9217C28.4477 13.6041 29.4854 13.9823 30.5581 13.9931C31.0898 13.9931 31.6188 13.9096 32.1235 13.7441C32.5583 13.5987 32.9607 13.3739 33.3107 13.0805C33.631 12.7911 33.8867 12.4385 34.0617 12.0441Z" fill="white"/>
<path d="M34.0617 12.0441C34.2205 11.6578 34.2972 11.2419 34.2865 10.8247C34.3013 10.2109 34.09 9.61195 33.6929 9.14221C33.2501 8.65497 32.4923 8.24983 31.4424 7.9416C31.2392 7.88911 31.0413 7.81777 30.8502 7.73029C30.6847 7.64953 30.5366 7.53916 30.4114 7.40456C30.2809 7.2565 30.2122 7.06403 30.2216 6.86617C30.2257 6.57813 30.3872 6.31432 30.6429 6.18107C31.1665 5.95091 31.7628 5.95091 32.285 6.18107C32.5179 6.26587 32.7413 6.37085 32.9553 6.49468L33.8369 4.73819C33.4426 4.49457 33.0186 4.30748 32.5731 4.17961C32.1141 4.06116 31.643 4.0006 31.1692 4.0006C30.7183 3.99252 30.2701 4.06655 29.8461 4.21864C29.4692 4.36535 29.126 4.59013 28.8393 4.87548C28.5513 5.16352 28.3225 5.50674 28.169 5.88361C28.0169 6.27125 27.9416 6.68581 27.9443 7.10172C27.9685 7.76663 28.2498 8.3952 28.7263 8.85821C29.1812 9.25662 29.7142 9.55542 30.2916 9.73309C30.5662 9.83808 30.8704 9.9323 31.0642 10.0063C31.2634 10.0817 31.4546 10.1773 31.6322 10.2944C31.7601 10.3859 31.8637 10.5057 31.9351 10.6457C31.997 10.7789 32.0199 10.9256 32.001 11.071C31.9808 11.2917 31.8745 11.4963 31.7063 11.6403C31.4303 11.8409 31.0911 11.9338 30.752 11.9028C30.3509 11.892 29.9565 11.7978 29.5931 11.6255C29.2754 11.4734 28.9672 11.3025 28.6697 11.1127L27.6172 12.9217C28.4477 13.6041 29.4854 13.9823 30.5581 13.9931C31.0898 13.9931 31.6188 13.9096 32.1235 13.7441C32.5583 13.5987 32.9607 13.3739 33.3107 13.0805C33.631 12.7911 33.8867 12.4385 34.0617 12.0441Z" fill="black"/>
<path d="M39.7445 11.4794C39.2155 12.139 38.2531 12.2453 37.5936 11.7177C36.9341 11.1887 36.8264 10.225 37.354 9.56545C37.883 8.90458 38.8453 8.79825 39.5049 9.32587C39.5924 9.39586 39.6731 9.47527 39.7445 9.56141L41.116 8.18448C40.4605 7.46035 39.5278 7.04848 38.5506 7.04983C36.638 7.0431 34.9878 8.40926 34.9878 10.5171C34.9878 12.6235 36.6555 13.9937 38.5681 13.9937C39.5466 13.9937 40.4794 13.5805 41.1375 12.8564L39.7445 11.4794Z" fill="#EB0F19"/>
<path d="M39.7445 11.4794C39.2155 12.139 38.2531 12.2453 37.5936 11.7177C36.9341 11.1887 36.8264 10.225 37.354 9.56545C37.883 8.90458 38.8453 8.79825 39.5049 9.32587C39.5924 9.39586 39.6731 9.47527 39.7445 9.56141L41.116 8.18448C40.4605 7.46035 39.5278 7.04848 38.5506 7.04983C36.638 7.0431 34.9878 8.40926 34.9878 10.5171C34.9878 12.6235 36.6555 13.9937 38.5681 13.9937C39.5466 13.9937 40.4794 13.5805 41.1375 12.8564L39.7445 11.4794Z" fill="white"/>
<path d="M39.7445 11.4794C39.2155 12.139 38.2531 12.2453 37.5936 11.7177C36.9341 11.1887 36.8264 10.225 37.354 9.56545C37.883 8.90458 38.8453 8.79825 39.5049 9.32587C39.5924 9.39586 39.6731 9.47527 39.7445 9.56141L41.116 8.18448C40.4605 7.46035 39.5278 7.04848 38.5506 7.04983C36.638 7.0431 34.9878 8.40926 34.9878 10.5171C34.9878 12.6235 36.6555 13.9937 38.5681 13.9937C39.5466 13.9937 40.4794 13.5805 41.1375 12.8564L39.7445 11.4794Z" fill="black"/>
<path d="M44.6748 7.04297C42.7554 7.04028 41.1981 8.59622 41.1968 10.5169C41.1954 12.439 42.7514 13.9963 44.6707 13.9976C46.5901 13.9976 48.146 12.4403 48.146 10.5196C48.146 8.60026 46.5928 7.04432 44.6748 7.04297ZM44.6748 12.0513C43.8295 12.046 43.1484 11.3555 43.1525 10.5089C43.1565 9.66358 43.8443 8.97983 44.6896 8.98117C45.5348 8.98386 46.2199 9.67031 46.2199 10.5169C46.2199 10.9248 46.0571 11.3178 45.7664 11.6058C45.477 11.8939 45.0839 12.054 44.6748 12.0513Z" fill="#EB0F19"/>
<path d="M44.6748 7.04297C42.7554 7.04028 41.1981 8.59622 41.1968 10.5169C41.1954 12.439 42.7514 13.9963 44.6707 13.9976C46.5901 13.9976 48.146 12.4403 48.146 10.5196C48.146 8.60026 46.5928 7.04432 44.6748 7.04297ZM44.6748 12.0513C43.8295 12.046 43.1484 11.3555 43.1525 10.5089C43.1565 9.66358 43.8443 8.97983 44.6896 8.98117C45.5348 8.98386 46.2199 9.67031 46.2199 10.5169C46.2199 10.9248 46.0571 11.3178 45.7664 11.6058C45.477 11.8939 45.0839 12.054 44.6748 12.0513Z" fill="white"/>
<path d="M44.6748 7.04297C42.7554 7.04028 41.1981 8.59622 41.1968 10.5169C41.1954 12.439 42.7514 13.9963 44.6707 13.9976C46.5901 13.9976 48.146 12.4403 48.146 10.5196C48.146 8.60026 46.5928 7.04432 44.6748 7.04297ZM44.6748 12.0513C43.8295 12.046 43.1484 11.3555 43.1525 10.5089C43.1565 9.66358 43.8443 8.97983 44.6896 8.98117C45.5348 8.98386 46.2199 9.67031 46.2199 10.5169C46.2199 10.9248 46.0571 11.3178 45.7664 11.6058C45.477 11.8939 45.0839 12.054 44.6748 12.0513Z" fill="black"/>
<path d="M52.5729 7.20714H51.6254V5.15723H49.5472V7.20714H48.5996V9.09016H49.5472V13.828H51.6254V9.09016H52.5729V7.20714Z" fill="#EB0F19"/>
<path d="M52.5729 7.20714H51.6254V5.15723H49.5472V7.20714H48.5996V9.09016H49.5472V13.828H51.6254V9.09016H52.5729V7.20714Z" fill="white"/>
<path d="M52.5729 7.20714H51.6254V5.15723H49.5472V7.20714H48.5996V9.09016H49.5472V13.828H51.6254V9.09016H52.5729V7.20714Z" fill="black"/>
<path d="M54.5628 4.00098C54.0944 3.99964 53.6704 4.28094 53.4901 4.71435C53.3097 5.1464 53.408 5.64576 53.7391 5.97822C54.0702 6.31067 54.5695 6.41027 55.0016 6.23126C55.435 6.05224 55.7176 5.62961 55.7176 5.15986C55.7176 4.52187 55.2021 4.00233 54.5628 4.00098Z" fill="#EB0F19"/>
<path d="M54.5628 4.00098C54.0944 3.99964 53.6704 4.28094 53.4901 4.71435C53.3097 5.1464 53.408 5.64576 53.7391 5.97822C54.0702 6.31067 54.5695 6.41027 55.0016 6.23126C55.435 6.05224 55.7176 5.62961 55.7176 5.15986C55.7176 4.52187 55.2021 4.00233 54.5628 4.00098Z" fill="white"/>
<path d="M54.5628 4.00098C54.0944 3.99964 53.6704 4.28094 53.4901 4.71435C53.3097 5.1464 53.408 5.64576 53.7391 5.97822C54.0702 6.31067 54.5695 6.41027 55.0016 6.23126C55.435 6.05224 55.7176 5.62961 55.7176 5.15986C55.7176 4.52187 55.2021 4.00233 54.5628 4.00098Z" fill="black"/>
<path d="M53.5229 7.20605H55.5984V13.8242H53.5229V7.20605Z" fill="#EB0F19"/>
<path d="M53.5229 7.20605H55.5984V13.8242H53.5229V7.20605Z" fill="white"/>
<path d="M53.5229 7.20605H55.5984V13.8242H53.5229V7.20605Z" fill="black"/>
<path d="M63.7166 13.8361V7.2072H61.6949V7.9098L61.5052 7.74559C61.0341 7.29334 60.4042 7.0403 59.7514 7.04299C57.9639 7.04299 56.4551 8.63393 56.4551 10.5169C56.4551 12.3986 57.968 13.9936 59.7514 13.9936C60.4042 13.995 61.0341 13.7432 61.5052 13.291L61.6949 13.1254V13.828L63.7166 13.8361ZM60.0879 12.0796C59.2237 12.0742 58.5279 11.3689 58.5333 10.5048C58.5373 9.64072 59.2399 8.9435 60.104 8.9462C60.9681 8.95023 61.6653 9.65283 61.664 10.5169C61.6626 10.9329 61.4957 11.3326 61.1996 11.626C60.9049 11.9194 60.5038 12.0823 60.0879 12.0796Z" fill="#EB0F19"/>
<path d="M63.7166 13.8361V7.2072H61.6949V7.9098L61.5052 7.74559C61.0341 7.29334 60.4042 7.0403 59.7514 7.04299C57.9639 7.04299 56.4551 8.63393 56.4551 10.5169C56.4551 12.3986 57.968 13.9936 59.7514 13.9936C60.4042 13.995 61.0341 13.7432 61.5052 13.291L61.6949 13.1254V13.828L63.7166 13.8361ZM60.0879 12.0796C59.2237 12.0742 58.5279 11.3689 58.5333 10.5048C58.5373 9.64072 59.2399 8.9435 60.104 8.9462C60.9681 8.95023 61.6653 9.65283 61.664 10.5169C61.6626 10.9329 61.4957 11.3326 61.1996 11.626C60.9049 11.9194 60.5038 12.0823 60.0879 12.0796Z" fill="white"/>
<path d="M63.7166 13.8361V7.2072H61.6949V7.9098L61.5052 7.74559C61.0341 7.29334 60.4042 7.0403 59.7514 7.04299C57.9639 7.04299 56.4551 8.63393 56.4551 10.5169C56.4551 12.3986 57.968 13.9936 59.7514 13.9936C60.4042 13.995 61.0341 13.7432 61.5052 13.291L61.6949 13.1254V13.828L63.7166 13.8361ZM60.0879 12.0796C59.2237 12.0742 58.5279 11.3689 58.5333 10.5048C58.5373 9.64072 59.2399 8.9435 60.104 8.9462C60.9681 8.95023 61.6653 9.65283 61.664 10.5169C61.6626 10.9329 61.4957 11.3326 61.1996 11.626C60.9049 11.9194 60.5038 12.0823 60.0879 12.0796Z" fill="black"/>
<path d="M66.8162 13.8365V13.1339L67.002 13.2981C67.4744 13.7503 68.103 14.002 68.7571 14.0007C70.5432 14.0007 72.052 12.4097 72.052 10.524C72.052 8.63831 70.5432 7.05007 68.7571 7.05007C68.103 7.04872 67.4744 7.30042 67.002 7.75266L66.8162 7.91822V4.16699H64.7905V13.8365H66.8162ZM66.8579 10.524C66.8539 9.88872 67.2321 9.31534 67.8176 9.06902C68.4018 8.82271 69.0761 8.95462 69.527 9.40148C69.9766 9.84834 70.1125 10.524 69.8702 11.1109C69.6293 11.6964 69.0573 12.08 68.4233 12.08C67.5605 12.08 66.8606 11.3801 66.8579 10.5173V10.524Z" fill="#EB0F19"/>
<path d="M66.8162 13.8365V13.1339L67.002 13.2981C67.4744 13.7503 68.103 14.002 68.7571 14.0007C70.5432 14.0007 72.052 12.4097 72.052 10.524C72.052 8.63831 70.5432 7.05007 68.7571 7.05007C68.103 7.04872 67.4744 7.30042 67.002 7.75266L66.8162 7.91822V4.16699H64.7905V13.8365H66.8162ZM66.8579 10.524C66.8539 9.88872 67.2321 9.31534 67.8176 9.06902C68.4018 8.82271 69.0761 8.95462 69.527 9.40148C69.9766 9.84834 70.1125 10.524 69.8702 11.1109C69.6293 11.6964 69.0573 12.08 68.4233 12.08C67.5605 12.08 66.8606 11.3801 66.8579 10.5173V10.524Z" fill="white"/>
<path d="M66.8162 13.8365V13.1339L67.002 13.2981C67.4744 13.7503 68.103 14.002 68.7571 14.0007C70.5432 14.0007 72.052 12.4097 72.052 10.524C72.052 8.63831 70.5432 7.05007 68.7571 7.05007C68.103 7.04872 67.4744 7.30042 67.002 7.75266L66.8162 7.91822V4.16699H64.7905V13.8365H66.8162ZM66.8579 10.524C66.8539 9.88872 67.2321 9.31534 67.8176 9.06902C68.4018 8.82271 69.0761 8.95462 69.527 9.40148C69.9766 9.84834 70.1125 10.524 69.8702 11.1109C69.6293 11.6964 69.0573 12.08 68.4233 12.08C67.5605 12.08 66.8606 11.3801 66.8579 10.5173V10.524Z" fill="black"/>
<path d="M80.0203 13.8361V7.20718H77.9987V7.90978L77.8089 7.74557C77.3364 7.29333 76.7079 7.04163 76.0537 7.04297C74.2676 7.04297 72.7588 8.63391 72.7588 10.5169C72.7588 12.3986 74.2717 13.9936 76.0537 13.9936C76.7079 13.9949 77.3364 13.7432 77.8089 13.291L77.9987 13.1254V13.828L80.0203 13.8361ZM76.405 12.0796C75.5396 12.081 74.837 11.381 74.8356 10.5156C74.8343 9.65012 75.5355 8.94753 76.401 8.94618C77.2651 8.94618 77.9664 9.64743 77.9664 10.5129C77.9664 11.377 77.2678 12.0769 76.405 12.0796Z" fill="#EB0F19"/>
<path d="M80.0203 13.8361V7.20718H77.9987V7.90978L77.8089 7.74557C77.3364 7.29333 76.7079 7.04163 76.0537 7.04297C74.2676 7.04297 72.7588 8.63391 72.7588 10.5169C72.7588 12.3986 74.2717 13.9936 76.0537 13.9936C76.7079 13.9949 77.3364 13.7432 77.8089 13.291L77.9987 13.1254V13.828L80.0203 13.8361ZM76.405 12.0796C75.5396 12.081 74.837 11.381 74.8356 10.5156C74.8343 9.65012 75.5355 8.94753 76.401 8.94618C77.2651 8.94618 77.9664 9.64743 77.9664 10.5129C77.9664 11.377 77.2678 12.0769 76.405 12.0796Z" fill="white"/>
<path d="M80.0203 13.8361V7.20718H77.9987V7.90978L77.8089 7.74557C77.3364 7.29333 76.7079 7.04163 76.0537 7.04297C74.2676 7.04297 72.7588 8.63391 72.7588 10.5169C72.7588 12.3986 74.2717 13.9936 76.0537 13.9936C76.7079 13.9949 77.3364 13.7432 77.8089 13.291L77.9987 13.1254V13.828L80.0203 13.8361ZM76.405 12.0796C75.5396 12.081 74.837 11.381 74.8356 10.5156C74.8343 9.65012 75.5355 8.94753 76.401 8.94618C77.2651 8.94618 77.9664 9.64743 77.9664 10.5129C77.9664 11.377 77.2678 12.0769 76.405 12.0796Z" fill="black"/>
<path d="M84.3275 8.99199C85.0085 8.99468 85.5604 9.54653 85.5617 10.2289V13.8361H87.6372V9.97186C87.6372 8.21537 86.6223 7.07129 85.0179 7.07129C84.3584 7.07129 83.6639 7.35933 83.0919 8.2867V7.23281H81.0137V13.8361H83.0744V10.2289C83.0744 9.89783 83.2076 9.58153 83.4432 9.34867C83.6787 9.11717 83.9963 8.98795 84.3275 8.99199Z" fill="#EB0F19"/>
<path d="M84.3275 8.99199C85.0085 8.99468 85.5604 9.54653 85.5617 10.2289V13.8361H87.6372V9.97186C87.6372 8.21537 86.6223 7.07129 85.0179 7.07129C84.3584 7.07129 83.6639 7.35933 83.0919 8.2867V7.23281H81.0137V13.8361H83.0744V10.2289C83.0744 9.89783 83.2076 9.58153 83.4432 9.34867C83.6787 9.11717 83.9963 8.98795 84.3275 8.99199Z" fill="white"/>
<path d="M84.3275 8.99199C85.0085 8.99468 85.5604 9.54653 85.5617 10.2289V13.8361H87.6372V9.97186C87.6372 8.21537 86.6223 7.07129 85.0179 7.07129C84.3584 7.07129 83.6639 7.35933 83.0919 8.2867V7.23281H81.0137V13.8361H83.0744V10.2289C83.0744 9.89783 83.2076 9.58153 83.4432 9.34867C83.6787 9.11717 83.9963 8.98795 84.3275 8.99199Z" fill="black"/>
<path d="M95.2002 13.8284L92.6523 10.52L95.0212 7.20754H92.5958L90.6899 9.88872V4.16699H88.6157V13.8284H90.6899V11.1001L92.7815 13.8284H95.2002Z" fill="#EB0F19"/>
<path d="M95.2002 13.8284L92.6523 10.52L95.0212 7.20754H92.5958L90.6899 9.88872V4.16699H88.6157V13.8284H90.6899V11.1001L92.7815 13.8284H95.2002Z" fill="white"/>
<path d="M95.2002 13.8284L92.6523 10.52L95.0212 7.20754H92.5958L90.6899 9.88872V4.16699H88.6157V13.8284H90.6899V11.1001L92.7815 13.8284H95.2002Z" fill="black"/>
<path d="M96.6645 11.5137C96.1948 11.511 95.7708 11.791 95.5891 12.223C95.4074 12.6551 95.5043 13.1544 95.834 13.4882C96.1638 13.822 96.6618 13.923 97.0966 13.7453C97.53 13.5663 97.814 13.145 97.8153 12.6753C97.8167 12.0373 97.3025 11.5177 96.6645 11.5137ZM96.6645 13.5959C96.289 13.5973 95.9498 13.3725 95.8058 13.0266C95.6604 12.6793 95.7398 12.2809 96.0036 12.0144C96.2688 11.7479 96.6672 11.6685 97.0145 11.8125C97.3604 11.9552 97.5865 12.293 97.5865 12.6685C97.5879 12.9148 97.4909 13.1504 97.3173 13.324C97.145 13.4977 96.9095 13.5959 96.6645 13.5959Z" fill="#EB0F19"/>
<path d="M96.6645 11.5137C96.1948 11.511 95.7708 11.791 95.5891 12.223C95.4074 12.6551 95.5043 13.1544 95.834 13.4882C96.1638 13.822 96.6618 13.923 97.0966 13.7453C97.53 13.5663 97.814 13.145 97.8153 12.6753C97.8167 12.0373 97.3025 11.5177 96.6645 11.5137ZM96.6645 13.5959C96.289 13.5973 95.9498 13.3725 95.8058 13.0266C95.6604 12.6793 95.7398 12.2809 96.0036 12.0144C96.2688 11.7479 96.6672 11.6685 97.0145 11.8125C97.3604 11.9552 97.5865 12.293 97.5865 12.6685C97.5879 12.9148 97.4909 13.1504 97.3173 13.324C97.145 13.4977 96.9095 13.5959 96.6645 13.5959Z" fill="white"/>
<path d="M96.6645 11.5137C96.1948 11.511 95.7708 11.791 95.5891 12.223C95.4074 12.6551 95.5043 13.1544 95.834 13.4882C96.1638 13.822 96.6618 13.923 97.0966 13.7453C97.53 13.5663 97.814 13.145 97.8153 12.6753C97.8167 12.0373 97.3025 11.5177 96.6645 11.5137ZM96.6645 13.5959C96.289 13.5973 95.9498 13.3725 95.8058 13.0266C95.6604 12.6793 95.7398 12.2809 96.0036 12.0144C96.2688 11.7479 96.6672 11.6685 97.0145 11.8125C97.3604 11.9552 97.5865 12.293 97.5865 12.6685C97.5879 12.9148 97.4909 13.1504 97.3173 13.324C97.145 13.4977 96.9095 13.5959 96.6645 13.5959Z" fill="black"/>
<path d="M96.6605 12.8632H96.4748V13.302H96.25V12.0381H96.7305C96.9634 12.0381 97.1518 12.2265 97.1518 12.4594C97.1478 12.6182 97.0535 12.7609 96.9095 12.8282L97.176 13.302H96.9028L96.6605 12.8632ZM96.4748 12.6518H96.7413C96.8476 12.6518 96.9338 12.5657 96.9338 12.4594C96.9338 12.3517 96.8476 12.2656 96.7413 12.2656H96.4748V12.6518Z" fill="#EB0F19"/>
<path d="M96.6605 12.8632H96.4748V13.302H96.25V12.0381H96.7305C96.9634 12.0381 97.1518 12.2265 97.1518 12.4594C97.1478 12.6182 97.0535 12.7609 96.9095 12.8282L97.176 13.302H96.9028L96.6605 12.8632ZM96.4748 12.6518H96.7413C96.8476 12.6518 96.9338 12.5657 96.9338 12.4594C96.9338 12.3517 96.8476 12.2656 96.7413 12.2656H96.4748V12.6518Z" fill="white"/>
<path d="M96.6605 12.8632H96.4748V13.302H96.25V12.0381H96.7305C96.9634 12.0381 97.1518 12.2265 97.1518 12.4594C97.1478 12.6182 97.0535 12.7609 96.9095 12.8282L97.176 13.302H96.9028L96.6605 12.8632ZM96.4748 12.6518H96.7413C96.8476 12.6518 96.9338 12.5657 96.9338 12.4594C96.9338 12.3517 96.8476 12.2656 96.7413 12.2656H96.4748V12.6518Z" fill="black"/>
</svg>
