<svg width="142" height="25" viewBox="0 0 142 25" fill="none" xmlns="http://www.w3.org/2000/svg">
<path d="M122.829 18.5544C123.256 18.5718 123.582 18.9344 123.564 19.3627C123.546 19.7982 123.192 20.1292 122.762 20.1122C122.336 20.0943 122.003 19.7349 122.02 19.2998C122.038 18.8716 122.399 18.5369 122.826 18.5544M122.816 18.7093C122.493 18.696 122.22 18.9656 122.206 19.3108C122.192 19.6597 122.442 19.9431 122.769 19.9564C123.096 19.9728 123.371 19.7074 123.386 19.3589C123.399 19.0133 123.147 18.7226 122.82 18.7097L122.816 18.7093ZM122.641 19.778L122.46 19.7702L122.495 18.9064C122.564 18.8991 122.64 18.8886 122.771 18.8946C122.919 18.9005 123.008 18.928 123.065 18.9752C123.111 19.0151 123.136 19.0751 123.132 19.165C123.128 19.2686 123.052 19.3383 122.959 19.3585L122.958 19.3654C123.033 19.3823 123.079 19.4534 123.088 19.5822C123.1 19.7175 123.115 19.7702 123.127 19.7982L122.938 19.7904C122.918 19.7588 122.908 19.6822 122.895 19.5639C122.886 19.4699 122.832 19.43 122.739 19.4264L122.656 19.4222L122.641 19.778ZM122.663 19.2805L122.748 19.2843C122.855 19.2884 122.939 19.2576 122.943 19.1678C122.946 19.0953 122.896 19.0381 122.773 19.033C122.728 19.0307 122.697 19.0293 122.673 19.0321L122.663 19.2805Z" fill="#777777"/>
<path d="M120.784 18.0617C116.659 22.2041 110.792 23.0303 107.678 19.9034C104.566 16.7785 105.387 10.8829 109.513 6.73921C113.639 2.59461 119.509 1.77029 122.62 4.89618C125.733 8.02202 124.912 13.9171 120.784 18.0617Z" fill="#777777"/>
<path d="M119.126 19.4887H110.817C110.456 19.4887 110.136 19.2558 110.024 18.9101C109.914 18.5658 110.034 18.1884 110.325 17.9734L112.876 16.1079C113.406 15.72 114.199 16.0822 114.199 16.7841C114.199 17.0436 114.082 17.2971 113.858 17.4622C113.858 17.4622 113.525 17.7061 113.376 17.8139C115.095 17.8139 116.316 17.8139 117.991 17.8139C115.55 15.9336 110.603 12.1191 110.603 12.1191C110.418 11.9747 110.277 11.7579 110.277 11.4236C110.277 10.9936 110.665 10.6176 111.073 10.6176H120.422C120.87 10.6176 121.239 11.0009 121.239 11.4535C121.239 11.7542 121.085 11.9715 120.933 12.0985L118.485 14.1447C118.131 14.4413 117.607 14.3922 117.31 14.036C117.181 13.8815 117.118 13.6908 117.118 13.5033C117.118 13.2621 117.221 13.0242 117.418 12.8582C117.418 12.8582 117.825 12.518 118.096 12.2924C116.404 12.2924 115.328 12.2924 113.564 12.2924C115.775 13.9961 120.123 17.3238 120.912 17.9321C120.627 18.2792 119.553 19.2525 119.126 19.4887ZM111.111 8.19824H120.406C120.866 8.19824 121.239 8.57236 121.239 9.03681C121.239 9.49849 120.866 9.87171 120.406 9.87171H111.111C110.65 9.87171 110.277 9.49849 110.277 9.03681C110.277 8.57236 110.65 8.19824 111.111 8.19824Z" fill="white"/>
<path d="M117.775 6.16846L119.199 5.22905C119.588 4.97367 120.11 5.08188 120.364 5.4734C120.62 5.86175 120.511 6.38579 120.122 6.64252L118.697 7.57963C118.309 7.83687 117.788 7.7273 117.532 7.33759C117.276 6.94743 117.385 6.42429 117.775 6.16846Z" fill="white"/>
<path d="M51.4839 14.9971H53.3633C54.0814 15.0026 55.1692 15.015 55.9206 15.5248C56.5309 15.9434 56.7651 16.5734 56.7651 17.2014C56.7651 17.5879 56.6889 17.8763 56.6149 18.0657C56.0708 19.4521 54.4246 19.4759 53.807 19.4837H51.4843M52.9707 15.9434V18.5814H53.424C54.2078 18.5686 55.2943 18.5361 55.2943 17.2464C55.2943 16.9346 55.2527 16.6238 54.9848 16.3432C54.5821 15.936 54.0147 15.9434 53.5641 15.9434H52.9707Z" fill="#111111"/>
<path d="M57.5967 15H60.5051C62.0453 15 62.6506 15.674 62.6506 16.4332C62.6506 17.3359 61.8408 17.5808 61.4404 17.6954L62.8017 19.4871H61.172L60.0025 17.8875H59.0749V19.4871H57.5967M59.0749 15.8381V17.0531H60.2941C60.5037 17.0452 61.1807 17.0343 61.1807 16.4364C61.1807 15.8637 60.6374 15.8454 60.3289 15.8376L59.0749 15.8381Z" fill="#111111"/>
<path d="M91.0176 15H93.9265C95.4662 15 96.0728 15.674 96.0728 16.4332C96.0728 17.3359 95.2636 17.5808 94.8618 17.6954L96.2231 19.4871H94.5933L93.4239 17.8875H92.4965V19.4871H91.0176M92.4971 15.8381V17.0531H93.7183C93.9254 17.0452 94.6035 17.0343 94.6035 16.4364C94.6035 15.8637 94.0593 15.8454 93.7515 15.8376L92.4971 15.8381Z" fill="#111111"/>
<path d="M68.4503 14.9975V17.5017C68.4416 17.934 68.4329 18.3664 68.1065 18.7731C67.472 19.5474 66.1595 19.5864 65.9094 19.5864C65.4661 19.5864 64.9398 19.5034 64.539 19.3434C63.4041 18.8987 63.4041 18.111 63.4105 17.5012V14.9971H64.8987V17.7933C64.8987 18.023 64.9065 18.2128 65.0069 18.3536C65.1909 18.5874 65.5917 18.6571 65.9601 18.6571C66.9616 18.6571 66.9616 18.1362 66.9708 17.7864V14.9975" fill="#111111"/>
<path d="M73.6381 19.0658C73.3978 19.2378 72.8969 19.5876 71.9039 19.5876C70.2586 19.5876 69.2471 18.5698 69.2471 17.2475C69.2471 15.8061 70.4764 14.8438 72.1541 14.8438C73.7146 14.8438 74.4732 15.6094 74.749 15.8822L73.6319 16.3966C73.4214 16.1554 73.0793 15.7603 72.2627 15.7603C71.1433 15.7603 70.717 16.4658 70.717 17.2163C70.717 17.7257 70.9005 18.1379 71.1863 18.3607C71.4118 18.545 71.8117 18.6844 72.2622 18.6844C72.5272 18.6844 72.8277 18.6349 73.0714 18.5129C73.4558 18.3231 73.5047 18.0806 73.5452 17.8445H72.2278V16.9944H74.7923V19.4858H73.6375" fill="#111111"/>
<path d="M84.0805 14.9975V19.4842H82.668L82.7597 16.2867L82.7755 15.8356L82.7271 15.9942C82.65 16.2492 82.6426 16.2812 82.5751 16.4715L81.4631 19.4842H80.1947L79.1254 16.5985L78.8671 15.7985C78.8924 16.1543 78.8924 16.2295 78.9161 16.6553L78.9909 19.4842H77.5801V14.9975H79.7191L80.6218 17.5132L80.8306 18.2321C80.9127 17.9199 80.9223 17.8891 80.9876 17.6778L81.933 14.9971" fill="#111111"/>
<path d="M88.3119 14.998L90.4852 19.4842H88.914L88.6197 18.7667H86.4486L86.156 19.4842H84.5864L86.775 14.998M87.5167 16.064C87.4419 16.2937 87.358 16.5289 87.2747 16.7577C87.1503 17.0937 86.9247 17.6214 86.7907 17.9579H88.2871L87.5167 16.064Z" fill="#111111"/>
<path d="M96.2617 14.9971H101.314V15.887H99.5302V19.4901H98.0496V15.887H96.2617" fill="#111111"/>
<path d="M28.8423 5.10449H32.0679V7.97686H35.1493V5.10449H38.4051V12.9958H35.1493V9.95653H32.0679V12.9958H28.8423" fill="#111111"/>
<path d="M50.428 8.97216C50.428 10.9716 48.9092 13.252 44.9025 13.252C40.7205 13.252 39.4624 10.8602 39.4624 9.06023C39.4624 6.80222 41.2701 4.81152 44.9586 4.81152C48.9969 4.81197 50.428 7.09379 50.428 8.97216ZM42.7021 9.04875C42.7021 10.4237 43.4253 11.2499 44.9586 11.2499C46.2615 11.2499 47.1722 10.4572 47.1722 8.97216C47.1722 8.59072 47.1311 8.24412 46.986 7.931C46.4929 6.83475 45.2499 6.80267 44.9591 6.80267C43.8023 6.80267 42.7021 7.41793 42.7021 9.04875Z" fill="#111111"/>
<path d="M51.4824 5.10449H57.326C58.4404 5.13657 59.4104 5.17095 60.2344 5.82932C60.9867 6.44554 61.0885 7.17133 61.0885 7.67472C61.0885 8.33354 60.915 9.0497 60.118 9.68742C59.2652 10.3682 58.3235 10.4035 57.2106 10.4242H54.7217V12.9953H51.4824M54.7217 6.75776V8.77001H56.5755C56.7495 8.75853 56.9357 8.75853 57.1101 8.71452C57.6018 8.59167 57.8907 8.23404 57.8907 7.75401C57.8907 6.82698 56.9512 6.78067 56.5454 6.75776H54.7217Z" fill="#111111"/>
<path d="M61.9912 5.10449H67.8358C68.951 5.13657 69.9201 5.17095 70.7432 5.82932C71.4974 6.44554 71.5983 7.17133 71.5983 7.67472C71.5983 8.33354 71.4261 9.0497 70.6291 9.68742C69.7759 10.3682 68.8346 10.4035 67.7212 10.4242H65.2324V12.9953H61.9912M65.2324 6.75776V8.77001H67.0839C67.2574 8.75853 67.4459 8.75853 67.6203 8.71452C68.1124 8.59167 68.4014 8.23404 68.4014 7.75401C68.4014 6.82698 67.4605 6.78067 67.0556 6.75776H65.2324Z" fill="#111111"/>
<path d="M72.4976 5.10449H80.5788V6.8357H75.7368V8.0108H80.2597V9.7209H75.7368V11.2852H81.0132V12.9958H72.4976" fill="#111111"/>
<path d="M82.0343 5.10352H87.1255C88.0952 5.10352 89.0203 5.13739 89.6439 5.33914C91.0035 5.78665 91.4076 6.85994 91.4076 7.6173C91.4076 8.77815 90.6405 9.44756 89.3107 9.8102L91.8004 12.9948H88.2111L86.2285 10.2123H85.2741V12.9948H82.0337M85.2741 6.74621V8.59109H86.6213C87.1554 8.59109 88.1824 8.56774 88.1824 7.67414C88.1824 6.76911 87.1677 6.74621 86.605 6.74621H85.2741Z" fill="#111111"/>
<path d="M94.053 10.2673C94.6557 11.1516 96.0418 11.3075 96.9726 11.3075C97.5213 11.3075 98.438 11.1837 98.438 10.7152C98.438 10.4685 98.254 10.2934 97.8026 10.2196C97.4639 10.1655 95.7137 9.8725 95.2111 9.78859C93.4278 9.48786 92.4311 8.67726 92.4311 7.48568C92.4311 5.83426 94.2877 4.84668 96.9461 4.84668C98.8561 4.84668 100.555 5.3203 101.534 6.24502L99.5078 7.55354C99.0126 6.97677 97.9006 6.74801 96.8324 6.74801C96.2815 6.74801 95.6732 6.86169 95.6732 7.26057C95.6732 7.64201 96.1988 7.72181 97.0784 7.86576C99.3423 8.24219 101.607 8.48012 101.607 10.4364C101.607 12.0415 99.909 13.2322 96.788 13.2322C94.6782 13.2322 92.8892 12.8127 91.5791 11.4987" fill="#111111"/>
<path d="M20.2559 10.2673C20.8585 11.1516 22.2431 11.3075 23.1748 11.3075C23.7231 11.3075 24.6392 11.1837 24.6392 10.7152C24.6392 10.4685 24.4557 10.2934 24.0065 10.2196C23.6664 10.1655 21.9171 9.8725 21.415 9.78859C19.6305 9.48786 18.6335 8.67726 18.6335 7.48568C18.6335 5.83426 20.4892 4.84668 23.1497 4.84668C25.057 4.84668 26.7565 5.3203 27.7361 6.24502L25.7102 7.55264C25.2144 6.97587 24.101 6.74706 23.0346 6.74706C22.4841 6.74706 21.8756 6.86079 21.8756 7.25967C21.8756 7.64111 22.401 7.72085 23.2807 7.86486C25.5454 8.24123 27.8083 8.47917 27.8083 10.4355C27.8083 12.0406 26.1115 13.2313 22.9899 13.2313C20.8804 13.2313 19.0928 12.8118 17.7812 11.4978" fill="#111111"/>
</svg>
