<svg width="641" height="109" viewBox="0 0 641 109" fill="none" xmlns="http://www.w3.org/2000/svg">
<path fill-rule="evenodd" clip-rule="evenodd" d="M534.885 2.58131C529.554 7.91131 533.856 18.1263 541.43 18.1263C545.978 18.1263 550.43 13.4413 550.43 8.65532C550.43 0.988318 540.397 -2.93169 534.885 2.58131ZM59.4297 41.0873C59.4297 80.9083 59.4377 81.0553 61.6187 83.0873C63.3417 84.6923 65.1487 85.1263 70.1187 85.1263H76.4297V43.1263V1.12633H67.9297H59.4297V41.0873ZM146.647 41.5843C146.974 88.3423 146.174 85.0383 157.18 85.0943L163.43 85.1263V43.1263V1.12633H154.897H146.365L146.647 41.5843ZM402.43 43.1263V85.1263H407.707C413.223 85.1263 417.43 83.1543 417.43 80.5693C417.43 78.5633 418.796 78.7683 420.897 81.0903C424.143 84.6763 430.692 86.4363 438.841 85.9133C445.07 85.5143 447.098 84.9063 451.393 82.1503C472.538 68.5813 468.729 32.3403 445.365 24.7943C436.571 21.9543 428.083 23.0233 422.567 27.6643C420.958 29.0183 419.369 30.1263 419.036 30.1263C418.703 30.1263 418.43 23.6013 418.43 15.6263V1.12633H410.43H402.43V43.1263ZM556.43 41.1263C556.43 79.7933 556.497 81.1933 558.43 83.1263C559.945 84.6413 561.763 85.1263 565.93 85.1263H571.43V43.1263V1.12633H563.93H556.43V41.1263ZM624.43 15.7483V30.3703L622.18 28.7533C616.034 24.3363 613.907 23.6533 606.43 23.7013C600.362 23.7393 597.975 24.2443 593.93 26.3483C583.831 31.5993 578.449 40.3243 577.644 52.7503C576.712 67.1563 584.481 80.5703 596.038 84.5083C605.24 87.6443 618.14 85.8153 622.302 80.7843C623.993 78.7423 625.43 78.6433 625.43 80.5693C625.43 83.1543 629.637 85.1263 635.153 85.1263H640.43V43.1263V1.12633H632.43H624.43V15.7483ZM16.0967 24.4923C8.0127 26.7793 3.01072 31.6183 1.41372 38.6983C0.40472 43.1733 1.43371 48.9573 3.91271 52.7403C6.40471 56.5443 15.1577 60.0833 26.1617 61.7363C39.1617 63.6893 43.0347 66.3783 38.8597 70.5533C36.5577 72.8553 33.1607 73.4363 25.0517 72.9163C20.1197 72.5993 15.9707 71.6053 12.0037 69.7893C8.80572 68.3243 5.8537 67.1263 5.4457 67.1263C5.0367 67.1263 3.46671 69.8813 1.95571 73.2483C-1.16629 80.2033 -1.34528 79.8763 7.40572 83.1923C24.2137 89.5613 46.3997 87.3363 53.2787 78.5913C58.4367 72.0333 58.4767 62.5273 53.3697 56.7103C49.4117 52.2033 42.6607 49.4963 31.0727 47.7723C25.7417 46.9793 20.7167 45.7793 19.9047 45.1053C17.8117 43.3693 18.0757 39.3863 20.3637 38.1613C23.5517 36.4553 33.6597 36.9823 40.4387 39.2073C48.1747 41.7473 50.4227 41.0203 53.5017 34.9853C55.5857 30.9013 55.5947 30.7203 53.8067 29.4123C47.3717 24.7073 25.4507 21.8473 16.0967 24.4923ZM99.3777 24.2323C89.5337 27.0023 80.3587 38.8423 78.8797 50.6843C77.1157 64.7963 84.9197 79.3393 97.1577 84.7483C105.106 88.2613 117.625 86.6593 123.675 81.3553C125.264 79.9623 125.642 80.0623 127.878 82.4753C130.014 84.7803 131.124 85.1263 136.382 85.1263H142.43V55.2333C142.43 32.1223 142.144 25.2303 141.171 24.8573C140.478 24.5913 136.99 24.4303 133.421 24.5003C127.166 24.6213 126.919 24.7233 126.621 27.2983L126.312 29.9703L121.251 26.8243C117.078 24.2303 115.026 23.6393 109.56 23.4553C105.913 23.3323 101.331 23.6823 99.3777 24.2323ZM186.635 24.9613C169.074 31.2233 160.848 51.4853 168.854 68.7643C173.107 77.9443 180.923 83.8613 191.746 86.0953C199.383 87.6713 206.472 86.6973 214.138 83.0203C225.821 77.4153 231.896 66.8053 231.252 53.1263C230.665 40.6533 224.561 31.4663 213.43 26.2993C205.993 22.8463 194.215 22.2583 186.635 24.9613ZM257.93 24.9893C255.73 25.9903 253.312 27.5553 252.558 28.4683C250.603 30.8293 249.43 30.5203 249.43 27.6453C249.43 24.6403 247.233 23.9333 239.43 24.4283L233.93 24.7763L233.664 52.2963C233.408 78.8983 233.469 79.9053 235.487 82.4713C237.36 84.8523 238.238 85.1263 244.003 85.1263H250.43L250.434 66.3763C250.437 49.3343 250.621 47.3253 252.456 44.3163C256.238 38.1123 264.959 36.6083 270.748 41.1613C274.315 43.9683 275.546 50.9983 275.338 67.3923C275.122 84.4233 275.507 85.1263 285.026 85.1263H291.311L291.621 65.6963C291.97 43.7423 292.512 42.0103 299.903 39.1973C303.161 37.9573 304.198 37.9573 307.705 39.1963C315.212 41.8503 315.884 43.7933 316.261 63.9463C316.658 85.1693 316.638 85.1263 326.151 85.1263H332.563L332.246 61.8763C331.94 39.3843 331.851 38.4883 329.504 34.3903C325.431 27.2793 317.735 23.1263 308.629 23.1263C301.365 23.1263 295.5 25.1403 291.397 29.0423L287.589 32.6653L283.636 28.9773C277.281 23.0493 266.032 21.3043 257.93 24.9893ZM471.43 46.1583C471.43 69.4253 471.913 71.8663 477.731 77.9983C483.135 83.6953 489.589 86.1063 499.43 86.1063C506.239 86.1063 508.924 85.6423 512.93 83.7733C519.016 80.9333 524.966 74.5723 526.342 69.4333C526.903 67.3393 527.415 56.6263 527.48 45.6263L527.598 25.6263L520.074 25.3353L512.55 25.0443L512.24 44.5153C511.886 66.7253 511.357 68.3523 503.589 71.0953C499.931 72.3873 498.929 72.3873 495.271 71.0953C487.506 68.3523 486.974 66.7203 486.621 44.5563L486.311 25.1263H478.871H471.43V46.1583ZM533.43 52.6713V80.2173L535.885 82.6713C537.842 84.6293 539.361 85.1263 543.385 85.1263H548.43V55.1263V25.1263H540.93H533.43V52.6713ZM118.121 40.0733C123.436 42.4863 126.43 47.9133 126.43 55.1363C126.43 64.7563 121.555 70.2723 112.472 70.9293C107.574 71.2843 105.903 70.9633 102.868 69.0883C96.1307 64.9243 93.6927 55.5053 97.3107 47.6263C101.3 38.9383 109.259 36.0493 118.121 40.0733ZM207.43 40.9743C216.908 47.9353 216.855 62.4103 207.328 68.9643C204.479 70.9233 202.957 71.2413 197.906 70.9313C190.737 70.4903 187.321 68.3663 184.445 62.5603C181.825 57.2743 181.896 52.6083 184.68 47.0883C188.853 38.8123 200.298 35.7363 207.43 40.9743ZM441.44 40.3763C446.472 43.8013 448.481 47.1813 449.054 53.1853C449.79 60.9043 446.7 66.7483 440.168 69.9883C425.473 77.2763 411.717 61.2443 419.705 46.1393C423.821 38.3553 434.363 35.5603 441.44 40.3763ZM618.711 40.6753C624.888 45.1553 627.036 54.9943 623.525 62.7253C619.733 71.0733 609.511 74.2333 601.389 69.5673C597.272 67.2023 593.43 60.2313 593.43 55.1263C593.43 50.1743 597.246 43.1013 601.43 40.2963C604.31 38.3653 605.913 38.0183 610.475 38.3373C613.871 38.5743 617.064 39.4803 618.711 40.6753ZM332.43 104.626V108.126H366.93H401.43V104.626V101.126H366.93H332.43V104.626Z" fill="white"/>
<path fill-rule="evenodd" clip-rule="evenodd" d="M534.885 2.58131C529.554 7.91131 533.856 18.1263 541.43 18.1263C545.978 18.1263 550.43 13.4413 550.43 8.65532C550.43 0.988318 540.397 -2.93169 534.885 2.58131ZM59.4297 41.0873C59.4297 80.9083 59.4377 81.0553 61.6187 83.0873C63.3417 84.6923 65.1487 85.1263 70.1187 85.1263H76.4297V43.1263V1.12633H67.9297H59.4297V41.0873ZM146.647 41.5843C146.974 88.3423 146.174 85.0383 157.18 85.0943L163.43 85.1263V43.1263V1.12633H154.897H146.365L146.647 41.5843ZM402.43 43.1263V85.1263H407.707C413.223 85.1263 417.43 83.1543 417.43 80.5693C417.43 78.5633 418.796 78.7683 420.897 81.0903C424.143 84.6763 430.692 86.4363 438.841 85.9133C445.07 85.5143 447.098 84.9063 451.393 82.1503C472.538 68.5813 468.729 32.3403 445.365 24.7943C436.571 21.9543 428.083 23.0233 422.567 27.6643C420.958 29.0183 419.369 30.1263 419.036 30.1263C418.703 30.1263 418.43 23.6013 418.43 15.6263V1.12633H410.43H402.43V43.1263ZM556.43 41.1263C556.43 79.7933 556.497 81.1933 558.43 83.1263C559.945 84.6413 561.763 85.1263 565.93 85.1263H571.43V43.1263V1.12633H563.93H556.43V41.1263ZM624.43 15.7483V30.3703L622.18 28.7533C616.034 24.3363 613.907 23.6533 606.43 23.7013C600.362 23.7393 597.975 24.2443 593.93 26.3483C583.831 31.5993 578.449 40.3243 577.644 52.7503C576.712 67.1563 584.481 80.5703 596.038 84.5083C605.24 87.6443 618.14 85.8153 622.302 80.7843C623.993 78.7423 625.43 78.6433 625.43 80.5693C625.43 83.1543 629.637 85.1263 635.153 85.1263H640.43V43.1263V1.12633H632.43H624.43V15.7483ZM16.0967 24.4923C8.0127 26.7793 3.01072 31.6183 1.41372 38.6983C0.40472 43.1733 1.43371 48.9573 3.91271 52.7403C6.40471 56.5443 15.1577 60.0833 26.1617 61.7363C39.1617 63.6893 43.0347 66.3783 38.8597 70.5533C36.5577 72.8553 33.1607 73.4363 25.0517 72.9163C20.1197 72.5993 15.9707 71.6053 12.0037 69.7893C8.80572 68.3243 5.8537 67.1263 5.4457 67.1263C5.0367 67.1263 3.46671 69.8813 1.95571 73.2483C-1.16629 80.2033 -1.34528 79.8763 7.40572 83.1923C24.2137 89.5613 46.3997 87.3363 53.2787 78.5913C58.4367 72.0333 58.4767 62.5273 53.3697 56.7103C49.4117 52.2033 42.6607 49.4963 31.0727 47.7723C25.7417 46.9793 20.7167 45.7793 19.9047 45.1053C17.8117 43.3693 18.0757 39.3863 20.3637 38.1613C23.5517 36.4553 33.6597 36.9823 40.4387 39.2073C48.1747 41.7473 50.4227 41.0203 53.5017 34.9853C55.5857 30.9013 55.5947 30.7203 53.8067 29.4123C47.3717 24.7073 25.4507 21.8473 16.0967 24.4923ZM99.3777 24.2323C89.5337 27.0023 80.3587 38.8423 78.8797 50.6843C77.1157 64.7963 84.9197 79.3393 97.1577 84.7483C105.106 88.2613 117.625 86.6593 123.675 81.3553C125.264 79.9623 125.642 80.0623 127.878 82.4753C130.014 84.7803 131.124 85.1263 136.382 85.1263H142.43V55.2333C142.43 32.1223 142.144 25.2303 141.171 24.8573C140.478 24.5913 136.99 24.4303 133.421 24.5003C127.166 24.6213 126.919 24.7233 126.621 27.2983L126.312 29.9703L121.251 26.8243C117.078 24.2303 115.026 23.6393 109.56 23.4553C105.913 23.3323 101.331 23.6823 99.3777 24.2323ZM186.635 24.9613C169.074 31.2233 160.848 51.4853 168.854 68.7643C173.107 77.9443 180.923 83.8613 191.746 86.0953C199.383 87.6713 206.472 86.6973 214.138 83.0203C225.821 77.4153 231.896 66.8053 231.252 53.1263C230.665 40.6533 224.561 31.4663 213.43 26.2993C205.993 22.8463 194.215 22.2583 186.635 24.9613ZM257.93 24.9893C255.73 25.9903 253.312 27.5553 252.558 28.4683C250.603 30.8293 249.43 30.5203 249.43 27.6453C249.43 24.6403 247.233 23.9333 239.43 24.4283L233.93 24.7763L233.664 52.2963C233.408 78.8983 233.469 79.9053 235.487 82.4713C237.36 84.8523 238.238 85.1263 244.003 85.1263H250.43L250.434 66.3763C250.437 49.3343 250.621 47.3253 252.456 44.3163C256.238 38.1123 264.959 36.6083 270.748 41.1613C274.315 43.9683 275.546 50.9983 275.338 67.3923C275.122 84.4233 275.507 85.1263 285.026 85.1263H291.311L291.621 65.6963C291.97 43.7423 292.512 42.0103 299.903 39.1973C303.161 37.9573 304.198 37.9573 307.705 39.1963C315.212 41.8503 315.884 43.7933 316.261 63.9463C316.658 85.1693 316.638 85.1263 326.151 85.1263H332.563L332.246 61.8763C331.94 39.3843 331.851 38.4883 329.504 34.3903C325.431 27.2793 317.735 23.1263 308.629 23.1263C301.365 23.1263 295.5 25.1403 291.397 29.0423L287.589 32.6653L283.636 28.9773C277.281 23.0493 266.032 21.3043 257.93 24.9893ZM471.43 46.1583C471.43 69.4253 471.913 71.8663 477.731 77.9983C483.135 83.6953 489.589 86.1063 499.43 86.1063C506.239 86.1063 508.924 85.6423 512.93 83.7733C519.016 80.9333 524.966 74.5723 526.342 69.4333C526.903 67.3393 527.415 56.6263 527.48 45.6263L527.598 25.6263L520.074 25.3353L512.55 25.0443L512.24 44.5153C511.886 66.7253 511.357 68.3523 503.589 71.0953C499.931 72.3873 498.929 72.3873 495.271 71.0953C487.506 68.3523 486.974 66.7203 486.621 44.5563L486.311 25.1263H478.871H471.43V46.1583ZM533.43 52.6713V80.2173L535.885 82.6713C537.842 84.6293 539.361 85.1263 543.385 85.1263H548.43V55.1263V25.1263H540.93H533.43V52.6713ZM118.121 40.0733C123.436 42.4863 126.43 47.9133 126.43 55.1363C126.43 64.7563 121.555 70.2723 112.472 70.9293C107.574 71.2843 105.903 70.9633 102.868 69.0883C96.1307 64.9243 93.6927 55.5053 97.3107 47.6263C101.3 38.9383 109.259 36.0493 118.121 40.0733ZM207.43 40.9743C216.908 47.9353 216.855 62.4103 207.328 68.9643C204.479 70.9233 202.957 71.2413 197.906 70.9313C190.737 70.4903 187.321 68.3663 184.445 62.5603C181.825 57.2743 181.896 52.6083 184.68 47.0883C188.853 38.8123 200.298 35.7363 207.43 40.9743ZM441.44 40.3763C446.472 43.8013 448.481 47.1813 449.054 53.1853C449.79 60.9043 446.7 66.7483 440.168 69.9883C425.473 77.2763 411.717 61.2443 419.705 46.1393C423.821 38.3553 434.363 35.5603 441.44 40.3763ZM618.711 40.6753C624.888 45.1553 627.036 54.9943 623.525 62.7253C619.733 71.0733 609.511 74.2333 601.389 69.5673C597.272 67.2023 593.43 60.2313 593.43 55.1263C593.43 50.1743 597.246 43.1013 601.43 40.2963C604.31 38.3653 605.913 38.0183 610.475 38.3373C613.871 38.5743 617.064 39.4803 618.711 40.6753ZM332.43 104.626V108.126H366.93H401.43V104.626V101.126H366.93H332.43V104.626Z" fill="#7B7B7B"/>
<path fill-rule="evenodd" clip-rule="evenodd" d="M534.885 2.58131C529.554 7.91131 533.856 18.1263 541.43 18.1263C545.978 18.1263 550.43 13.4413 550.43 8.65532C550.43 0.988318 540.397 -2.93169 534.885 2.58131ZM402.43 43.1263V85.1263H407.707C413.223 85.1263 417.43 83.1543 417.43 80.5693C417.43 78.5633 418.796 78.7683 420.897 81.0903C424.143 84.6763 430.692 86.4363 438.841 85.9133C445.07 85.5143 447.098 84.9063 451.393 82.1503C472.538 68.5813 468.729 32.3403 445.365 24.7943C436.571 21.9543 428.083 23.0233 422.567 27.6643C420.958 29.0183 419.369 30.1263 419.036 30.1263C418.703 30.1263 418.43 23.6013 418.43 15.6263V1.12633H410.43H402.43V43.1263ZM556.43 41.1263C556.43 79.7933 556.497 81.1933 558.43 83.1263C559.945 84.6413 561.763 85.1263 565.93 85.1263H571.43V43.1263V1.12633H563.93H556.43V41.1263ZM624.43 15.7483V30.3703L622.18 28.7533C616.034 24.3363 613.907 23.6533 606.43 23.7013C600.362 23.7393 597.975 24.2443 593.93 26.3483C583.831 31.5993 578.449 40.3243 577.644 52.7503C576.712 67.1563 584.481 80.5703 596.038 84.5083C605.24 87.6443 618.14 85.8153 622.302 80.7843C623.993 78.7423 625.43 78.6433 625.43 80.5693C625.43 83.1543 629.637 85.1263 635.153 85.1263H640.43V43.1263V1.12633H632.43H624.43V15.7483ZM471.43 46.1583C471.43 69.4253 471.913 71.8663 477.731 77.9983C483.135 83.6953 489.589 86.1063 499.43 86.1063C506.239 86.1063 508.924 85.6423 512.93 83.7733C519.016 80.9333 524.966 74.5723 526.342 69.4333C526.903 67.3393 527.415 56.6263 527.48 45.6263L527.598 25.6263L520.074 25.3353L512.55 25.0443L512.24 44.5153C511.886 66.7253 511.357 68.3523 503.589 71.0953C499.931 72.3873 498.929 72.3873 495.271 71.0953C487.506 68.3523 486.974 66.7203 486.621 44.5563L486.311 25.1263H478.871H471.43V46.1583ZM533.43 52.6713V80.2173L535.885 82.6713C537.842 84.6293 539.361 85.1263 543.385 85.1263H548.43V55.1263V25.1263H540.93H533.43V52.6713ZM441.44 40.3763C446.472 43.8013 448.481 47.1813 449.054 53.1853C449.79 60.9043 446.7 66.7483 440.168 69.9883C425.473 77.2763 411.717 61.2443 419.705 46.1393C423.821 38.3553 434.363 35.5603 441.44 40.3763ZM618.711 40.6753C624.888 45.1553 627.036 54.9943 623.525 62.7253C619.733 71.0733 609.511 74.2333 601.389 69.5673C597.272 67.2023 593.43 60.2313 593.43 55.1263C593.43 50.1743 597.246 43.1013 601.43 40.2963C604.31 38.3653 605.913 38.0183 610.475 38.3373C613.871 38.5743 617.064 39.4803 618.711 40.6753ZM332.43 104.626V108.126H366.93H401.43V104.626V101.126H366.93H332.43V104.626Z" fill="#24DEED"/>
<path fill-rule="evenodd" clip-rule="evenodd" d="M534.885 2.58131C529.554 7.91131 533.856 18.1263 541.43 18.1263C545.978 18.1263 550.43 13.4413 550.43 8.65532C550.43 0.988318 540.397 -2.93169 534.885 2.58131ZM402.43 43.1263V85.1263H407.707C413.223 85.1263 417.43 83.1543 417.43 80.5693C417.43 78.5633 418.796 78.7683 420.897 81.0903C424.143 84.6763 430.692 86.4363 438.841 85.9133C445.07 85.5143 447.098 84.9063 451.393 82.1503C472.538 68.5813 468.729 32.3403 445.365 24.7943C436.571 21.9543 428.083 23.0233 422.567 27.6643C420.958 29.0183 419.369 30.1263 419.036 30.1263C418.703 30.1263 418.43 23.6013 418.43 15.6263V1.12633H410.43H402.43V43.1263ZM556.43 41.1263C556.43 79.7933 556.497 81.1933 558.43 83.1263C559.945 84.6413 561.763 85.1263 565.93 85.1263H571.43V43.1263V1.12633H563.93H556.43V41.1263ZM624.43 15.7483V30.3703L622.18 28.7533C616.034 24.3363 613.907 23.6533 606.43 23.7013C600.362 23.7393 597.975 24.2443 593.93 26.3483C583.831 31.5993 578.449 40.3243 577.644 52.7503C576.712 67.1563 584.481 80.5703 596.038 84.5083C605.24 87.6443 618.14 85.8153 622.302 80.7843C623.993 78.7423 625.43 78.6433 625.43 80.5693C625.43 83.1543 629.637 85.1263 635.153 85.1263H640.43V43.1263V1.12633H632.43H624.43V15.7483ZM471.43 46.1583C471.43 69.4253 471.913 71.8663 477.731 77.9983C483.135 83.6953 489.589 86.1063 499.43 86.1063C506.239 86.1063 508.924 85.6423 512.93 83.7733C519.016 80.9333 524.966 74.5723 526.342 69.4333C526.903 67.3393 527.415 56.6263 527.48 45.6263L527.598 25.6263L520.074 25.3353L512.55 25.0443L512.24 44.5153C511.886 66.7253 511.357 68.3523 503.589 71.0953C499.931 72.3873 498.929 72.3873 495.271 71.0953C487.506 68.3523 486.974 66.7203 486.621 44.5563L486.311 25.1263H478.871H471.43V46.1583ZM533.43 52.6713V80.2173L535.885 82.6713C537.842 84.6293 539.361 85.1263 543.385 85.1263H548.43V55.1263V25.1263H540.93H533.43V52.6713ZM441.44 40.3763C446.472 43.8013 448.481 47.1813 449.054 53.1853C449.79 60.9043 446.7 66.7483 440.168 69.9883C425.473 77.2763 411.717 61.2443 419.705 46.1393C423.821 38.3553 434.363 35.5603 441.44 40.3763ZM618.711 40.6753C624.888 45.1553 627.036 54.9943 623.525 62.7253C619.733 71.0733 609.511 74.2333 601.389 69.5673C597.272 67.2023 593.43 60.2313 593.43 55.1263C593.43 50.1743 597.246 43.1013 601.43 40.2963C604.31 38.3653 605.913 38.0183 610.475 38.3373C613.871 38.5743 617.064 39.4803 618.711 40.6753ZM332.43 104.626V108.126H366.93H401.43V104.626V101.126H366.93H332.43V104.626Z" fill="#7B7B7B"/>
</svg>
