<svg width="912" height="295" viewBox="0 0 912 295" fill="none" xmlns="http://www.w3.org/2000/svg">
<path fill-rule="evenodd" clip-rule="evenodd" d="M0 147.5V295H165H330V147.5V0H165H0V147.5ZM788 117.5V185H810.5H833V162.3C833 148.638 833.362 139.978 833.91 140.55C834.41 141.072 840.311 151.287 847.024 163.25L859.228 185H885.673C906.566 185 911.959 184.738 911.36 183.75C910.944 183.063 903.688 171.501 895.238 158.059C886.787 144.616 879.789 133.299 879.686 132.91C879.584 132.521 886.362 123.19 894.75 112.173C903.138 101.156 910 91.885 910 91.571C910 91.257 898.618 91 884.708 91H859.415L846.958 108.995C840.106 118.893 834.163 126.993 833.75 126.995C833.337 126.998 833 109.675 833 88.5V50H810.5H788V117.5ZM247.912 61.326C270.433 67.389 284.263 82.108 289.955 106.072C293.897 122.673 294.921 142.598 292.925 163.904C289.962 195.54 279.646 214.725 260.621 223.983C246.411 230.898 243.643 231.196 188.75 231.723L140 232.191V162.595V93H159.5H179V150.095V207.19L201.75 206.764C225.843 206.313 228.409 205.878 235.164 201.096C246.971 192.739 253.234 167.925 251.633 135.842C250.149 106.098 243.697 91.903 229.133 86.338C224.984 84.753 219.51 84.533 176.75 84.23L129 83.893V157.947V232H110H91V158V84H62.5H34V71.461V58.921L137.75 59.261C232.208 59.569 242.074 59.754 247.912 61.326ZM410 122.606V185.212L455.75 184.725C493.396 184.324 502.611 183.952 507.769 182.626C525.943 177.954 533.39 168.932 533.463 151.5C533.496 143.49 533.204 141.996 530.805 137.916C525.997 129.737 515.516 122.08 509.05 122.022C505.792 121.993 507.348 120.755 513.489 118.491C520.494 115.909 528.168 108.037 530.052 101.5C531.888 95.13 531.726 83.57 529.734 78.86C526.097 70.262 516.834 63.561 505.201 61.115C501.757 60.39 484.163 60 454.951 60H410V122.606ZM474.534 84.113C482.583 86.14 486.42 92.666 483.571 99.484C481.215 105.123 478.059 106.432 465.808 106.851L455 107.221V95.111V83H462.557C466.714 83 472.103 83.501 474.534 84.113ZM574 90.017C570.425 90.514 564.462 91.662 560.75 92.568L554 94.215V107.224C554 119.169 554.143 120.186 555.75 119.651C556.712 119.331 560.875 117.875 565 116.414C570.893 114.327 574.856 113.673 583.5 113.362C599.276 112.794 606.146 115.631 608.459 123.668C609.082 125.833 609.066 125.835 595.791 125.293C568.835 124.191 552.857 130.455 545.779 144.9C542.544 151.504 542.513 165.654 545.721 171.653C555.456 189.858 590.4 192.201 604.609 175.602L608 171.64V178.32V185H629.06H650.12L649.81 150.75L649.5 116.5L646.72 110.839C639.531 96.201 625.332 90.164 596.5 89.488C587.7 89.282 577.575 89.52 574 90.017ZM727.929 90.367C720.866 92.272 714.387 96.581 710.782 101.773L707.5 106.5L707.208 98.75L706.916 91H685.958H665V138V185H687.5H710V154.95C710 130.352 710.269 124.381 711.483 122.034C714.376 116.439 722.684 117.41 725.045 123.617C725.573 125.008 726 139.279 726 155.565V185H748.545H771.09L770.795 147.25L770.5 109.5L767.675 103.746C765.719 99.763 763.513 97.073 760.507 95.005C752.544 89.526 738.477 87.524 727.929 90.367ZM476.821 134.54C482.652 136.271 484.911 138.866 485.676 144.712C486.843 153.627 478.581 158.875 463.25 158.956L455 159V146V133H463.318C467.896 133 473.968 133.692 476.821 134.54ZM608.726 148.007C607.939 153.87 604.876 159.061 600.965 161.158C591.479 166.246 581.427 159.625 585.116 150.72C586.911 146.386 592.761 144.049 601.882 144.022L609.263 144L608.726 148.007Z" fill="#7B7B7B"/>
</svg>
